<svg width="84" height="36" viewBox="0 0 84 36" fill="none" xmlns="http://www.w3.org/2000/svg">
<path d="M33.4697 34.5271C33.0501 34.8268 32.5105 34.9467 31.971 34.9467C30.2925 34.9467 29.2734 34.2273 29.2734 33.3881C29.2734 32.4889 30.2925 31.7695 31.971 31.7695C33.11 31.7695 34.189 32.1292 34.3089 32.8486H33.17C33.0501 32.4889 32.5705 32.309 32.031 32.309C30.9519 32.309 30.5323 32.8486 30.5323 33.3281C30.5323 33.8077 30.9519 34.3472 32.031 34.3472C32.8103 34.3472 33.2898 34.1074 33.3498 33.6878H32.1509V33.2082H34.4888V34.8268H33.7095L33.4697 34.5271Z" fill="#0B1867"/>
<path d="M67.8786 33.2082H69.1974C69.737 33.2082 70.0367 33.0883 70.0367 32.7886C70.0367 32.4889 69.737 32.369 69.1974 32.369H67.8786V33.2082ZM66.6797 31.8295H69.677C70.6961 31.8295 71.2956 32.1891 71.2956 32.6687C71.2956 33.0284 71.0558 33.2682 70.3964 33.448C70.9958 33.508 71.1757 33.8676 71.1757 34.1674C71.1757 34.3472 71.1757 34.7069 71.4154 34.8867H70.2165C70.0966 34.7069 70.0966 34.4072 70.0367 34.1674C69.9767 33.8676 69.7369 33.6878 69.1375 33.6878H67.9386V34.8867H66.7396V31.8295H66.6797Z" fill="#0B1867"/>
<path d="M1.39815 34.3472H2.71697C3.19654 34.3472 3.61616 34.2873 3.61616 33.9276C3.61616 33.6279 3.25648 33.508 2.71697 33.508H1.39815V34.3472ZM1.39815 33.0284H2.59707C3.0167 33.0284 3.31643 32.9085 3.31643 32.6687C3.31643 32.369 2.89681 32.309 2.47718 32.309H1.3382V33.0284H1.39815ZM0.199219 31.8295H2.77691C3.796 31.8295 4.51536 32.0093 4.51536 32.6088C4.51536 32.9085 4.21563 33.0883 3.796 33.2682C4.45541 33.3881 4.81509 33.6878 4.81509 34.0475C4.81509 34.6469 3.85595 34.9467 2.89681 34.9467H0.199219V31.8295Z" fill="#0B1867"/>
<path d="M5.6543 31.8295H9.7906V32.369H6.85322V33.0284H9.55081V33.5679H6.85322V34.2873H9.85054V34.8268H5.6543V31.8295Z" fill="#0B1867"/>
<path d="M12.0081 33.6878H13.4468L12.7275 32.5488L12.0081 33.6878ZM12.128 31.8295H13.3869L15.4251 34.8867H14.1662L13.7466 34.2273H11.7084L11.2888 34.8867H10.0898L12.128 31.8295Z" fill="#0B1867"/>
<path d="M17.1651 33.2082H18.4839C19.0235 33.2082 19.3232 33.0883 19.3232 32.7886C19.3232 32.4889 19.0235 32.369 18.4839 32.369H17.1651V33.2082ZM15.9062 31.8295H18.9036C19.8627 31.8295 20.5221 32.1891 20.5221 32.6687C20.5221 33.0284 20.2823 33.2682 19.6229 33.448C20.2224 33.508 20.4022 33.8676 20.4022 34.1674C20.4022 34.3472 20.4022 34.7069 20.642 34.8867H19.4431C19.3232 34.7069 19.3232 34.4072 19.2632 34.1674C19.2033 33.8676 18.9635 33.6878 18.3641 33.6878H17.1651V34.8867H15.9662V31.8295H15.9062Z" fill="#0B1867"/>
<path d="M22.6794 31.8295H21.4805V34.8867H22.6794V31.8295Z" fill="#0B1867"/>
<path d="M23.7578 31.8295H24.9567L27.2946 33.8676V31.8295H28.4336V34.8268H27.2347L24.9567 32.8486H24.8968V34.8268H23.7578V31.8295Z" fill="#0B1867"/>
<path d="M38.6853 31.8295H37.4863V34.8867H38.6853V31.8295Z" fill="#0B1867"/>
<path d="M39.7637 31.8295H40.9626L43.3005 33.8676V31.8295H44.4395V34.8268H43.2406L40.9027 32.8486V34.8268H39.7637V31.8295Z" fill="#0B1867"/>
<path d="M46.7165 34.2873H47.7955C48.5149 34.2873 49.1743 34.0475 49.1743 33.3881C49.1743 32.7886 48.8146 32.369 47.5558 32.369H46.7165V34.2873ZM45.5176 31.8295H47.9154C49.3541 31.8295 50.4332 32.309 50.4332 33.3281C50.4332 34.2273 49.5939 34.8867 47.9154 34.8867H45.5176V31.8295Z" fill="#0B1867"/>
<path d="M55.8887 33.6878C55.8887 34.5271 54.9895 34.8867 53.5508 34.8867C52.0521 34.8867 51.2129 34.4671 51.2129 33.6878V31.8295H52.4118V33.6878C52.4118 34.0475 52.5917 34.3472 53.5508 34.3472C54.39 34.3472 54.6898 34.1674 54.6898 33.6878V31.8295H55.8887V33.6878Z" fill="#0B1867"/>
<path d="M57.7478 33.8676C57.7478 34.2873 58.3472 34.4072 58.9467 34.4072C59.3663 34.4072 60.0257 34.3472 60.0257 34.0475C60.0257 33.7477 59.1865 33.6878 58.4072 33.5679C57.5679 33.448 56.7886 33.2682 56.7886 32.7287C56.7886 32.1292 57.8677 31.8295 58.8268 31.8295C59.9658 31.8295 61.0448 32.1292 61.0448 32.7886H59.8459C59.7859 32.4289 59.3663 32.309 58.7668 32.309C58.4072 32.309 57.9276 32.369 57.9276 32.6687C57.9276 32.9085 58.1674 32.9085 59.5461 33.1483C59.9658 33.2082 61.1647 33.3281 61.1647 34.0475C61.1647 34.587 60.3854 35.0066 58.8867 35.0066C57.6878 35.0066 56.5488 34.6469 56.5488 33.9276H57.7478V33.8676Z" fill="#0B1867"/>
<path d="M63.1439 32.369H61.5254V31.8295H66.0214V32.369H64.3429V34.8268H63.1439V32.369Z" fill="#0B1867"/>
<path d="M73.3942 31.8295H72.1953V34.8867H73.3942V31.8295Z" fill="#0B1867"/>
<path d="M74.5332 31.8295H78.6096V32.369H75.7321V33.0284H78.3698V33.5679H75.7321V34.2873H78.6695V34.8268H74.5332V31.8295Z" fill="#0B1867"/>
<path d="M80.3474 33.8676C80.3474 34.2873 80.8869 34.4072 81.5463 34.4072C81.9659 34.4072 82.6253 34.3472 82.6253 34.0475C82.6253 33.7477 81.7861 33.6878 81.0068 33.5679C80.1675 33.448 79.3882 33.2682 79.3882 32.7287C79.3882 32.1292 80.4673 31.8295 81.4264 31.8295C82.5654 31.8295 83.6444 32.1292 83.6444 32.7886H82.4455C82.3855 32.4289 81.9659 32.309 81.3665 32.309C81.0068 32.309 80.5272 32.369 80.5272 32.6687C80.5272 32.9085 80.767 32.9085 82.1458 33.1483C82.5654 33.2082 83.7643 33.3281 83.7643 34.0475C83.7643 34.587 82.985 35.0066 81.4864 35.0066C80.2874 35.0066 79.1484 34.6469 79.1484 33.9276H80.3474V33.8676Z" fill="#0B1867"/>
<path d="M29.2734 0.897095H38.3853V9.46942L44.9194 0.897095H56.0095V8.09066H49.9549L46.6579 11.8073L53.4318 21.2789H56.0095V27.813H46.538L40.4235 18.3415L38.3853 20.3797V27.813H29.2734V21.2789H30.2326V8.09066H29.2734V0.897095Z" fill="#0B1867"/>
<path d="M15.3656 12.3469H9.55085V8.09066H15.3656V12.3469ZM26.6356 23.9165C26.5756 22.7775 26.5157 21.4587 26.3958 20.5595C26.2159 19.7203 26.096 18.8211 25.3167 17.6221C24.5374 16.4232 23.0388 15.524 23.0388 15.524C23.0388 15.524 26.156 13.4858 26.4557 10.8482C26.8754 7.43125 25.6165 5.15329 25.6165 5.15329C23.8181 1.01699 19.2022 0.897095 19.2022 0.897095H0.199219V8.09066H1.09841V21.2789H0.199219V27.813H9.55085V18.881H14.5264C15.1858 18.881 15.6054 19.0009 16.085 19.6004C16.5646 20.1998 16.9842 20.8592 17.164 22.238C17.3439 23.6168 17.3439 24.7558 17.5237 25.7748C17.7036 26.7939 18.1232 27.813 18.1232 27.813H27.4149C26.9952 26.8539 26.6356 23.9165 26.6356 23.9165Z" fill="#0B1867"/>
<path d="M73.7536 20.7393H67.9987V17.0826H73.7536V20.7393ZM67.9987 8.09066H73.0342V10.9681H67.9987V8.09066ZM83.4649 16.8428C82.3259 13.7256 80.7673 12.9463 80.7673 12.9463C81.3068 12.4068 82.3259 10.9081 82.5057 9.94899C82.6856 8.98985 83.285 6.77184 81.4267 3.83447C79.6283 0.897096 76.1514 0.897095 76.1514 0.897095H58.707V8.09066H59.6662V21.2789H58.707V27.9329H75.6119C77.3503 27.9329 78.6692 27.7531 80.1678 26.9138C81.6665 26.0746 82.6256 24.5759 83.1651 23.5568C83.6447 22.5377 84.6039 19.96 83.4649 16.8428Z" fill="#0B1867"/>
</svg>
