<svg width="133" height="101" viewBox="0 0 133 101" fill="none" xmlns="http://www.w3.org/2000/svg">
<path d="M43.3974 73.9719C42.85 74.3629 42.1463 74.5192 41.4425 74.5192C39.2531 74.5192 37.9238 73.5809 37.9238 72.4862C37.9238 71.3133 39.2531 70.375 41.4425 70.375C42.9282 70.375 44.3357 70.8442 44.4921 71.7825H43.0064C42.85 71.3133 42.2245 71.0787 41.5207 71.0787C40.1132 71.0787 39.5659 71.7825 39.5659 72.408C39.5659 73.0336 40.1132 73.7373 41.5207 73.7373C42.5372 73.7373 43.1628 73.4245 43.241 72.8772H41.6771V72.2516H44.7267V74.3629H43.7101L43.3974 73.9719Z" fill="#0B1867"/>
<path d="M88.2807 72.2526H90.0009C90.7047 72.2526 91.0956 72.0962 91.0956 71.7052C91.0956 71.3142 90.7047 71.1578 90.0009 71.1578H88.2807V72.2526ZM86.7168 70.4541H90.6265C91.9558 70.4541 92.7377 70.9233 92.7377 71.5488C92.7377 72.018 92.4249 72.3307 91.5648 72.5653C92.3467 72.6435 92.5813 73.1127 92.5813 73.5036C92.5813 73.7382 92.5813 74.2074 92.8941 74.442H91.3302C91.1738 74.2074 91.1738 73.8164 91.0956 73.5036C91.0174 73.1127 90.7047 72.8781 89.9227 72.8781H88.3589V74.442H86.795V70.4541H86.7168Z" fill="#0B1867"/>
<path d="M1.56387 73.7382H3.28413C3.90967 73.7382 4.45703 73.66 4.45703 73.1909C4.45703 72.7999 3.98787 72.6435 3.28413 72.6435H1.56387V73.7382ZM1.56387 72.018H3.12774C3.67509 72.018 4.06606 71.8616 4.06606 71.5488C4.06606 71.1578 3.5187 71.0797 2.97135 71.0797H1.48567V72.018H1.56387ZM0 70.4541H3.36232C4.69161 70.4541 5.62993 70.6887 5.62993 71.4706C5.62993 71.8616 5.23896 72.0962 4.69161 72.3307C5.55174 72.4871 6.0209 72.8781 6.0209 73.3473C6.0209 74.1292 4.7698 74.5202 3.51871 74.5202H0V70.4541Z" fill="#0B1867"/>
<path d="M7.11523 70.4541H12.5106V71.1578H8.6791V72.018H12.1978V72.7217H8.6791V73.66H12.5888V74.3638H7.11523V70.4541Z" fill="#0B1867"/>
<path d="M15.4045 72.8781H17.2812L16.3429 71.3924L15.4045 72.8781ZM15.5609 70.4541H17.203L19.8616 74.442H18.2195L17.6721 73.5818H15.0136L14.4662 74.442H12.9023L15.5609 70.4541Z" fill="#0B1867"/>
<path d="M22.1284 72.2526H23.8486C24.5524 72.2526 24.9434 72.0962 24.9434 71.7052C24.9434 71.3142 24.5524 71.1578 23.8486 71.1578H22.1284V72.2526ZM20.4863 70.4541H24.396C25.6471 70.4541 26.5072 70.9233 26.5072 71.5488C26.5072 72.018 26.1944 72.3307 25.3343 72.5653C26.1163 72.6435 26.3508 73.1127 26.3508 73.5036C26.3508 73.7382 26.3508 74.2074 26.6636 74.442H25.0997C24.9434 74.2074 24.9434 73.8164 24.8652 73.5036C24.787 73.1127 24.4742 72.8781 23.6923 72.8781H22.1284V74.442H20.5645V70.4541H20.4863Z" fill="#0B1867"/>
<path d="M29.3217 70.4541H27.7578V74.442H29.3217V70.4541Z" fill="#0B1867"/>
<path d="M30.7305 70.4541H32.2943L35.3439 73.1127V70.4541H36.8296V74.3638H35.2657L32.2943 71.7834H32.2161V74.3638H30.7305V70.4541Z" fill="#0B1867"/>
<path d="M50.2006 70.4541H48.6367V74.442H50.2006V70.4541Z" fill="#0B1867"/>
<path d="M51.6074 70.4541H53.1713L56.2208 73.1127V70.4541H57.7065V74.3638H56.1426L53.0931 71.7834V74.3638H51.6074V70.4541Z" fill="#0B1867"/>
<path d="M60.6772 73.66H62.0846C63.023 73.66 63.8831 73.3473 63.8831 72.4871C63.8831 71.7052 63.4139 71.1578 61.7719 71.1578H60.6772V73.66ZM59.1133 70.4541H62.241C64.1177 70.4541 65.5251 71.0796 65.5251 72.4089C65.5251 73.5818 64.4304 74.442 62.241 74.442H59.1133V70.4541Z" fill="#0B1867"/>
<path d="M72.6421 72.8781C72.6421 73.9728 71.4692 74.442 69.5925 74.442C67.6377 74.442 66.543 73.8946 66.543 72.8781V70.4541H68.1068V72.8781C68.1068 73.3473 68.3414 73.7382 69.5925 73.7382C70.6872 73.7382 71.0782 73.5036 71.0782 72.8781V70.4541H72.6421V72.8781Z" fill="#0B1867"/>
<path d="M75.0658 73.1127C75.0658 73.66 75.8478 73.8164 76.6297 73.8164C77.177 73.8164 78.0372 73.7382 78.0372 73.3473C78.0372 72.9563 76.9425 72.8781 75.926 72.7217C74.8312 72.5653 73.8147 72.3307 73.8147 71.627C73.8147 70.8451 75.2222 70.4541 76.4733 70.4541C77.959 70.4541 79.3665 70.8451 79.3665 71.7052H77.8026C77.7244 71.236 77.177 71.0797 76.3951 71.0797C75.9259 71.0797 75.3004 71.1578 75.3004 71.5488C75.3004 71.8616 75.6132 71.8616 77.4116 72.1744C77.959 72.2525 79.5228 72.4089 79.5228 73.3473C79.5228 74.051 78.5063 74.5984 76.5515 74.5984C74.9876 74.5984 73.502 74.1292 73.502 73.1909H75.0658V73.1127Z" fill="#0B1867"/>
<path d="M82.1034 71.1578H79.9922V70.4541H85.8567V71.1578H83.6673V74.3638H82.1034V71.1578Z" fill="#0B1867"/>
<path d="M95.474 70.4541H93.9102V74.442H95.474V70.4541Z" fill="#0B1867"/>
<path d="M96.959 70.4541H102.276V71.1578H98.5229V72.018H101.963V72.7217H98.5229V73.66H102.354V74.3638H96.959V70.4541Z" fill="#0B1867"/>
<path d="M43.8672 27.9947C43.8672 27.9947 59.8968 11.0267 82.8857 11.0267C104.311 11.0267 121.826 28.5421 121.826 50.1235C121.826 71.6267 104.389 89.2202 82.8857 89.2202C66.8561 89.2202 51.8429 81.7918 51.8429 81.7918C51.8429 81.7918 61.6171 100.402 82.8857 100.402C110.488 100.402 132.93 77.8821 132.93 50.2017C132.93 22.5212 110.488 0.00145401 82.8857 0.00145401C54.5015 -0.233126 43.8672 27.9947 43.8672 27.9947Z" fill="#E3E3E3"/>
<path d="M104.544 73.1127C104.544 73.66 105.248 73.8164 106.108 73.8164C106.656 73.8164 107.516 73.7382 107.516 73.3473C107.516 72.9563 106.421 72.8781 105.404 72.7217C104.31 72.5653 103.293 72.3307 103.293 71.627C103.293 70.8451 104.701 70.4541 105.952 70.4541C107.437 70.4541 108.845 70.8451 108.845 71.7052H107.281C107.203 71.236 106.656 71.0797 105.874 71.0797C105.404 71.0797 104.779 71.1578 104.779 71.5488C104.779 71.8616 105.092 71.8616 106.89 72.1744C107.437 72.2525 109.001 72.4089 109.001 73.3473C109.001 74.051 107.985 74.5984 106.03 74.5984C104.466 74.5984 102.98 74.1292 102.98 73.1909H104.544V73.1127Z" fill="#0B1867"/>
<path d="M37.9238 30.1055H49.8092V41.2871L58.3323 30.1055H72.7981V39.4887H64.9006L60.5999 44.3367L69.4358 56.6912H72.7981V65.2143H60.4436L52.4678 52.8598L49.8092 55.5183V65.2143H37.9238V56.6912H39.1749V39.4887H37.9238V30.1055Z" fill="#0B1867"/>
<path d="M19.7829 45.0404H12.1982V39.4887H19.7829V45.0404ZM34.4833 60.1318C34.4051 58.6461 34.3269 56.9258 34.1705 55.7529C33.936 54.6582 33.7796 53.4853 32.7631 51.9214C31.7465 50.3576 29.7917 49.1847 29.7917 49.1847C29.7917 49.1847 33.8578 46.5261 34.2487 43.0856C34.7961 38.6286 33.154 35.6572 33.154 35.6572C30.8082 30.2619 24.7873 30.1055 24.7873 30.1055H0V39.4887H1.1729V56.6912H0V65.2143H12.1982V53.5635H18.6882C19.5484 53.5635 20.0957 53.7199 20.7213 54.5018C21.3468 55.2838 21.8942 56.1439 22.1287 57.9423C22.3633 59.7408 22.3633 61.2265 22.5979 62.5558C22.8325 63.885 23.3798 65.2143 23.3798 65.2143H35.4998C34.9525 63.9632 34.4833 60.1318 34.4833 60.1318Z" fill="#0B1867"/>
<path d="M95.943 55.9875H88.4364V51.2177H95.943V55.9875ZM88.4364 39.4887H95.0046V43.242H88.4364V39.4887ZM108.61 50.9049C107.125 46.8389 105.092 45.8224 105.092 45.8224C105.795 45.1186 107.125 43.1638 107.359 41.9127C107.594 40.6616 108.376 37.7684 105.952 33.9369C103.606 30.1055 99.0707 30.1055 99.0707 30.1055H76.3164V39.4887H77.5675V56.6912H76.3164V65.3707H98.367C100.635 65.3707 102.355 65.1361 104.31 64.0414C106.265 62.9467 107.516 60.9919 108.219 59.6626C108.845 58.3333 110.096 54.971 108.61 50.9049Z" fill="#0B1867"/>
</svg>
