<svg width="170" height="130" viewBox="0 0 170 130" fill="none" xmlns="http://www.w3.org/2000/svg">
<path d="M55.5 95.5C54.8 96 53.9 96.2 53 96.2C50.2 96.2 48.5 95 48.5 93.6C48.5 92.1 50.2 90.9 53 90.9C54.9 90.9 56.7 91.5 56.9 92.7H55C54.8 92.1 54 91.8 53.1 91.8C51.3 91.8 50.6 92.7 50.6 93.5C50.6 94.3 51.3 95.2 53.1 95.2C54.4 95.2 55.2 94.8 55.3 94.1H53.3V93.3H57.2V96H55.9L55.5 95.5Z" fill="white"/>
<path d="M112.9 93.3H115.1C116 93.3 116.5 93.1 116.5 92.6C116.5 92.1 116 91.9 115.1 91.9H112.9V93.3ZM110.9 91H115.9C117.6 91 118.6 91.6 118.6 92.4C118.6 93 118.2 93.4 117.1 93.7C118.1 93.8 118.4 94.4 118.4 94.9C118.4 95.2 118.4 95.8 118.8 96.1H116.8C116.6 95.8 116.6 95.3 116.5 94.9C116.4 94.4 116 94.1 115 94.1H113V96.1H111V91H110.9Z" fill="white"/>
<path d="M2 95.2H4.2C5 95.2 5.7 95.1 5.7 94.5C5.7 94 5.1 93.8 4.2 93.8H2V95.2ZM2 93H4C4.7 93 5.2 92.8 5.2 92.4C5.2 91.9 4.5 91.8 3.8 91.8H1.9V93H2ZM0 91H4.3C6 91 7.2 91.3 7.2 92.3C7.2 92.8 6.7 93.1 6 93.4C7.1 93.6 7.7 94.1 7.7 94.7C7.7 95.7 6.1 96.2 4.5 96.2H0V91Z" fill="white"/>
<path d="M9.09961 91H15.9996V91.9H11.0996V93H15.5996V93.9H11.0996V95.1H16.0996V96H9.09961V91Z" fill="white"/>
<path d="M19.7 94.1H22.1L20.9 92.2L19.7 94.1ZM19.9 91H22L25.4 96.1H23.3L22.6 95H19.2L18.5 96.1H16.5L19.9 91Z" fill="white"/>
<path d="M28.2992 93.3H30.4992C31.3992 93.3 31.8992 93.1 31.8992 92.6C31.8992 92.1 31.3992 91.9 30.4992 91.9H28.2992V93.3ZM26.1992 91H31.1992C32.7992 91 33.8992 91.6 33.8992 92.4C33.8992 93 33.4992 93.4 32.3992 93.7C33.3992 93.8 33.6992 94.4 33.6992 94.9C33.6992 95.2 33.6992 95.8 34.0992 96.1H32.0992C31.8992 95.8 31.8992 95.3 31.7992 94.9C31.6992 94.4 31.2992 94.1 30.2992 94.1H28.2992V96.1H26.2992V91H26.1992Z" fill="white"/>
<path d="M37.5 91H35.5V96.1H37.5V91Z" fill="white"/>
<path d="M39.3008 91H41.3008L45.2008 94.4V91H47.1008V96H45.1008L41.3008 92.7H41.2008V96H39.3008V91Z" fill="white"/>
<path d="M64.1992 91H62.1992V96.1H64.1992V91Z" fill="white"/>
<path d="M66 91H68L71.9 94.4V91H73.8V96H71.8L67.9 92.7V96H66V91Z" fill="white"/>
<path d="M77.5996 95.1H79.3996C80.5996 95.1 81.6996 94.7 81.6996 93.6C81.6996 92.6 81.0996 91.9 78.9996 91.9H77.5996V95.1ZM75.5996 91H79.5996C81.9996 91 83.7996 91.8 83.7996 93.5C83.7996 95 82.3996 96.1 79.5996 96.1H75.5996V91Z" fill="white"/>
<path d="M92.8996 94.1C92.8996 95.5 91.3996 96.1 88.9996 96.1C86.4996 96.1 85.0996 95.4 85.0996 94.1V91H87.0996V94.1C87.0996 94.7 87.3996 95.2 88.9996 95.2C90.3996 95.2 90.8996 94.9 90.8996 94.1V91H92.8996V94.1Z" fill="white"/>
<path d="M96 94.4C96 95.1 97 95.3 98 95.3C98.7 95.3 99.8 95.2 99.8 94.7C99.8 94.2 98.4 94.1 97.1 93.9C95.7 93.7 94.4 93.4 94.4 92.5C94.4 91.5 96.2 91 97.8 91C99.7 91 101.5 91.5 101.5 92.6H99.5C99.4 92 98.7 91.8 97.7 91.8C97.1 91.8 96.3 91.9 96.3 92.4C96.3 92.8 96.7 92.8 99 93.2C99.7 93.3 101.7 93.5 101.7 94.7C101.7 95.6 100.4 96.3 97.9 96.3C95.9 96.3 94 95.7 94 94.5H96V94.4Z" fill="white"/>
<path d="M105.001 91.9H102.301V91H109.801V91.9H107.001V96H105.001V91.9Z" fill="white"/>
<path d="M122.1 91H120.1V96.1H122.1V91Z" fill="white"/>
<path d="M124 91H130.8V91.9H126V93H130.4V93.9H126V95.1H130.9V96H124V91Z" fill="white"/>
<path d="M56.0996 36.7001C56.0996 36.7001 76.5996 15.0001 106 15.0001C133.4 15.0001 155.8 37.4001 155.8 65.0001C155.8 92.5001 133.5 115 106 115C85.4996 115 66.2996 105.5 66.2996 105.5C66.2996 105.5 78.7996 129.3 106 129.3C141.3 129.3 170 100.5 170 65.1001C170 29.7001 141.3 0.900053 106 0.900053C69.6996 0.600053 56.0996 36.7001 56.0996 36.7001Z" fill="white"/>
<path d="M133.699 94.4C133.699 95.1 134.599 95.3 135.699 95.3C136.399 95.3 137.499 95.2 137.499 94.7C137.499 94.2 136.099 94.1 134.799 93.9C133.399 93.7 132.099 93.4 132.099 92.5C132.099 91.5 133.899 91 135.499 91C137.399 91 139.199 91.5 139.199 92.6H137.199C137.099 92 136.399 91.8 135.399 91.8C134.799 91.8 133.999 91.9 133.999 92.4C133.999 92.8 134.399 92.8 136.699 93.2C137.399 93.3 139.399 93.5 139.399 94.7C139.399 95.6 138.099 96.3 135.599 96.3C133.599 96.3 131.699 95.7 131.699 94.5H133.699V94.4Z" fill="white"/>
<path d="M48.5 39.4H63.7V53.7L74.6 39.4H93.1V51.4H83L77.5 57.6L88.8 73.4H93.1V84.3H77.3L67.1 68.5L63.7 71.9V84.3H48.5V73.4H50.1V51.4H48.5V39.4Z" fill="white"/>
<path d="M25.3 58.5H15.6V51.4H25.3V58.5ZM44.1 77.8C44 75.9 43.9 73.7 43.7 72.2C43.4 70.8 43.2 69.3 41.9 67.3C40.6 65.3 38.1 63.8 38.1 63.8C38.1 63.8 43.3 60.4 43.8 56C44.5 50.3 42.4 46.5 42.4 46.5C39.4 39.6 31.7 39.4 31.7 39.4H0V51.4H1.5V73.4H0V84.3H15.6V69.4H23.9C25 69.4 25.7 69.6 26.5 70.6C27.3 71.6 28 72.7 28.3 75C28.6 77.3 28.6 79.2 28.9 80.9C29.2 82.6 29.9 84.3 29.9 84.3H45.4C44.7 82.7 44.1 77.8 44.1 77.8Z" fill="white"/>
<path d="M122.7 72.5H113.1V66.4H122.7V72.5ZM113.1 51.4H121.5V56.2H113.1V51.4ZM138.9 66C137 60.8 134.4 59.5 134.4 59.5C135.3 58.6 137 56.1 137.3 54.5C137.6 52.9 138.6 49.2 135.5 44.3C132.5 39.4 126.7 39.4 126.7 39.4H97.5996V51.4H99.1996V73.4H97.5996V84.5H125.8C128.7 84.5 130.9 84.2 133.4 82.8C135.9 81.4 137.5 78.9 138.4 77.2C139.2 75.5 140.8 71.2 138.9 66Z" fill="white"/>
</svg>
