<svg width="130" height="99" viewBox="0 0 130 99" fill="none" xmlns="http://www.w3.org/2000/svg">
<path fill-rule="evenodd" clip-rule="evenodd" d="M64.8165 0.282227C52.3021 0.282227 42.1042 10.363 41.9014 22.8298C33.8079 26.3727 28.1367 34.4542 28.1367 43.8395C28.1367 56.48 38.4206 66.7639 51.0618 66.7639C56.2186 66.7639 60.9824 65.0513 64.8165 62.1664C68.6508 65.0513 73.4143 66.7639 78.5714 66.7639C91.2123 66.7639 101.496 56.48 101.496 43.8395C101.496 34.4542 95.8253 26.3727 87.7318 22.8298C87.529 10.363 77.3312 0.282227 64.8165 0.282227ZM73.8853 41.7338C73.3557 35.9443 70.6656 30.7722 66.629 27.0307C69.0135 25.3317 71.7713 24.127 74.7555 23.5667C76.7812 27.3765 78.6462 32.0025 80.2989 36.8229C78.5122 38.8521 76.3361 40.5295 73.8853 41.7338ZM64.8165 59.2012C60.8896 55.6816 58.3168 50.6833 57.9807 45.0904C60.1407 45.7665 62.4365 46.1317 64.8165 46.1317C67.1964 46.1317 69.4926 45.7665 71.6525 45.0904C71.3161 50.6833 68.7434 55.6816 64.8165 59.2012ZM49.334 36.8225C50.9867 32.0025 52.8517 27.3762 54.8777 23.5664C57.862 24.127 60.6198 25.3314 63.0042 27.0307C58.967 30.7722 56.2772 35.9443 55.747 41.7335C53.2968 40.5291 51.121 38.8518 49.334 36.8225ZM47.6586 34.6503C45.6698 31.6777 44.4324 28.1629 44.2196 24.378C46.3621 23.6224 48.6637 23.207 51.0618 23.207C51.5335 23.207 51.9996 23.2287 52.4635 23.2597C50.8308 26.4151 49.2279 30.211 47.6586 34.6503ZM56.0617 21.4701C58.7649 16.969 61.7206 14.0372 64.8165 14.0372C67.9126 14.0372 70.8681 16.969 73.5712 21.4701C70.346 22.1909 67.3734 23.5881 64.8165 25.5119C62.2592 23.5881 59.287 22.1909 56.0617 21.4701ZM64.8165 43.8391C62.4187 43.8391 60.1171 43.4238 57.9746 42.6681C58.2909 37.0428 60.8708 32.0141 64.8165 28.4774C68.7621 32.0141 71.342 37.0428 71.6587 42.6684C69.5162 43.4238 67.2142 43.8391 64.8165 43.8391ZM77.1697 23.2597C77.6333 23.2287 78.0998 23.207 78.5714 23.207C80.9695 23.207 83.2709 23.6224 85.4137 24.378C85.2008 28.1629 83.9638 31.678 81.9743 34.6506C80.4053 30.2113 78.8024 26.4151 77.1697 23.2597ZM64.8165 2.57483C75.7726 2.57483 84.7583 11.16 85.4078 21.9557C83.2476 21.2796 80.9514 20.9144 78.5714 20.9144C77.6919 20.9144 76.8249 20.969 75.9709 21.0661C72.3788 14.8712 68.6486 11.7446 64.8165 11.7446C60.9843 11.7446 57.2541 14.8712 53.6624 21.0661C52.808 20.969 51.9414 20.9144 51.0618 20.9144C48.6819 20.9144 46.3857 21.2796 44.2257 21.9557C44.8753 11.16 53.8604 2.57483 64.8165 2.57483ZM30.4293 43.8395C30.4293 35.7152 35.1507 28.6753 41.9923 25.3126C42.4038 29.8069 44.1183 33.9273 46.7532 37.2974C46.7114 37.4226 46.6697 37.5433 46.6283 37.6691C43.3325 47.6784 41.1305 57.7866 40.3716 61.4806C34.4157 57.8581 30.4293 51.3054 30.4293 43.8395ZM51.0618 64.4716C48.0006 64.4716 45.0959 63.7965 42.4808 62.595C43.5949 56.8863 45.7015 47.9556 48.5085 39.2992C50.5439 41.3615 52.9659 43.0388 55.6561 44.2163C55.7615 50.7008 58.5695 56.5376 63.0042 60.6479C59.6308 63.0515 55.5102 64.4716 51.0618 64.4716ZM66.6287 60.6479C71.0635 56.5376 73.8711 50.7008 73.9768 44.2163C76.6667 43.0388 79.089 41.3615 81.1241 39.2992C83.9314 47.9556 86.0383 56.8863 87.1521 62.595C84.5373 63.7965 81.6327 64.4716 78.5714 64.4716C74.1227 64.4716 70.0018 63.0515 66.6287 60.6479ZM89.2613 61.4806C88.5027 57.7866 86.3004 47.6784 83.0046 37.6691C82.9632 37.5433 82.9215 37.4226 82.8797 37.2974C85.5149 33.9273 87.2291 29.8069 87.6406 25.3126C94.4822 28.6753 99.2039 35.7152 99.2039 43.8395C99.2039 51.3054 95.2175 57.8581 89.2613 61.4806Z" fill="#0B1867"/>
<path fill-rule="evenodd" clip-rule="evenodd" d="M122.982 92.4376C122.656 92.2959 122.377 92.0947 122.147 91.8336C121.917 91.5729 121.738 91.2604 121.612 90.8952C121.486 90.5309 121.422 90.1265 121.422 89.6814V86.7586C121.422 86.2676 121.497 85.836 121.647 85.464C121.796 85.092 121.993 84.7808 122.239 84.5317C122.485 84.2823 122.771 84.0963 123.096 83.9733C123.423 83.8511 123.758 83.7896 124.103 83.7896C124.472 83.7896 124.815 83.8569 125.133 83.9908C125.452 84.1251 125.713 84.3324 125.916 84.6122C126.119 84.8924 126.278 85.255 126.394 85.6998C126.478 86.0298 126.537 86.4057 126.572 86.8272C126.606 87.2494 126.624 87.6984 126.624 88.1739C126.624 88.5421 126.606 88.9529 126.572 89.4051C126.537 89.8584 126.493 90.2304 126.44 90.5212C126.309 91.1892 126.052 91.7107 125.669 92.0869C125.285 92.4625 124.748 92.6501 124.057 92.6501C123.666 92.6501 123.308 92.5799 122.982 92.4376ZM121.422 98.2213V93.1454C121.599 93.3751 121.834 93.6132 122.13 93.859C122.425 94.1042 122.789 94.298 123.223 94.44C123.656 94.5817 124.169 94.6529 124.76 94.6529C125.243 94.6529 125.734 94.5723 126.232 94.4115C126.731 94.2501 127.176 93.968 127.567 93.5653C127.959 93.1625 128.266 92.6582 128.488 92.0523C128.664 91.5842 128.795 91.0336 128.879 90.4005C128.963 89.7678 129.006 89.0254 129.006 88.1739C129.006 87.2151 128.952 86.3727 128.845 85.6478C128.737 84.9228 128.549 84.2881 128.281 83.7433C127.621 82.4393 126.459 81.7868 124.794 81.7868C123.973 81.7868 123.281 81.9538 122.717 82.2876C122.153 82.6215 121.698 83.0643 121.353 83.6165L121.296 82.1556H119.109V98.2213H121.422ZM111.153 92.4376C110.827 92.2959 110.549 92.0947 110.319 91.8336C110.088 91.5729 109.91 91.2604 109.783 90.8952C109.657 90.5309 109.593 90.1265 109.593 89.6814V86.7586C109.593 86.2676 109.669 85.836 109.818 85.464C109.967 85.092 110.165 84.7808 110.411 84.5317C110.656 84.2823 110.942 84.0963 111.268 83.9733C111.594 83.8511 111.93 83.7896 112.275 83.7896C112.644 83.7896 112.987 83.8569 113.305 83.9908C113.624 84.1251 113.884 84.3324 114.088 84.6122C114.291 84.8924 114.45 85.255 114.565 85.6998C114.65 86.0298 114.709 86.4057 114.744 86.8272C114.778 87.2494 114.795 87.6984 114.795 88.1739C114.795 88.5421 114.778 88.9529 114.744 89.4051C114.709 89.8584 114.665 90.2304 114.611 90.5212C114.481 91.1892 114.224 91.7107 113.84 92.0869C113.457 92.4625 112.92 92.6501 112.229 92.6501C111.838 92.6501 111.479 92.5799 111.153 92.4376ZM109.593 98.2213V93.1454C109.77 93.3751 110.006 93.6132 110.302 93.859C110.597 94.1042 110.962 94.298 111.395 94.44C111.828 94.5817 112.34 94.6529 112.931 94.6529C113.415 94.6529 113.905 94.5723 114.404 94.4115C114.903 94.2501 115.348 93.968 115.739 93.5653C116.13 93.1625 116.437 92.6582 116.66 92.0523C116.836 91.5842 116.967 91.0336 117.051 90.4005C117.135 89.7678 117.177 89.0254 117.177 88.1739C117.177 87.2151 117.123 86.3727 117.016 85.6478C116.909 84.9228 116.721 84.2881 116.453 83.7433C115.793 82.4393 114.63 81.7868 112.966 81.7868C112.145 81.7868 111.452 81.9538 110.889 82.2876C110.325 82.6215 109.87 83.0643 109.525 83.6165L109.467 82.1556H107.281V98.2213H109.593ZM101.2 94.1295C101.795 93.7801 102.299 93.3181 102.714 92.7426L102.737 94.2731H104.924V82.1556H102.61V89.3016C102.61 89.7086 102.522 90.1553 102.346 90.6425C102.169 91.1297 101.856 91.5609 101.408 91.9371C100.959 92.3127 100.451 92.5007 99.8831 92.5007C99.1928 92.5007 98.6784 92.3263 98.3407 91.9772C98.0033 91.6282 97.8344 91.0818 97.8344 90.3378V82.1556H95.5215V90.9702C95.5215 91.6764 95.625 92.2648 95.832 92.7371C96.0394 93.2088 96.3098 93.587 96.6437 93.8703C96.9772 94.1544 97.3531 94.3556 97.771 94.4743C98.189 94.5933 98.6092 94.6529 99.0314 94.6529C99.8831 94.6529 100.606 94.4785 101.2 94.1295ZM90.1705 94.2731V88.6915C90.1705 88.1856 90.2356 87.5987 90.3662 86.9311C90.4963 86.2637 90.8127 85.6785 91.3154 85.1761C91.8178 84.6734 92.4952 84.4224 93.3463 84.4224C93.6306 84.4224 93.8412 84.4379 93.9797 84.468V82.1323H93.6805C92.8976 82.1323 92.1917 82.3588 91.5629 82.8114C90.9337 83.2639 90.4345 83.897 90.0667 84.7099L90.0437 82.1556H87.8576V94.2731H90.1705ZM78.9974 94.2731V89.4165L80.5967 87.7945L83.7731 94.2731H86.3967L82.2886 86.068L86.132 82.1556H83.382L78.9974 86.6318V77.8735H76.6844V94.2731H78.9974ZM66.9064 94.2731V87.1265C66.9064 86.7124 66.9964 86.2562 67.1769 85.7574C67.3571 85.2589 67.6699 84.8254 68.1144 84.4566C68.5592 84.0885 69.0735 83.9048 69.6568 83.9048C70.3471 83.9048 70.8495 84.0811 71.1639 84.434C71.4787 84.7873 71.6363 85.3314 71.6363 86.068V94.2731H73.9496V85.4579C73.9496 84.7449 73.8205 84.1005 73.5633 83.5247C73.3064 82.9495 72.9115 82.516 72.3783 82.2242C71.8452 81.9327 71.2219 81.7868 70.5082 81.7868C69.6493 81.7868 68.9202 81.9599 68.3221 82.3051C67.7233 82.6503 67.2173 83.1106 66.8029 83.6858L66.7796 82.1556H64.5935V94.2731H66.9064ZM55.1513 85.487C55.2852 85.0228 55.4635 84.6546 55.686 84.3822C55.9086 84.1102 56.1732 83.918 56.4805 83.8064C56.7869 83.6958 57.1249 83.6401 57.4927 83.6401C57.8842 83.6401 58.2737 83.7165 58.6609 83.8701C59.0481 84.0232 59.359 84.3764 59.5929 84.9289C59.8271 85.4812 59.9442 86.2482 59.9442 87.2303H54.9268C54.9417 86.5322 55.0167 85.9509 55.1513 85.487ZM59.501 94.3879C60.0956 94.2119 60.598 93.9415 61.0088 93.5773C61.419 93.2127 61.77 92.7543 62.0615 92.2021L60.2318 91.2584C60.1321 91.427 59.9859 91.6227 59.7947 91.8449C59.6026 92.0675 59.3283 92.2613 58.9714 92.4259C58.615 92.5912 58.2099 92.6737 57.7574 92.6737C57.3355 92.6737 56.9499 92.62 56.6012 92.5123C56.2518 92.4049 55.951 92.2208 55.6977 91.9601C55.4444 91.6994 55.2487 91.35 55.1109 90.913C54.9727 90.4756 54.9035 89.9308 54.9035 89.279V88.9448H62.2109V87.6793C62.2109 87.1342 62.1841 86.5626 62.1304 85.9645C62.0767 85.366 61.9521 84.8076 61.7564 84.2904C61.561 83.7721 61.2715 83.3137 60.8875 82.9152C60.5423 82.5697 60.1088 82.2954 59.5874 82.0922C59.0656 81.8887 58.4212 81.7868 57.6539 81.7868C56.8254 81.7868 56.1234 81.8926 55.5479 82.1035C54.9727 82.3145 54.4891 82.6234 54.098 83.03C53.8065 83.3215 53.5439 83.6993 53.3096 84.1632C53.0758 84.6278 52.8972 85.2298 52.7746 85.9703C52.6517 86.7108 52.5905 87.545 52.5905 88.4732C52.5905 89.1865 52.629 89.8296 52.7054 90.4005C52.782 90.9725 52.9163 91.4998 53.1084 91.9831C53.4306 92.8196 53.9583 93.4734 54.691 93.9451C55.423 94.417 56.388 94.6529 57.5853 94.6529C58.2678 94.6529 58.9067 94.5646 59.501 94.3879ZM47.6136 94.5322C48.0082 94.4517 48.3576 94.3459 48.6604 94.2152C48.9635 94.0855 49.2246 93.9415 49.4432 93.784C49.6619 93.6271 49.8324 93.4679 49.955 93.3068C50.1931 93.0076 50.3849 92.6834 50.5305 92.3341C50.6764 91.9853 50.7492 91.5454 50.7492 91.0161C50.7492 90.5713 50.699 90.1916 50.5994 89.8774C50.5001 89.5624 50.3849 89.2977 50.2542 89.0833C50.0702 88.8067 49.8055 88.5291 49.4604 88.249C49.1149 87.9688 48.4401 87.6751 47.435 87.3684C46.9287 87.2225 46.4797 87.0769 46.0889 86.9311C45.6972 86.7855 45.3653 86.6302 45.0932 86.4649C44.8208 86.2999 44.6154 86.1201 44.4773 85.924C44.3395 85.7286 44.2702 85.5044 44.2702 85.2508C44.2702 84.7294 44.4349 84.3344 44.7652 84.0655C44.9645 83.8892 45.2064 83.7663 45.4901 83.6971C45.7738 83.6282 46.1077 83.5936 46.4914 83.5936C47.0591 83.5936 47.5385 83.7149 47.9296 83.9562C48.321 84.1979 48.628 84.5721 48.8503 85.0781L50.7033 84.181C50.3733 83.3752 49.8479 82.7751 49.1265 82.3798C48.4055 81.9848 47.5191 81.7868 46.4684 81.7868C45.8777 81.7868 45.308 81.8603 44.7597 82.0059C44.211 82.1514 43.7504 82.3666 43.3784 82.6503C43.0063 82.934 42.7246 83.2639 42.5324 83.6401C42.3639 83.9394 42.2468 84.2499 42.1818 84.5721C42.1164 84.8943 42.0837 85.1897 42.0837 85.4579C42.0837 85.7649 42.13 86.0893 42.2219 86.4306C42.3144 86.7719 42.471 87.0847 42.6939 87.3684C42.8698 87.591 43.1234 87.8233 43.4531 88.0646C43.7831 88.3062 44.1971 88.5233 44.696 88.7148L46.4684 89.3709C46.7828 89.4935 47.1031 89.6241 47.4295 89.762C47.7552 89.9001 48.014 90.0861 48.2059 90.32C48.3977 90.5545 48.4938 90.8667 48.4938 91.2584C48.4938 91.5266 48.4323 91.755 48.3097 91.943C48.1868 92.1309 48.0218 92.2826 47.8148 92.3975C47.6077 92.5123 47.3658 92.5948 47.0898 92.6446C46.8135 92.6948 46.5182 92.7193 46.2038 92.7193C45.8586 92.7193 45.5516 92.6776 45.2831 92.5932C45.0146 92.5084 44.7729 92.3916 44.5578 92.2422C44.3433 92.0927 44.1551 91.918 43.9943 91.7181C43.8329 91.5189 43.6909 91.3002 43.5683 91.0624L41.658 91.9142C41.8117 92.3208 42.0223 92.6889 42.2911 93.0186C42.5593 93.3485 42.8818 93.6326 43.2577 93.8703C43.6491 94.1081 44.0842 94.298 44.564 94.44C45.0434 94.5817 45.6286 94.6529 46.3189 94.6529C46.7864 94.6529 47.2182 94.6128 47.6136 94.5322ZM37.0327 94.5322C37.4277 94.4517 37.7771 94.3459 38.0798 94.2152C38.383 94.0855 38.6437 93.9415 38.8624 93.784C39.0811 93.6271 39.2515 93.4679 39.3745 93.3068C39.6122 93.0076 39.8041 92.6834 39.95 92.3341C40.0959 91.9853 40.1687 91.5454 40.1687 91.0161C40.1687 90.5713 40.1185 90.1916 40.0189 89.8774C39.9192 89.5624 39.8041 89.2977 39.6737 89.0833C39.4896 88.8067 39.2253 88.5291 38.8795 88.249C38.5344 87.9688 37.8595 87.6751 36.8545 87.3684C36.3482 87.2225 35.8992 87.0769 35.5081 86.9311C35.117 86.7855 34.7847 86.6302 34.5127 86.4649C34.2403 86.2999 34.0349 86.1201 33.8971 85.924C33.7589 85.7286 33.6897 85.5044 33.6897 85.2508C33.6897 84.7294 33.8547 84.3344 34.1847 84.0655C34.3842 83.8892 34.6256 83.7663 34.9096 83.6971C35.1933 83.6282 35.5272 83.5936 35.9105 83.5936C36.4785 83.5936 36.958 83.7149 37.3491 83.9562C37.7405 84.1979 38.0472 84.5721 38.2697 85.0781L40.1227 84.181C39.7928 83.3752 39.2671 82.7751 38.5463 82.3798C37.8249 81.9848 36.9389 81.7868 35.8878 81.7868C35.2971 81.7868 34.7271 81.8603 34.1788 82.0059C33.6302 82.1514 33.1698 82.3666 32.7982 82.6503C32.4255 82.934 32.1437 83.2639 31.9519 83.6401C31.783 83.9394 31.6659 84.2499 31.6009 84.5721C31.5359 84.8943 31.5035 85.1897 31.5035 85.4579C31.5035 85.7649 31.5491 86.0893 31.641 86.4306C31.7335 86.7719 31.8904 87.0847 32.1133 87.3684C32.2896 87.591 32.5426 87.8233 32.8729 88.0646C33.2025 88.3062 33.6169 88.5233 34.1154 88.7148L35.8878 89.3709C36.2023 89.4935 36.5225 89.6241 36.8486 89.762C37.1747 89.9001 37.4338 90.0861 37.6257 90.32C37.8172 90.5545 37.9132 90.8667 37.9132 91.2584C37.9132 91.5266 37.8518 91.755 37.7289 91.943C37.6059 92.1309 37.4416 92.2826 37.2339 92.3975C37.0272 92.5123 36.7852 92.5948 36.509 92.6446C36.233 92.6948 35.9373 92.7193 35.6229 92.7193C35.2781 92.7193 34.9707 92.6776 34.7026 92.5932C34.4337 92.5084 34.1924 92.3916 33.9776 92.2422C33.7625 92.0927 33.5745 91.918 33.4134 91.7181C33.2527 91.5189 33.1103 91.3002 32.9877 91.0624L31.0772 91.9142C31.2308 92.3208 31.4414 92.6889 31.7102 93.0186C31.9787 93.3485 32.3009 93.6326 32.6772 93.8703C33.0683 94.1081 33.5034 94.298 33.9831 94.44C34.4625 94.5817 35.0477 94.6529 35.7381 94.6529C36.2062 94.6529 36.6377 94.6128 37.0327 94.5322ZM22.93 98.3239C23.3673 98.2016 23.793 97.9059 24.2071 97.4382C24.6215 96.9701 25.0048 96.2758 25.3581 95.3552L30.5136 82.1556H28.212L25.0472 90.5448L22.0323 82.1556H19.673L23.8506 93.7092L23.3097 94.8602C23.1483 95.2824 22.9245 95.6541 22.6365 95.9766C22.3486 96.2988 21.9362 96.4599 21.3992 96.4599C21.2077 96.4599 21.0272 96.4444 20.8583 96.414V98.4623C21.0657 98.4931 21.3377 98.5083 21.6758 98.5083C22.0746 98.5083 22.4926 98.4468 22.93 98.3239ZM11.4297 94.2731V87.1265C11.4297 86.7124 11.52 86.2562 11.7005 85.7574C11.8804 85.2589 12.1932 84.8254 12.638 84.4566C13.0828 84.0885 13.5971 83.9048 14.1804 83.9048C14.8707 83.9048 15.3728 84.0811 15.6876 84.434C16.0023 84.7873 16.1595 85.3314 16.1595 86.068V94.2731H18.4725V85.4579C18.4725 84.7449 18.3438 84.1005 18.0869 83.5247C17.8301 82.9495 17.4348 82.516 16.9016 82.2242C16.3685 81.9327 15.7455 81.7868 15.0318 81.7868C14.203 81.7868 13.4991 81.9447 12.9204 82.2585C12.3407 82.5736 11.8441 83.0032 11.4297 83.5479V77.8735H9.11674V94.2731H11.4297ZM7.11755 94.2734V92.3635C6.82608 92.3936 6.53461 92.4091 6.24314 92.4091C5.88212 92.4091 5.58871 92.3632 5.36259 92.271C5.13614 92.1788 4.95757 92.0406 4.82753 91.8569C4.69716 91.6728 4.60885 91.4432 4.56291 91.1666C4.51697 90.8906 4.49368 90.5684 4.49368 90.2V83.9733H6.99106V82.1556H4.49368V77.8739H2.19234V82.1556H0.626953V83.9733H2.19234V90.2229C2.19234 90.8444 2.2441 91.4105 2.34762 91.9206C2.45081 92.4308 2.63941 92.8639 2.91147 93.2208C3.18353 93.5776 3.55781 93.8532 4.03367 94.0489C4.50921 94.2443 5.119 94.3433 5.86303 94.3433C6.30784 94.3433 6.72644 94.3197 7.11755 94.2734Z" fill="#0B1867"/>
</svg>
