<svg width="235" height="38" viewBox="0 0 235 38" fill="none" xmlns="http://www.w3.org/2000/svg">
<path d="M36.6452 0.746094H0V8.07481H36.6452V0.746094Z" fill="#FCB53B"/>
<path d="M36.6452 15.4028H0V22.7317H36.6452V15.4028Z" fill="#F57F29"/>
<path d="M36.6452 30.062H0V37.3909H36.6452V30.062Z" fill="#E32213"/>
<path d="M179.047 8.08251L184.835 22.7257H173.242L179.047 8.08251ZM173.431 0.750977L159.363 37.3947H167.765L170.516 30.0496L187.578 30.0568L190.328 37.3947H198.685L183.799 0.750977H173.431Z" fill="black"/>
<path d="M51.2969 0.750977V37.3947H81.3623V30.0706L58.6464 30.0578V22.7336H81.3623V15.3907H58.6464V8.08507L81.3623 8.06052V0.750977H51.2969Z" fill="black"/>
<path d="M203.762 37.3648H217.97H223.61C229.528 37.3648 234.542 33.3416 234.542 26.4882C234.542 23.6635 233.458 20.8919 230.076 19.0574C233.991 16.7794 234.542 14.4513 234.542 11.6267C234.542 5.66509 229.528 0.75 223.61 0.75H217.971H203.762V8.20222H223.269C225.259 8.20222 226.873 9.81607 226.873 11.8069C226.873 13.7977 225.259 15.4117 223.269 15.4117H219.374H207.416V22.7029H219.374H223.269C225.259 22.7029 226.873 24.3169 226.873 26.3076C226.873 28.2986 225.259 29.9125 223.269 29.9125H203.762V37.3648H203.762Z" fill="black"/>
<path d="M149.236 0.75H143.597H129.021V37.3937H136.354V22.7029H145H149.236C155.299 22.7029 160.213 17.7886 160.213 11.7264C160.213 5.66424 155.299 0.75 149.236 0.75ZM148.895 15.4117H136.344V8.20222H148.895C150.886 8.20222 152.5 9.81607 152.5 11.8069C152.5 13.7977 150.886 15.4117 148.895 15.4117Z" fill="black"/>
<path d="M116.684 19.0573C120.599 16.7793 121.149 14.4513 121.149 11.6267C121.149 5.66509 116.136 0.75 110.218 0.75L110.218 0.750122C110.216 0.750122 110.215 0.75 110.213 0.75H90.1816V37.3647H110.58C116.498 37.3647 121.512 33.3414 121.512 26.488C121.512 23.6635 120.066 20.8922 116.684 19.0573ZM97.5044 8.20235H109.872C111.863 8.20235 113.476 9.8162 113.476 11.807C113.476 13.7979 111.863 15.4118 109.872 15.4118H106.16H97.5044V8.20235ZM110.238 29.9125H97.5044V22.7029H110.238C112.229 22.7029 113.843 24.3169 113.843 26.3077C113.843 28.2986 112.229 29.9125 110.238 29.9125Z" fill="black"/>
</svg>
