<svg width="275" height="70" viewBox="0 0 275 70" fill="none" xmlns="http://www.w3.org/2000/svg">
<path d="M43.0351 12.1043C40.6599 11.327 38.1284 10.9011 35.4958 10.9011C22.1161 10.9011 11.2728 21.7444 11.2728 35.1216C11.2728 43.804 15.8426 51.4179 22.7081 55.6917L18.2995 65.1465C7.8966 59.181 0.886719 47.9743 0.886719 35.1216C0.886719 16.0123 16.3792 0.51738 35.491 0.51738C39.6926 0.51738 43.7209 1.26818 47.446 2.64225L43.0351 12.1043Z" fill="#F46D1E"/>
<path d="M52.6684 5.09073C63.0738 11.0586 70.0909 22.2653 70.0909 35.1228C70.0909 54.2321 54.5984 69.7271 35.4866 69.7271C31.2802 69.7271 27.2471 68.9738 23.5195 67.5998L27.9329 58.1353C30.3128 58.915 32.8492 59.3458 35.4914 59.3458C48.8663 59.3458 59.712 48.5001 59.712 35.1228C59.712 26.4308 55.1326 18.8145 48.2623 14.5431L52.6684 5.09073Z" fill="#F46D1E"/>
<path d="M274.168 45.8325H265.267H81.8691V44.4633H274.168V45.8325Z" fill="#0B1A35"/>
<path d="M271.367 19.3342C269.499 17.8374 267.548 17.1034 265.43 17.1034C263.166 17.1034 261.895 17.977 261.895 19.4449C261.895 23.9689 274.163 21.2834 274.163 29.7082C274.163 34.5114 270.065 37.3125 264.862 37.3125C261.751 37.3125 258.757 36.4342 256.156 34.4007L258.331 30.2713C260.425 32.1122 262.348 32.9569 265.088 32.9569C267.435 32.9569 269.076 32.081 269.076 30.3844C269.076 25.8363 256.806 28.7481 256.806 20.097C256.806 15.7173 260.425 12.7213 265.37 12.7213C268.455 12.7213 271.194 13.6262 273.458 15.236L271.367 19.3342ZM89.1506 25.1288H90.337C91.7784 25.1288 93.0779 25.0422 94.0982 24.2794C94.8875 23.6874 95.3399 22.7272 95.3399 21.5384C95.3399 20.2679 94.9164 19.3342 94.0982 18.7133C93.0779 17.977 92.0046 17.8951 90.6185 17.8951H87.1148V36.8312H81.9121V13.2026H90.8736C93.73 13.2026 96.2158 13.6262 98.2252 15.4911C99.7773 16.9326 100.624 18.9997 100.624 21.3676C100.624 25.0422 98.7065 27.5328 95.8212 28.7192C93.872 29.5398 91.8939 29.6216 89.9976 29.6216H89.1506V25.1288ZM237.756 36.8312V13.2026H242.986V32.2229H254.264L252.089 36.8312H237.756ZM214.412 36.8312H209.125L219.244 13.0318H224.191L234.308 36.8312H228.742L226.564 31.5443H218.594L220.291 27.1358H224.81L221.59 19.2788L214.412 36.8312ZM203.91 17.8374V36.8312H198.71V17.8374H191.5V13.2026H211.091V17.8374H203.91ZM169.992 36.8312V13.2026H187.828V17.8374H175.163V22.6117H185.876V27.2489H175.163V32.2229H187.997V36.8312H169.992ZM158.997 36.8312V21.3965L152.353 31.489H152.213L145.627 21.5096V36.8312H140.513V13.2026H146.021L152.353 23.2061L158.655 13.2026H164.168V36.8312H158.997ZM134.687 36.8312H129.485V13.2026H134.687V34.9013V36.8312ZM114.336 24.6764C115.691 24.6764 116.964 24.5056 117.84 23.7163C118.49 23.1219 118.829 22.3013 118.829 21.3411C118.829 20.2101 118.463 19.3342 117.756 18.7711C116.738 17.9505 115.381 17.8951 114.221 17.8951H109.557V36.8312H104.357V13.2026H114.449C117.193 13.2026 119.45 13.5419 121.317 14.9545C123.095 16.3117 124.087 18.4029 124.087 21.0596C124.087 24.8761 122.025 27.2777 119.029 28.4064L124.792 36.8312H118.716L113.658 29.2847H111.595V24.6764H114.336Z" fill="#0B1A35"/>
<path d="M271.665 54.7586C273.335 55.1845 274.209 55.7765 274.209 57.1048C274.209 58.5751 273.051 59.4511 271.381 59.4511C270.168 59.4511 269.035 59.0564 268.075 58.207L268.924 57.2179C269.687 57.8676 270.421 58.2358 271.41 58.2358C272.257 58.2358 272.825 57.8412 272.825 57.2179C272.825 56.6524 272.483 56.3709 271.042 56.0027C269.345 55.6056 268.417 55.0979 268.417 53.6275C268.417 52.2703 269.516 51.339 271.1 51.339C272.257 51.339 273.162 51.6759 273.954 52.3281L273.22 53.3725C272.512 52.8358 271.807 52.5543 271.073 52.5543C270.25 52.5543 269.798 52.9778 269.798 53.5144C269.798 54.1353 270.14 54.4193 271.665 54.7586ZM257.956 52.6963H253.487V54.7586H257.443V55.9738H253.487V58.0963H258.011V59.338H252.101V51.4497H257.956V52.6963ZM241.022 59.338H239.609V51.4497H241.022V58.3634V59.338ZM225.361 59.4775C222.875 59.4775 221.265 57.7257 221.265 55.4107C221.265 53.1727 222.962 51.3102 225.334 51.3102C226.692 51.3102 227.536 51.7048 228.359 52.3834L227.483 53.4326C226.863 52.9201 226.266 52.5832 225.277 52.5832C223.809 52.5832 222.707 53.8537 222.707 55.3818C222.707 57.0206 223.78 58.207 225.392 58.207C226.155 58.207 226.802 57.9807 227.31 57.6126V56.1447H225.277V54.9294H228.641V58.2623C227.878 58.9144 226.747 59.4775 225.361 59.4775ZM206.735 52.5832C205.178 52.5832 204.081 53.8537 204.081 55.3818C204.081 56.9364 205.21 58.207 206.764 58.207C208.348 58.207 209.421 56.9628 209.421 55.4107C209.421 53.8537 208.319 52.5832 206.735 52.5832ZM206.735 59.4775C204.334 59.4775 202.637 57.6439 202.637 55.4107C202.637 53.1727 204.334 51.3102 206.764 51.3102C209.195 51.3102 210.894 53.1487 210.894 55.3818C210.894 57.6126 209.168 59.4775 206.735 59.4775ZM187.515 51.4497H188.928V58.0963H193.055V59.338H187.515V51.4497ZM172.393 52.5832C170.81 52.5832 169.737 53.8537 169.737 55.3818C169.737 56.9364 170.836 58.207 172.422 58.207C173.974 58.207 175.079 56.9628 175.079 55.4107C175.079 53.8537 173.945 52.5832 172.393 52.5832ZM172.393 59.4775C169.963 59.4775 168.266 57.6439 168.266 55.4107C168.266 53.1727 169.989 51.3102 172.422 51.3102C174.826 51.3102 176.52 53.1487 176.52 55.3818C176.52 57.6126 174.826 59.4775 172.393 59.4775ZM155.914 51.4497H157.269V59.338H156.112L151.758 53.7406V59.338H150.401V51.4497H151.672L155.914 56.9075V51.4497ZM134.177 56.0316V59.338H132.793V51.4497H134.177V54.7297H137.936V51.4497H139.32V59.338H137.936V56.0316H134.177ZM119.082 59.4775C116.793 59.4775 115.07 57.6992 115.07 55.4107C115.07 53.1487 116.738 51.3102 119.137 51.3102C120.607 51.3102 121.483 51.8179 122.22 52.5543L121.344 53.5722C120.694 52.9778 120.042 52.5832 119.137 52.5832C117.611 52.5832 116.512 53.8273 116.512 55.3818C116.512 56.9364 117.611 58.207 119.137 58.207C120.097 58.207 120.723 57.8123 121.401 57.189L122.275 58.0963C121.454 58.9409 120.55 59.4775 119.082 59.4775ZM104.667 52.6963H100.198V54.7586H104.157V55.9738H100.198V58.0963H104.723V59.338H98.8148V51.4497H104.667V52.6963ZM85.8129 59.338H84.4292V52.7227H81.9121V51.4497H88.3276V52.7227H85.8129V59.338Z" fill="#0B1A35"/>
</svg>
