<svg width="273" height="48" viewBox="0 0 273 48" fill="none" xmlns="http://www.w3.org/2000/svg">
<path d="M97.4941 11.5625V36.8588H117.777V32.4577L103.082 32.496V26.2581H117.777V21.857L103.082 21.8188V15.9635H117.777V11.5625H97.4941Z" fill="black"/>
<path d="M143.076 36.858V11.5234H148.434V36.858H143.076Z" fill="black"/>
<path d="M73.198 11.5234L79.5125 31.3089L86.1714 11.5234H94.0167V36.858H88.8886V17.8762L82.2679 36.858H76.7188L70.4809 17.8762V36.858H65.3145V11.5234H73.198Z" fill="black"/>
<path d="M127.575 16.0393H119.5V11.5234H141.352V16.0393H132.933V36.858H127.575V16.0393Z" fill="black"/>
<path d="M203.926 11.5625V36.8588H224.209V32.4577H209.513V26.2581H224.209V21.857L209.513 21.8188V15.9635H224.209V11.5625H203.926Z" fill="black"/>
<path d="M258.376 16.0393H250.301V11.5234H272.153V16.0393H263.733V36.858H258.376V16.0393Z" fill="black"/>
<path d="M169.133 29.7015L158.724 11.5234H151.988V36.858H157.461L157.231 17.6849L168.138 36.858H174.3V11.5234H168.865L169.133 29.7015Z" fill="black"/>
<path d="M189.195 30.3904L181.618 11.5234H175.533L186.593 36.858H192.142L202.666 11.5234H197.003L189.195 30.3904Z" fill="black"/>
<path d="M241.541 22.1241H234.5C232.28 22.1241 231.17 21.2057 231.17 19.3687C231.17 17.0725 232.433 16.0393 235.265 16.0393H248.43V11.5234H234.5C231.4 11.5234 229.142 12.1358 227.764 13.3987C226.31 14.6233 225.621 16.6133 225.621 19.2922C225.621 24.3438 228.223 26.5634 234.079 26.5634H240.393C243.149 26.5634 244.144 27.3671 244.144 29.4719C244.144 31.5385 243.034 32.3421 240.01 32.3421H226.654V36.858H240.852C246.976 36.858 249.731 34.4852 249.731 29.2423C249.731 26.6782 249.119 24.8413 247.856 23.7697C246.555 22.6599 244.45 22.1241 241.541 22.1241Z" fill="black"/>
<path d="M40.0902 2.37725C40.0902 2.37725 36.7607 0.999538 36.3015 0.80819C35.8423 0.616842 35.383 0.578572 34.8855 0.693381C34.388 0.80819 34.0436 1.07608 33.8522 1.26743C33.6609 1.45877 26.5045 8.61521 26.5045 8.61521C26.5045 8.61521 19.4246 1.53531 19.195 1.3057C18.9653 1.07608 18.6974 0.84646 18.1234 0.693381C17.5494 0.540302 17.0519 0.655111 16.7457 0.80819C16.4395 0.922999 13.378 2.22417 12.957 2.37725C12.536 2.53033 12.1533 2.87475 11.8854 3.29572C11.6941 3.64015 11.541 4.02284 11.541 4.48208C11.541 4.06111 11.541 14.4322 11.541 14.4322L18.1234 18.2209V9.57195L21.185 12.6335C21.4146 12.8631 21.6825 13.0162 21.9886 13.131C22.2183 13.2076 22.4096 13.2841 22.754 13.2841C23.0985 13.2841 30.2166 13.2841 30.2166 13.2841C30.4845 13.2841 30.7524 13.2458 30.982 13.131C31.2499 13.0162 31.5178 12.8631 31.8239 12.557C32.1301 12.2508 34.8473 9.53368 34.8473 9.53368V18.1826L41.4296 14.3939C41.4296 14.3939 41.4296 5.51536 41.4296 4.52035C41.4679 3.48707 40.8939 2.72167 40.0902 2.37725Z" fill="#ED1C24"/>
<path d="M0.558933 23.8085C0.558933 23.8085 1.01817 27.3676 1.09471 27.8651C1.17125 28.3626 1.3626 28.7836 1.70702 29.1663C2.05145 29.549 2.47242 29.7021 2.74031 29.7786C3.00819 29.8551 12.767 32.4575 12.767 32.4575C12.767 32.4575 10.1646 42.1397 10.0881 42.4076C10.0115 42.7138 9.93501 43.0582 10.0881 43.6322C10.2412 44.2063 10.6239 44.589 10.8917 44.7803C11.1596 44.9717 13.8002 47 14.1447 47.2679C14.4891 47.5357 14.9866 47.7271 15.4841 47.7271C15.8668 47.7271 16.2878 47.6505 16.6705 47.4209C16.2878 47.6505 25.2811 42.4459 25.2811 42.4459V34.8302L17.7803 39.1547L18.8901 34.945C18.9667 34.6389 18.9667 34.3327 18.9284 33.9883C18.8901 33.7204 18.8518 33.5673 18.6605 33.2229C18.4691 32.9167 14.9101 26.7553 14.9101 26.7553C14.757 26.5257 14.6039 26.3343 14.4126 26.1813C14.1829 25.9899 13.9151 25.8368 13.4941 25.722C13.1114 25.6072 9.36096 24.6122 9.36096 24.6122L16.8618 20.2877L10.2794 16.499C10.2794 16.499 2.58723 20.9383 1.70702 21.4358C0.826821 22.0099 0.444124 22.9283 0.558933 23.8085Z" fill="#ED1C24"/>
<path d="M38.8666 47.3056C38.8666 47.3056 41.7368 45.1242 42.1195 44.818C42.5022 44.5119 42.7701 44.1292 42.9232 43.6699C43.0762 43.1724 42.9997 42.7515 42.9614 42.4836C42.8849 42.2157 40.2826 32.4569 40.2826 32.4569C40.2826 32.4569 49.9648 29.8546 50.2709 29.7781C50.5771 29.7015 50.9215 29.5867 51.3425 29.1657C51.7635 28.7448 51.9165 28.2473 51.9548 27.9028C51.9931 27.5584 52.414 24.2672 52.4906 23.8463C52.5671 23.387 52.4906 22.8895 52.2227 22.4685C52.0314 22.1241 51.7635 21.818 51.3808 21.5883C51.7635 21.818 42.7701 16.6133 42.7701 16.6133L36.1877 20.402L43.6886 24.7265L39.4789 25.8363C39.1727 25.9128 38.9048 26.0659 38.637 26.2572C38.4456 26.4103 38.2925 26.5634 38.1395 26.8696C37.9481 27.1757 34.389 33.3371 34.389 33.3371C34.2742 33.5668 34.1594 33.7964 34.1211 34.0643C34.0829 34.3704 34.0829 34.6766 34.1977 35.0593C34.3125 35.442 35.3075 39.1924 35.3075 39.1924L27.8066 34.8679V42.4836C27.8066 42.4836 35.4988 46.9229 36.379 47.4204C37.221 47.9562 38.1777 47.8413 38.8666 47.3056Z" fill="#ED1C24"/>
</svg>
