<svg width="234" height="60" viewBox="0 0 234 60" fill="none" xmlns="http://www.w3.org/2000/svg">
<path fill-rule="evenodd" clip-rule="evenodd" d="M55.875 16.4279V25.1968H66.6932V58.2044H75.7264V25.1985H86.5496V16.4263L55.875 16.4279Z" fill="#807E82"/>
<path fill-rule="evenodd" clip-rule="evenodd" d="M96.5644 52.2975C91.8865 52.2975 89.802 48.4546 89.8586 44.6116H110.874C110.763 41.123 110.535 35.0958 106.706 30.7804C105.357 29.3292 103.715 28.1828 101.887 27.4182C100.06 26.6536 98.0902 26.2883 96.1103 26.3469C84.5069 26.3469 81.0117 35.9226 81.0117 43.3706C81.0117 53.477 87.1536 59.3295 95.8873 59.3295C100.018 59.3837 104.004 57.8123 106.987 54.9543C108.353 53.5671 109.544 52.0185 110.535 50.3428L104.001 46.8575C102.931 49.0435 101.296 52.2975 96.5644 52.2975ZM91.6602 34.8579C92.2083 34.2303 92.8837 33.7267 93.6415 33.3805C94.3993 33.0342 95.2222 32.8534 96.0554 32.8499C97.6359 32.8381 99.1564 33.4544 100.283 34.5634C101.276 35.8125 101.847 37.3444 101.914 38.9387H89.9151C90.1131 37.4446 90.7167 36.0332 91.6602 34.8579ZM123.238 30.1299C124.021 29.1133 125.022 28.2851 126.168 27.7061C127.859 26.9761 129.679 26.5936 131.521 26.5815C133.345 26.5446 135.148 26.9723 136.761 27.8242C139.86 29.5377 140.647 32.3159 140.647 37.1054V58.2066H132.03V40.8286C132.177 39.2808 132.043 37.7191 131.636 36.2187C131.315 35.4689 130.767 34.8379 130.07 34.4138C129.374 33.9898 128.562 33.7938 127.748 33.8531C123.183 33.8531 123.183 37.696 123.183 41.5356V58.205H114.506V27.4116H123.238V30.1299ZM170.966 58.2066C170.287 57.1419 170.121 56.6678 170.121 53.3572V35.3903C170.121 27.4099 161.387 26.5232 157.782 26.5232C154.351 26.2649 150.939 27.2284 148.15 29.2432C147.156 30.0844 146.363 31.1362 145.826 32.3223C145.289 33.5083 145.023 34.799 145.047 36.1006H153.725C153.774 35.5586 153.932 35.0322 154.191 34.5535C154.45 34.0748 154.804 33.6539 155.231 33.3164C155.658 32.9789 156.149 32.732 156.675 32.5906C157.2 32.4491 157.749 32.4163 158.288 32.4939C161.389 32.4939 161.502 34.8579 161.613 36.277V37.9306C157.673 38.558 153.791 39.5072 150.007 40.7687C148.225 41.487 146.691 42.7075 145.591 44.2817C144.49 45.8559 143.871 47.716 143.808 49.6357C143.771 50.9004 143.996 52.159 144.471 53.332C144.945 54.505 145.657 55.5669 146.563 56.4503C147.468 57.3338 148.548 58.0197 149.732 58.4646C150.916 58.9095 152.18 59.1038 153.444 59.0351C156.8 58.9762 160.013 57.6683 162.457 55.3668V58.2066H170.966ZM158.572 51.3476C157.696 51.9683 156.656 52.3187 155.583 52.3557C154.735 52.3687 153.916 52.0466 153.305 51.4595C152.693 50.8723 152.337 50.0675 152.316 49.2198C152.316 46.8575 154.571 45.9708 156.035 45.3802L161.613 43.4271C161.558 46.6213 161.445 49.4594 158.572 51.3476ZM183.436 30.5458C185.758 28.3868 188.775 27.1289 191.943 26.999V35.0359L189.07 35.51C184.9 36.2803 183.661 36.9274 183.661 40.8286V58.2066H174.983V27.2902H183.436V30.5458Z" fill="#807E82"/>
<path d="M195.271 27.2934H203.834V58.2066H195.271V27.2934ZM195.271 16.4185H203.834V23.4522H195.271V16.4185Z" fill="#807E82"/>
<path fill-rule="evenodd" clip-rule="evenodd" d="M211.18 47.8004C212.252 49.0447 213.562 50.0624 215.032 50.7937C216.503 51.5251 218.105 51.9553 219.744 52.0592C221.83 52.0592 224.984 51.3472 224.984 49.0431C224.994 48.6686 224.892 48.2997 224.691 47.9837C224.489 47.6677 224.198 47.4191 223.855 47.2697C222.25 46.6373 220.562 46.2395 218.844 46.0885C217.51 45.8582 216.192 45.5426 214.898 45.1436C213.062 44.6969 211.373 43.7808 209.997 42.4851C208.564 40.8963 207.779 38.8273 207.798 36.6875C207.798 31.6085 211.968 26.3482 220.197 26.3482C224.969 26.3443 229.599 27.9701 233.322 30.9563L227.97 36.1584C225.933 34.3208 223.328 33.2359 220.589 33.0841C217.207 33.0841 216.42 34.5032 216.42 35.3899C216.42 37.1633 218.278 37.5159 221.096 38.0483C227.014 39.1712 233.888 40.8265 233.888 48.158C233.888 55.428 226.901 58.9731 219.969 58.9731C217.307 59.0342 214.663 58.5343 212.207 57.5059C209.752 56.4775 207.54 54.9436 205.717 53.0041L211.18 47.8004Z" fill="#807E82"/>
<path d="M0.6875 40.3406H45.0532V41.7779H0.6875V40.3406ZM0.6875 16.4296H45.0532V25.1984H0.6875V16.4296ZM0.6875 3.25049H45.0532V5.44645H0.6875V3.25049Z" fill="#00A84F"/>
<path d="M0.6875 36.1896H45.0532V38.3839H0.6875V36.1896ZM0.6875 8.13623H45.0532V12.5248H0.6875V8.13623Z" fill="#0066B0"/>
<path d="M0.6875 29.1131H45.0532V33.5H0.6875V29.1131ZM0.6875 0H45.0532V1.44068H0.6875V0Z" fill="#A9218E"/>
</svg>
