<svg width="365" height="50" viewBox="0 0 365 50" fill="none" xmlns="http://www.w3.org/2000/svg">
<path d="M24.6095 19.4171L14.8297 18.0302C13.3716 17.8168 12.2336 17.4612 11.5224 16.9277C10.8111 16.3943 10.4555 15.7186 10.4555 14.545C10.4555 13.2647 11.1312 12.3045 12.2692 11.5933C13.4072 10.882 14.972 10.5264 16.43 10.5264C19.0261 10.5264 20.9821 10.9176 22.2624 11.7711C23.5426 12.6246 24.2539 13.8693 24.3961 15.932L24.4317 16.5721H33.4291L33.3935 15.8964C33.2868 12.269 31.7576 9.2817 28.9837 7.25462C26.2098 5.22753 22.2268 4.16064 17.1413 4.16064C13.0871 4.16064 9.13966 4.97859 6.15238 6.82786C3.1651 8.67713 1.13801 11.7 1.17358 15.8608C1.17358 18.2435 1.99152 20.5551 4.0186 22.3333C6.04569 24.1114 9.17522 25.4272 13.7628 26.0318L20.8043 26.992C22.6535 27.2409 23.9338 27.6677 24.6806 28.2011C25.4274 28.7701 25.7475 29.3747 25.7475 30.4416C25.7475 31.4729 25.2852 32.5398 24.0761 33.4289C22.8669 34.3179 20.8398 34.9936 17.7814 34.9936C14.8653 34.9936 12.7315 34.3891 11.3445 33.3933C9.9576 32.362 9.21078 30.975 8.9974 29.0902L8.92628 28.4856H0V29.1613C0 33.0021 1.67145 36.1672 4.62317 38.2299C7.57489 40.3281 11.7002 41.395 16.7501 41.395C22.618 41.395 27.1345 40.3636 30.264 38.3366C33.3935 36.3095 35.065 33.2511 35.0294 29.5525C35.0294 27.6677 34.5671 25.4272 33.0023 23.5068C31.4376 21.5509 28.7704 19.9861 24.6095 19.4171Z" fill="#0076BD"/>
<path d="M66.5743 31.8642L54.0918 5.0498H40.2578V40.4704H48.5084V13.3359L61.1332 40.4704H71.3397L83.6445 13.4071V40.4704H92.6419V5.0498H78.8079L66.5743 31.8642Z" fill="#0076BD"/>
<path d="M122.513 19.4171L112.733 18.0302C111.275 17.8168 110.137 17.4612 109.426 16.9277C108.714 16.3943 108.359 15.7186 108.323 14.545C108.323 13.2647 108.999 12.3045 110.137 11.5933C111.275 10.882 112.84 10.5264 114.298 10.5264C116.894 10.5264 118.85 10.9176 120.13 11.7711C121.41 12.6246 122.121 13.8693 122.264 15.932L122.299 16.5721H131.261L131.226 15.8964C131.119 12.269 129.59 9.2817 126.816 7.25462C124.042 5.22753 120.059 4.16064 114.973 4.16064C110.919 4.16064 106.972 4.97859 103.984 6.82786C100.997 8.67713 98.97 11.7 99.0056 15.8608C99.0056 18.2435 99.8235 20.5551 101.851 22.3333C103.878 24.1114 107.007 25.4272 111.595 26.0318L118.636 26.992C120.486 27.2409 121.766 27.6677 122.513 28.2011C123.259 28.7701 123.58 29.3747 123.58 30.4416C123.58 31.4729 123.117 32.5398 121.908 33.4289C120.699 34.3179 118.672 34.9936 115.613 34.9936C112.697 34.9936 110.564 34.3891 109.177 33.3933C107.79 32.362 107.043 30.975 106.829 29.0902L106.758 28.4856H97.832V29.1613C97.832 33.0021 99.5035 36.1672 102.455 38.2299C105.407 40.3281 109.532 41.395 114.582 41.395C120.45 41.395 124.966 40.3636 128.096 38.3366C131.226 36.3095 132.897 33.2511 132.861 29.5525C132.861 27.6677 132.399 25.4272 130.834 23.5068C129.305 21.5509 126.674 19.9861 122.513 19.4171Z" fill="#0076BD"/>
<path d="M226.392 17.8527C224.152 15.8256 221.129 14.5098 217.003 14.5098C213.127 14.5098 209.713 15.7545 207.259 17.9949C204.805 20.2709 203.383 23.5427 203.383 27.4902C203.383 30.8331 204.628 33.9982 206.975 36.3098C209.322 38.6569 212.771 40.115 217.11 40.115C219.955 40.115 223.547 39.1548 225.965 36.9144V38.5147C225.965 40.5062 225.325 41.8932 224.116 42.8534C222.907 43.8136 221.022 44.347 218.461 44.347C216.861 44.347 215.474 44.0269 214.55 43.5291C213.625 42.9956 213.163 42.3555 213.127 41.4664V40.8263H204.592L204.628 41.5375C204.77 44.7026 206.441 46.9075 208.966 48.1878C211.491 49.4681 214.834 49.9659 218.604 49.9659C223.44 49.9659 227.352 49.2191 230.162 47.3343C232.971 45.485 234.5 42.4977 234.5 38.4791V22.0135C234.5 20.3776 234.571 17.497 234.678 16.2168L234.749 15.5055H226.641L226.392 17.8527ZM220.524 34.176C220.097 34.2471 219.671 34.2827 219.173 34.2827C218.426 34.2827 217.75 34.176 217.11 34.0338C217.003 33.9982 216.861 33.9627 216.754 33.9271C215.688 33.607 214.798 33.038 214.123 32.2912C213.305 31.4021 212.771 30.2641 212.522 28.9127C212.416 28.4148 212.38 27.8814 212.38 27.3124C212.38 25.2853 212.985 23.5427 214.123 22.3336C214.621 21.8002 215.19 21.3734 215.865 21.0533C216.612 20.6977 217.466 20.4488 218.461 20.3776C218.675 20.3776 218.924 20.3421 219.173 20.3421C219.386 20.3421 219.564 20.3421 219.777 20.3776C221.164 20.4488 222.302 20.84 223.191 21.4445C223.227 21.4445 223.227 21.4801 223.262 21.4801L223.298 21.5156C223.618 21.729 223.938 22.0135 224.187 22.298C224.258 22.3692 224.329 22.4758 224.4 22.547C224.756 23.0093 225.076 23.5072 225.325 24.0762C225.361 24.1473 225.361 24.1829 225.396 24.254C225.467 24.3962 225.503 24.5385 225.538 24.6807C225.538 24.7163 225.538 24.7519 225.574 24.7519C225.823 25.5342 225.93 26.3878 225.93 27.2768C225.93 28.2726 225.787 29.1617 225.503 29.9796C225.218 30.8687 224.756 31.6511 224.187 32.2556C223.903 32.5401 223.618 32.8246 223.262 33.038L223.227 33.0736C223.191 33.0736 223.191 33.1091 223.156 33.1091C222.48 33.6781 221.591 33.9982 220.524 34.176Z" fill="#0076BD"/>
<path d="M254.988 14.9722C252.108 14.9722 250.116 15.8257 248.836 16.9281C248.374 17.3193 247.982 17.7461 247.662 18.1728C247.627 17.4616 247.591 16.7503 247.52 16.0391L247.485 15.4345H239.27L239.305 16.1457C239.376 17.7461 239.483 19.8087 239.483 22.0492V40.4707H247.982V30.2286C247.982 27.0635 248.729 25.0365 250.045 23.7562C251.361 22.4759 253.424 21.8714 256.233 21.8714C256.909 21.8714 257.513 21.9069 258.011 21.9781C258.58 22.0136 259.078 22.0847 259.434 22.1559L260.252 22.3337V15.5767L259.718 15.47C258.011 15.1144 256.553 14.9722 254.988 14.9722Z" fill="#0076BD"/>
<path d="M278.14 14.545C272.023 14.545 267.933 16.1453 265.444 18.6703C262.919 21.1953 262.03 24.6093 262.065 27.9522C262.065 31.3307 262.955 34.7092 265.444 37.2341C267.969 39.7591 272.023 41.3594 278.14 41.3594C284.257 41.3594 288.311 39.7591 290.836 37.2341C293.361 34.7092 294.25 31.3307 294.25 27.9522C294.25 24.5737 293.361 21.1953 290.836 18.6703C288.346 16.1098 284.257 14.5095 278.14 14.545ZM270.814 27.9522C270.814 26.7075 271.027 25.5695 271.383 24.5737C271.667 23.7914 272.059 23.1157 272.592 22.5467C273.126 21.9421 273.801 21.4798 274.584 21.0886C274.833 20.9819 275.081 20.8752 275.33 20.8041C275.544 20.7329 275.793 20.6618 276.042 20.6263C276.077 20.6263 276.113 20.5907 276.184 20.5907C276.397 20.5551 276.646 20.5196 276.895 20.484C276.966 20.484 277.037 20.4484 277.109 20.4484C277.429 20.4129 277.784 20.4129 278.104 20.4129C279.029 20.4129 279.882 20.5196 280.594 20.7329C280.629 20.7329 280.629 20.733 280.665 20.7685C280.772 20.8041 280.878 20.8396 280.949 20.8752C282.052 21.2308 282.941 21.8354 283.617 22.5822C283.688 22.6889 283.759 22.76 283.866 22.8667C283.937 22.9378 284.008 23.009 284.043 23.0801C284.043 23.0801 284.043 23.1157 284.079 23.1157C284.577 23.8269 284.932 24.6804 285.181 25.6406C285.359 26.3519 285.43 27.1343 285.43 27.9522C285.43 30.1571 284.826 32.0419 283.652 33.3578C282.479 34.6736 280.7 35.4915 278.104 35.4915C277.926 35.4915 277.749 35.4915 277.571 35.456C277.429 35.456 277.286 35.456 277.18 35.456C277.109 35.456 277.073 35.456 277.002 35.4204C275.01 35.207 273.588 34.4602 272.557 33.3222C272.343 33.1088 272.165 32.8599 271.987 32.5754C271.241 31.3662 270.814 29.7659 270.814 27.9522Z" fill="#0076BD"/>
<path d="M327.674 15.4345H326.998H319.174V27.5259C319.174 30.2642 318.321 32.1846 317.076 33.3937C315.831 34.6384 314.16 35.2074 312.453 35.2074C310.817 35.2074 309.465 34.8874 308.541 33.9627C307.616 33.0737 306.976 31.4733 306.976 28.6283V15.3989H298.477V30.6554C298.477 34.7096 300.255 37.4479 302.602 39.0838C304.949 40.7197 307.758 41.3242 309.999 41.3242H310.07C313.911 41.3242 317.076 40.1507 319.494 37.5546C319.53 38.3014 319.601 39.0482 319.636 39.795L319.672 40.3996H327.851V39.7239C327.851 38.1592 327.674 36.1321 327.674 34.105V15.4345Z" fill="#0076BD"/>
<path d="M360.749 18.4928C358.437 16.039 354.952 14.5098 350.436 14.5098C347.093 14.5098 343.608 15.3277 341.26 17.6749C341.225 17.1414 341.189 16.5724 341.118 16.039L341.047 15.4344H332.832L332.868 16.1457C332.974 17.4259 333.045 19.7375 333.045 21.6579V49.5392H341.545V38.1946C344.07 40.6129 347.519 41.3597 350.649 41.3597C353.067 41.3597 356.41 40.7551 359.184 38.7636C361.958 36.7365 364.127 33.2514 364.127 27.7747C364.163 24.254 363.025 20.9466 360.749 18.4928ZM354.917 30.7264C354.134 33.0736 352.356 34.8162 349.973 35.3496C349.511 35.4563 349.013 35.4918 348.48 35.4918C346.95 35.4918 345.599 35.0295 344.497 34.2116C344.283 34.0338 344.07 33.856 343.857 33.6781C343.821 33.6426 343.785 33.607 343.75 33.5715C343.394 33.2158 343.074 32.7891 342.79 32.3623C342.683 32.1845 342.576 32.0067 342.505 31.8289C342.47 31.7577 342.434 31.6866 342.398 31.6155C342.185 31.1176 342.007 30.6197 341.865 30.0863C341.865 30.0152 341.829 29.9796 341.829 29.9085C341.687 29.3039 341.616 28.6638 341.616 28.0237C341.652 23.8272 344.39 20.4843 348.515 20.4843C352.641 20.4843 355.379 23.8272 355.414 28.0237C355.343 28.9483 355.201 29.8729 354.917 30.7264Z" fill="#0076BD"/>
<path d="M168.035 31.1883H168.07C169.991 31.1883 171.698 30.3348 172.907 29.019C173.938 27.8809 174.579 26.3517 174.579 24.6447C174.579 23.08 174.01 21.6219 173.085 20.5194C171.911 19.0614 170.098 18.1723 168.106 18.1367H168.07C166.577 18.1367 165.19 18.6346 164.087 19.4881C162.558 20.6973 161.562 22.5465 161.562 24.6447C161.562 28.2721 164.479 31.1527 168.035 31.1883Z" fill="#0076BD"/>
<path d="M182.011 7.89472L181.086 8.99717C184.607 11.9133 187.168 16.003 188.057 20.8396C188.057 20.9463 188.092 21.0174 188.092 21.1241C188.092 21.1952 188.128 21.2664 188.128 21.3019C188.946 26.2807 187.915 31.1528 185.461 35.207C182.58 39.9724 177.779 43.5287 171.876 44.6667C171.84 44.6667 171.805 44.6667 171.769 44.7023C165.759 45.8047 159.891 44.1688 155.446 40.6481C155.197 40.4347 154.948 40.2214 154.699 40.008C153.916 39.2967 153.17 38.5499 152.458 37.732C151.818 36.9496 151.214 36.1672 150.716 35.2781C149.471 33.251 148.582 30.975 148.084 28.4856C146.982 22.6533 148.475 16.9277 151.747 12.5179C152.103 12.0556 152.458 11.6288 152.814 11.2021C155.695 7.93028 159.642 5.58313 164.23 4.69406C164.23 4.69406 164.23 4.69406 164.265 4.69406L164.194 4.33843L163.483 0.533203H163.447C157.579 1.63565 152.601 4.76519 149.08 9.03273C148.618 9.56618 148.226 10.1352 147.8 10.7042C144.172 15.9319 142.572 22.5466 143.888 29.3036C145.879 39.6879 154.13 47.2984 163.981 48.9698C166.719 49.4321 169.6 49.4321 172.516 48.8987C172.551 48.8987 172.623 48.8987 172.658 48.8631C179.771 47.5117 185.603 43.2086 189.088 37.4475C191.151 34.069 192.395 30.1571 192.609 26.1029C192.716 24.1469 192.609 22.1199 192.218 20.0928C191.115 14.2605 188.021 9.31723 183.789 5.79651L182.011 7.89472Z" fill="#E2001A"/>
<path d="M167.929 5.79688C163.59 5.83244 159.607 7.32608 156.407 9.85104C155.375 10.669 154.415 11.5936 153.562 12.6249C150.823 15.9323 149.152 20.1998 149.223 24.8586C149.223 26.3522 149.436 27.8103 149.756 29.1972C150.574 32.5401 152.281 35.563 154.628 37.9457C158.078 41.4309 162.843 43.6002 168.142 43.5646V41.0397V38.9415C160.319 38.977 153.917 32.6468 153.846 24.7874C153.81 20.1998 155.944 16.0745 159.287 13.4429C161.67 11.5581 164.693 10.42 167.965 10.3845H168C168.036 10.3845 168.036 10.3845 168.071 10.3845C172.481 10.3845 176.393 12.3404 179.025 15.47C181.087 17.9238 182.332 21.0533 182.367 24.5029C182.403 28.1659 181.052 31.5444 178.776 34.0693L179.274 34.5317L182.225 37.1633C184.786 34.2827 186.457 30.6197 186.848 26.6011C186.92 25.9255 186.955 25.2142 186.955 24.5029C186.955 23.9339 186.92 23.4005 186.848 22.867C186.493 18.9551 184.928 15.3988 182.545 12.5538C180.269 9.85104 177.246 7.7884 173.797 6.68595C171.983 6.11694 170.027 5.79688 168.036 5.79688C168 5.79688 167.965 5.79688 167.929 5.79688Z" fill="#0076BD"/>
<path d="M155.303 24.6805C155.303 31.7219 160.993 37.412 167.999 37.4475C168.034 37.4475 168.034 37.4475 168.07 37.4475C171.839 37.4475 175.218 35.8117 177.565 33.2156C179.592 30.9395 180.837 27.9523 180.837 24.6449C180.837 21.5509 179.734 18.7415 177.921 16.501C175.609 13.6916 172.088 11.8778 168.141 11.8423L168.105 16.6433C170.559 16.6433 172.764 17.7813 174.222 19.5594C175.36 20.9464 176.036 22.7245 176.036 24.6449C176.036 26.7076 175.253 28.5568 173.973 29.9793C172.515 31.6152 170.417 32.611 168.07 32.611H168.034C163.66 32.5754 160.104 29.0191 160.104 24.6449C160.104 22.0844 161.313 19.8084 163.198 18.3503L160.246 14.5451C157.259 16.8922 155.303 20.5552 155.303 24.6805Z" fill="#E2001A"/>
<path d="M184.891 10.8111L183.788 11.7357C186.705 15.2565 188.447 19.773 188.447 24.6806C188.447 24.7873 188.447 24.8584 188.447 24.9651C188.447 25.0363 188.447 25.1074 188.447 25.1429C188.34 30.1929 186.385 34.7805 183.219 38.2656C179.485 42.3909 174.115 44.987 168.105 44.987C168.07 44.987 168.034 44.987 167.999 44.987C161.882 44.9515 156.441 42.2131 152.742 37.9456C152.529 37.6966 152.315 37.4477 152.102 37.1987C151.462 36.3808 150.857 35.4562 150.324 34.5315C149.826 33.678 149.435 32.7534 149.043 31.7932C148.19 29.5527 147.728 27.17 147.728 24.6451C147.728 18.7061 150.288 13.3716 154.342 9.63754C154.769 9.24634 155.196 8.89071 155.658 8.53509C159.108 5.86787 163.411 4.26754 168.105 4.26754C168.105 4.26754 168.105 4.26754 168.141 4.26754V3.87636V0H168.105C162.131 0 156.654 2.13378 152.422 5.6545C151.889 6.11682 151.355 6.57914 150.857 7.07702C146.341 11.5224 143.531 17.7459 143.531 24.6095C143.531 35.2072 150.217 44.2046 159.57 47.6898C162.202 48.65 165.011 49.1834 167.963 49.219C167.999 49.219 168.07 49.219 168.105 49.219C175.36 49.219 181.868 46.0895 186.384 41.0751C189.052 38.1234 190.972 34.5315 191.968 30.5841C192.43 28.6637 192.715 26.6721 192.715 24.6095C192.715 18.6705 190.616 13.2294 187.096 8.96184L184.891 10.8111Z" fill="#E2001A"/>
</svg>
