<svg width="143" height="77" viewBox="0 0 143 77" fill="none" xmlns="http://www.w3.org/2000/svg">
<path d="M20.4526 25.7996H27.6071V34.6252H35.2412V25.7996H42.3957V49.9126H35.2412V40.3635H27.606V49.9126H20.4515V25.7996H20.4526ZM67.9261 25.7996V49.9126H61.0131V31.5153H56.4845V38.436C56.4845 41.546 56.243 45.3568 54.3393 47.5024C52.4367 49.89 48.8493 50.6135 44.8015 49.89V43.9109C48.609 44.6344 49.5715 43.1885 49.5715 38.4146V25.7555H67.9261V25.7996ZM73.899 25.7996H81.0535L85.1002 40.1227L89.1469 25.7996H96.3014L99.6484 49.9126H92.9758L91.3135 37.0128L87.4835 49.9115H82.7146L78.9083 37.0128L77.246 49.9115H70.5733L73.8979 25.7985L73.899 25.7996ZM102.273 25.7996H109.428V35.5895L116.341 25.7996H124.216L115.16 37.7351L124.459 49.9126H115.882L109.45 40.1227V49.9126H102.296V25.7996H102.274H102.273ZM71.4921 0C28.5686 0 0.171875 15.5282 0.171875 38.436C0.171875 61.1246 28.5472 76.8721 71.4921 76.8721C114.656 76.8721 142.812 61.1031 142.812 38.436C142.812 15.5282 114.677 0 71.4921 0ZM71.4921 73.3021C31.172 73.3021 4.24106 59.2198 4.24106 38.436C4.24106 17.433 31.1945 3.57003 71.4921 3.57003C112.031 3.57003 138.764 17.4115 138.764 38.436C138.764 59.2198 112.053 73.3021 71.4921 73.3021ZM71.4921 6.92075C33.5789 6.92075 8.2889 19.5798 8.2889 38.436C8.2889 57.2923 33.5789 69.9513 71.4921 69.9513C109.405 69.9513 134.695 57.2923 134.695 38.436C134.718 19.5798 109.428 6.92075 71.4921 6.92075ZM71.4921 69.2504C34.0383 69.2504 9.01109 56.8333 9.01109 38.4575C9.01109 20.0828 34.0596 7.66573 71.4921 7.66573C108.925 7.66573 133.973 20.0828 133.973 38.4575C133.996 56.8333 108.946 69.2516 71.4921 69.2516V69.2504Z" fill="#2C5697"/>
</svg>
