<svg width="159" height="143" viewBox="0 0 159 143" fill="none" xmlns="http://www.w3.org/2000/svg">
<circle cx="56.3" cy="56.3" r="55.3" fill="white"/>
<circle cx="56.2993" cy="56.3001" r="23.1255" stroke="#0B1867" stroke-width="3"/>
<circle cx="56.2996" cy="56.3001" r="27.1473" stroke="#0B1867"/>
<circle cx="56.2993" cy="56.3" r="47.2564" stroke="#0B1867" stroke-width="0.8"/>
<circle cx="56.3" cy="56.3" r="55.3" stroke="#0B1867"/>
<circle cx="93.5036" cy="56.3" r="9.04909" transform="rotate(90 93.5036 56.3)" stroke="#0B1867"/>
<circle cx="82.7967" cy="82.416" r="9.04909" transform="rotate(134.584 82.7967 82.416)" stroke="#0B1867"/>
<circle cx="56.8318" cy="93.4981" r="9.04909" transform="rotate(179.115 56.8318 93.4981)" stroke="#0B1867"/>
<circle cx="30.4648" cy="83.0666" r="9.04909" transform="rotate(-136.041 30.4648 83.0666)" stroke="#0B1867"/>
<circle cx="19.1119" cy="57.3211" r="9.04909" transform="rotate(-91.548 19.1119 57.3211)" stroke="#0B1867"/>
<circle cx="29.208" cy="30.8024" r="9.04909" transform="rotate(-46.6654 29.208 30.8024)" stroke="#0B1867"/>
<circle cx="54.9673" cy="19.1217" r="9.04909" transform="rotate(-1.99018 54.9673 19.1217)" stroke="#0B1867"/>
<circle cx="81.486" cy="28.9181" r="9.04909" transform="rotate(42.7099 81.486 28.9181)" stroke="#0B1867"/>
<rect x="34.2285" y="34.2286" width="124.271" height="98.3143" rx="4.5" fill="white" stroke="#0B1867"/>
<rect x="41.5" y="41.5" width="109.729" height="83.7714" rx="4" stroke="#0B1867" stroke-width="2"/>
<path fill-rule="evenodd" clip-rule="evenodd" d="M83.3198 107.435C84.7835 106.016 86.376 104.472 88.6417 104.204C89.4054 104.137 90.0817 104.685 90.1512 105.423C90.2219 106.164 89.6567 106.82 88.8918 106.888C88.2402 106.91 87.1266 107.592 86.004 108.647C85.5481 109.063 85.0916 109.519 84.6314 109.978C83.9449 110.664 83.2501 111.359 82.5364 111.939C82.3188 112.105 82.099 112.27 81.8691 112.425H86.4369C87.1883 112.425 87.7972 113.014 87.7972 113.743C87.7972 114.469 87.1883 115.059 86.4369 115.059H59.0783C58.328 115.059 57.7191 114.469 57.7191 113.743C57.7191 113.014 58.328 112.425 59.0783 112.425H63.5082C63.0013 112.293 62.5235 112.081 62.1142 111.705C61.9213 111.533 61.7665 111.327 61.6476 111.107C61.3101 111.239 60.9389 111.326 60.5172 111.353C59.7523 111.37 58.8686 111.085 58.3269 110.433C58.1408 110.209 58.0028 109.976 57.903 109.732C55.3292 112.582 52.3808 114.962 49.1016 116.046C48.9558 116.092 48.8067 116.114 48.662 116.114C48.0788 116.114 47.536 115.755 47.3431 115.189C47.0998 114.485 47.4968 113.723 48.2257 113.486C51.4006 112.488 54.7483 109.463 57.5553 105.881C57.8525 105.502 58.1464 105.116 58.4335 104.729C58.7239 103.916 59.0862 103.036 59.5078 102.078C60.6495 99.5195 62.2611 96.4556 64.2069 93.0017C64.873 91.8294 65.2678 91.1873 65.7175 90.7049C65.768 90.6733 65.8086 90.6317 65.854 90.5851C65.9991 90.4362 66.193 90.2373 66.9141 90.1595C67.4917 90.1182 68.1276 90.6441 68.2251 90.9722C68.3604 91.2756 68.3665 91.4566 68.3715 91.6027C68.372 91.6178 68.3725 91.6325 68.3732 91.6469C68.3492 92.225 68.2085 92.6235 67.9908 93.2403C67.9642 93.3155 67.9365 93.394 67.9078 93.4765C67.6386 94.1979 67.2584 95.0932 66.7717 96.121C65.8016 98.1777 64.4132 100.759 62.7018 103.398C62.1489 104.247 61.5635 105.102 60.9501 105.945C60.5968 107.012 60.4219 107.839 60.4331 108.33C60.4319 108.481 60.4476 108.59 60.4622 108.658H60.4903C60.5183 108.65 60.5766 108.625 60.654 108.583C60.8166 108.496 61.0577 108.322 61.3303 108.08C61.5949 107.843 61.8865 107.542 62.1916 107.198C62.444 106.727 62.7393 106.242 63.0584 105.717C63.132 105.596 63.2069 105.473 63.2828 105.347C63.6415 104.779 64.0337 104.18 64.4459 103.549C65.2487 102.321 66.1274 100.977 66.9825 99.5271C67.4177 98.7861 67.6801 98.3635 67.8898 98.0777C67.9195 98.0459 67.9386 98.0194 67.9584 97.9919C68.0097 97.9206 68.0661 97.8423 68.3249 97.6464C68.3438 97.6361 68.3636 97.6237 68.3856 97.61C68.507 97.534 68.6924 97.418 69.1313 97.3987C69.6203 97.3672 70.1933 97.7529 70.3425 98.0777C70.5175 98.3874 70.525 98.5979 70.5304 98.7501L70.5309 98.7644C70.51 99.0958 70.4734 99.1855 70.4416 99.2635C70.4291 99.2942 70.4173 99.323 70.4075 99.3641C70.3649 99.4717 70.3189 99.5771 70.264 99.6988C70.1518 99.9356 70.0049 100.233 69.8221 100.582C69.4565 101.28 68.9462 102.197 68.3451 103.198C67.2685 104.993 65.9205 107.055 64.5579 108.659C64.2955 109.197 64.1463 109.602 64.125 109.795C64.1912 109.817 64.2921 109.843 64.4278 109.866H64.439C64.5579 109.908 65.4158 109.594 66.3265 108.896C67.2562 108.218 68.3115 107.25 69.2995 106.246C70.153 105.382 70.9672 104.477 71.6322 103.707C71.7499 103.557 71.8722 103.404 71.9956 103.245C72.7772 102.248 73.1496 101.793 73.3548 101.571C73.3733 101.555 73.3826 101.544 73.3931 101.532C73.4124 101.51 73.4353 101.483 73.5264 101.412C73.5434 101.397 73.5604 101.385 73.5778 101.372C73.5856 101.366 73.5935 101.361 73.6015 101.355C73.6071 101.351 73.6131 101.347 73.6192 101.342C73.6241 101.339 73.6291 101.335 73.634 101.332C73.6363 101.33 73.6385 101.33 73.6408 101.328C73.6722 101.309 73.7036 101.289 73.7372 101.27C73.7866 101.237 73.855 101.199 73.9795 101.164C73.966 101.17 73.9525 101.175 73.9402 101.181C73.9671 101.171 73.994 101.162 74.021 101.155C74.0127 101.156 74.0049 101.159 73.9972 101.161C73.9912 101.162 73.9853 101.163 73.9795 101.164C74.1152 101.113 74.2497 101.087 74.3686 101.098C74.3843 101.098 74.4011 101.096 74.418 101.096C74.4819 101.092 74.5604 101.1 74.6389 101.114C74.7039 101.123 74.7679 101.138 74.8307 101.157C74.8239 101.155 74.8172 101.152 74.8105 101.152C74.8336 101.158 74.8577 101.166 74.881 101.174C74.8754 101.172 74.8699 101.17 74.8644 101.168C74.8528 101.163 74.8414 101.159 74.8295 101.156C74.9245 101.178 74.9706 101.201 74.9955 101.217C74.9961 101.217 74.9968 101.218 74.9974 101.218C75.0105 101.222 75.0215 101.228 75.0292 101.233C75.0953 101.264 75.1581 101.3 75.2187 101.343C75.2849 101.386 75.3454 101.436 75.4026 101.493C75.4598 101.547 75.5103 101.606 75.5574 101.67C75.646 101.793 75.7144 101.93 75.7559 102.076C75.7929 102.197 75.8108 102.32 75.8108 102.446C75.81 102.447 75.8099 102.449 75.8098 102.456C75.8097 102.467 75.8093 102.493 75.8052 102.553C75.803 102.556 75.7996 102.562 75.7985 102.565C75.7973 102.579 75.7957 102.593 75.7942 102.606C75.7929 102.618 75.7917 102.629 75.7906 102.64C75.7862 102.722 75.7761 102.861 75.6628 103.053C75.6325 103.109 75.6157 103.14 75.6 103.164C75.5764 103.202 75.5583 103.229 75.5403 103.255C75.5352 103.262 75.5301 103.27 75.5249 103.278C75.4789 103.342 75.4295 103.409 75.3667 103.489C75.2434 103.654 75.0729 103.869 74.8598 104.132C74.5626 104.497 74.1847 104.953 73.7451 105.46C72.4699 107.075 71.6187 108.227 71.1668 108.9C71.2711 108.923 71.381 108.948 71.4976 108.973C71.5096 108.97 71.523 108.965 71.5392 108.96C71.5428 108.958 71.5465 108.957 71.5503 108.956C71.6378 108.921 71.7813 108.851 71.9541 108.744C72.2984 108.53 72.7526 108.171 73.2393 107.741C73.7138 107.322 74.2226 106.837 74.7468 106.337C75.304 105.807 75.8786 105.259 76.4478 104.756C77.5626 103.821 78.905 103.084 80.4123 103.034C80.9282 103.034 81.5629 103.154 82.0979 103.618C82.6373 104.079 82.8616 104.786 82.8504 105.395C82.8459 106.063 82.6586 106.718 82.3289 107.489C82.0508 108.111 81.7132 108.74 81.3947 109.311C81.7953 108.94 82.2298 108.507 82.6844 108.054C82.7465 107.992 82.8089 107.929 82.8717 107.867C83.0201 107.725 83.1692 107.581 83.3198 107.435ZM73.2135 101.777C73.2617 101.696 73.32 101.615 73.3862 101.545C73.2886 101.639 73.2146 101.735 73.181 101.823C73.1858 101.816 73.1905 101.809 73.195 101.803C73.2018 101.794 73.2081 101.785 73.2135 101.777ZM68.1679 110.925C67.2416 111.591 66.3747 112.174 65.3698 112.427V112.429H77.9192C77.6501 112.065 77.5446 111.625 77.5604 111.32C77.6081 110.453 77.9197 109.883 78.2669 109.248C78.3437 109.108 78.4223 108.964 78.5002 108.813C78.5744 108.682 78.6501 108.549 78.7263 108.416C79.1071 107.748 79.4988 107.061 79.7652 106.448C79.8773 106.193 79.9514 105.976 79.9973 105.805C79.5084 105.961 78.757 106.332 78.3218 106.751C77.8225 107.19 77.2936 107.694 76.7539 108.208C76.2112 108.726 75.6576 109.254 75.1122 109.736C74.9733 109.849 74.8382 109.961 74.7051 110.072C73.7453 110.873 72.8883 111.588 71.4898 111.678C71.3249 111.678 71.1331 111.663 70.9223 111.613C70.6816 111.533 70.4611 111.495 70.2405 111.458C69.753 111.375 69.2648 111.292 68.556 110.747C68.5324 110.725 68.5089 110.703 68.4853 110.68C68.3947 110.753 68.3032 110.822 68.2123 110.892L68.1679 110.925Z" fill="#0B1867"/>
<path d="M80.2479 100.252C80.9832 100.252 81.5801 99.6058 81.5801 98.8102C81.5801 98.0133 80.9832 97.3675 80.2479 97.3675H75.7646C75.0293 97.3675 74.4324 98.0133 74.4324 98.8102C74.4324 99.6058 75.0304 100.252 75.7646 100.252H80.2479Z" fill="#0B1867"/>
<path d="M58.5566 53.4786H100.314" stroke="#0B1867" stroke-width="2" stroke-linecap="round"/>
<path d="M58.5566 65.3286H134.171" stroke="#0B1867" stroke-width="2" stroke-linecap="round"/>
<path d="M58.5566 76.6143H134.171" stroke="#0B1867" stroke-width="2" stroke-linecap="round"/>
<path d="M126.183 101.879C126.188 101.9 126.196 101.921 126.204 101.941L139.692 135.085C139.876 135.538 139.367 135.959 138.957 135.693L132.932 131.786C132.057 131.219 130.883 131.696 130.653 132.714L129.069 139.717C128.961 140.194 128.302 140.248 128.118 139.795L122.46 125.892C121.918 124.561 119.994 124.681 119.622 126.07L115.948 139.78C115.822 140.252 115.162 140.281 114.995 139.82L112.552 133.069C112.197 132.087 110.974 131.76 110.175 132.432L104.684 137.057C104.31 137.373 103.752 137.018 103.879 136.546L113.868 99.2666C113.939 98.9998 114.213 98.8415 114.48 98.913L120.253 100.46C120.569 100.545 120.904 100.524 121.207 100.4L124.493 99.0631C124.748 98.959 125.04 99.082 125.144 99.3378L126.155 101.821C126.163 101.841 126.172 101.86 126.183 101.879ZM126.186 101.808L126.51 101.676L126.186 101.808ZM126.538 101.665L126.618 101.632L126.538 101.665Z" fill="white" stroke="#0B1867"/>
<circle cx="120.628" cy="111.6" r="16.9286" fill="#0B1867"/>
<path d="M120.174 103.556C120.353 103.168 120.904 103.168 121.082 103.556L123.058 107.84C123.131 107.998 123.281 108.106 123.453 108.127L128.138 108.682C128.562 108.733 128.732 109.256 128.419 109.546L124.955 112.749C124.828 112.867 124.77 113.043 124.804 113.214L125.724 117.841C125.807 118.26 125.361 118.583 124.989 118.375L120.872 116.07C120.721 115.985 120.536 115.985 120.384 116.07L116.267 118.375C115.895 118.583 115.449 118.26 115.533 117.841L116.452 113.214C116.486 113.043 116.429 112.867 116.301 112.749L112.837 109.546C112.524 109.256 112.694 108.733 113.118 108.682L117.803 108.127C117.976 108.106 118.125 107.998 118.198 107.84L120.174 103.556Z" fill="white"/>
<path d="M120.402 100.275C120.491 100.081 120.767 100.081 120.856 100.275L123.787 106.63C123.897 106.867 124.121 107.03 124.38 107.06L131.33 107.884C131.542 107.91 131.627 108.171 131.47 108.316L126.332 113.068C126.141 113.245 126.055 113.509 126.106 113.765L127.47 120.629C127.511 120.838 127.288 121 127.102 120.896L120.995 117.477L120.873 117.696L120.995 117.477C120.768 117.35 120.49 117.35 120.263 117.477L114.156 120.896C113.97 121 113.747 120.838 113.789 120.629L115.153 113.765C115.203 113.509 115.118 113.245 114.926 113.068L109.788 108.316C109.631 108.171 109.716 107.91 109.928 107.884L116.878 107.06C117.137 107.03 117.362 106.867 117.471 106.63L120.402 100.275Z" stroke="white" stroke-width="0.5"/>
</svg>
