<svg width="206" height="141" viewBox="0 0 206 141" fill="none" xmlns="http://www.w3.org/2000/svg">
<circle cx="42.4557" cy="76.284" r="41.5905" fill="white"/>
<circle cx="42.4544" cy="76.284" r="14.9466" stroke="#0B1867" stroke-width="2"/>
<circle cx="42.4542" cy="76.284" r="17.546" stroke="#0B1867" stroke-width="0.5"/>
<circle cx="42.4551" cy="76.284" r="30.543" stroke="#0B1867" stroke-width="0.5"/>
<circle cx="42.4555" cy="76.2841" r="32.4926" stroke="#0B1867" stroke-width="1.5"/>
<circle cx="42.454" cy="76.284" r="38.9911" stroke="#0B1867" stroke-width="1.5"/>
<circle cx="42.4557" cy="76.284" r="41.5905" stroke="#0B1867" stroke-width="0.5"/>
<path d="M42.6017 57.4939C45.8572 57.4939 48.4964 54.8547 48.4964 51.5991C48.4964 48.3435 45.8572 45.7043 42.6017 45.7043C39.3462 45.7043 36.707 48.3435 36.707 51.5991C36.707 54.8547 39.3462 57.4939 42.6017 57.4939Z" stroke="#0B1867" stroke-width="0.5"/>
<path d="M60.0568 64.8476C63.3123 64.8476 65.9514 62.2085 65.9514 58.9529C65.9514 55.6973 63.3123 53.0581 60.0568 53.0581C56.8012 53.0581 54.1621 55.6973 54.1621 58.9529C54.1621 62.2085 56.8012 64.8476 60.0568 64.8476Z" stroke="#0B1867" stroke-width="0.5"/>
<path d="M67.1408 82.3017C70.3963 82.3017 73.0354 79.6626 73.0354 76.407C73.0354 73.1514 70.3963 70.5122 67.1408 70.5122C63.8852 70.5122 61.2461 73.1514 61.2461 76.407C61.2461 79.6626 63.8852 82.3017 67.1408 82.3017Z" stroke="#0B1867" stroke-width="0.5"/>
<path d="M60.0392 99.7282C63.2947 99.7282 65.9339 97.0891 65.9339 93.8335C65.9339 90.5779 63.2947 87.9387 60.0392 87.9387C56.7837 87.9387 54.1445 90.5779 54.1445 93.8335C54.1445 97.0891 56.7837 99.7282 60.0392 99.7282Z" stroke="#0B1867" stroke-width="0.5"/>
<path d="M42.3654 106.827C45.6209 106.827 48.26 104.188 48.26 100.932C48.26 97.6765 45.6209 95.0374 42.3654 95.0374C39.1098 95.0374 36.4707 97.6765 36.4707 100.932C36.4707 104.188 39.1098 106.827 42.3654 106.827Z" stroke="#0B1867" stroke-width="0.5"/>
<path d="M25.1037 99.7309C28.3592 99.7309 30.9983 97.0918 30.9983 93.8362C30.9983 90.5806 28.3592 87.9414 25.1037 87.9414C21.8481 87.9414 19.209 90.5806 19.209 93.8362C19.209 97.0918 21.8481 99.7309 25.1037 99.7309Z" stroke="#0B1867" stroke-width="0.5"/>
<path d="M17.7736 82.187C21.0291 82.187 23.6683 79.5478 23.6683 76.2922C23.6683 73.0366 21.0291 70.3975 17.7736 70.3975C14.518 70.3975 11.8789 73.0366 11.8789 76.2922C11.8789 79.5478 14.518 82.187 17.7736 82.187Z" stroke="#0B1867" stroke-width="0.5"/>
<path d="M25.0509 64.7678C28.3065 64.7678 30.9456 62.1286 30.9456 58.873C30.9456 55.6174 28.3065 52.9783 25.0509 52.9783C21.7954 52.9783 19.1562 55.6174 19.1562 58.873C19.1562 62.1286 21.7954 64.7678 25.0509 64.7678Z" stroke="#0B1867" stroke-width="0.5"/>
<path fill-rule="evenodd" clip-rule="evenodd" d="M31.6543 53.5722C32.82 55.0238 33.517 56.8659 33.517 58.8731C33.517 59.6423 33.4153 60.3866 33.2223 61.0954C34.7696 60.1493 36.4732 59.4346 38.2843 58.9983C36.006 57.6661 34.3983 55.3126 34.0903 52.5642C33.2562 52.8589 32.4442 53.1949 31.6543 53.5722Z" fill="#0B1867"/>
<path fill-rule="evenodd" clip-rule="evenodd" d="M51.0974 52.6777C50.754 55.4173 49.1168 57.7531 46.8164 59.0559C48.604 59.5112 50.2825 60.2392 51.8062 61.1927C51.6117 60.478 51.5086 59.7279 51.5086 58.9527C51.5086 56.9455 52.2012 55.099 53.3595 53.6415C52.6241 53.2849 51.8696 52.9636 51.0974 52.6777Z" fill="#0B1867"/>
<path fill-rule="evenodd" clip-rule="evenodd" d="M25.1145 72.6226C25.5257 70.6154 26.2758 68.7335 27.3044 67.0388C26.5867 67.2363 25.8307 67.3409 25.0512 67.3409C23.0558 67.3409 21.2226 66.6512 19.7754 65.4988C19.3717 66.3535 19.0136 67.2348 18.707 68.1411C21.5188 68.458 23.8988 70.1969 25.1145 72.6226Z" fill="#0B1867"/>
<path fill-rule="evenodd" clip-rule="evenodd" d="M25.1402 79.9043C23.9436 82.3403 21.5754 84.0955 18.7695 84.4359C19.0569 85.2597 19.3855 86.0643 19.7539 86.8469C21.2365 85.7106 23.0903 85.0357 25.1019 85.0357C25.8535 85.0357 26.5814 85.13 27.2755 85.3054C26.2852 83.6607 25.5543 81.8407 25.1402 79.9043Z" fill="#0B1867"/>
<path fill-rule="evenodd" clip-rule="evenodd" d="M33.5949 91.5125C33.7967 92.2522 33.9058 93.0318 33.9058 93.8365C33.9058 95.7921 33.2677 97.6003 32.1875 99.0607C32.721 99.3009 33.2648 99.522 33.8174 99.7239C34.2005 96.9813 35.8746 94.6514 38.203 93.3678C36.5658 92.9655 35.0184 92.3348 33.5949 91.5125Z" fill="#0B1867"/>
<path fill-rule="evenodd" clip-rule="evenodd" d="M46.5703 93.3928C48.8913 94.6897 50.5507 97.027 50.9191 99.7739C51.5911 99.5322 52.2498 99.2625 52.8938 98.9663C51.8549 97.5221 51.2433 95.7493 51.2433 93.8335C51.2433 92.9596 51.3701 92.1137 51.6088 91.3164C50.0673 92.2537 48.3726 92.961 46.5703 93.3928Z" fill="#0B1867"/>
<path fill-rule="evenodd" clip-rule="evenodd" d="M57.541 85.395C58.3338 85.1607 59.1724 85.0355 60.0404 85.0355C61.962 85.0355 63.7407 85.6515 65.1879 86.6978C65.4767 86.0715 65.7405 85.4334 65.9792 84.7805C63.2161 84.4003 60.8789 82.6864 59.6395 80.3079C59.2063 82.1293 58.4901 83.8418 57.541 85.395Z" fill="#0B1867"/>
<path fill-rule="evenodd" clip-rule="evenodd" d="M59.7097 72.3781C60.9873 70.0261 63.3496 68.3475 66.1245 68.0145C65.8593 67.2467 65.5586 66.4966 65.2226 65.7656C63.7888 66.8547 61.9997 67.5002 60.0589 67.5002C59.2189 67.5002 58.4069 67.3793 57.6406 67.1538C58.5911 68.7498 59.2985 70.5094 59.7097 72.3781Z" fill="#0B1867"/>
<circle cx="169.859" cy="91.025" r="35.2729" fill="white"/>
<circle cx="169.859" cy="91.0249" r="17.834" stroke="#0B1867" stroke-width="2"/>
<circle cx="169.859" cy="91.025" r="34.9249" stroke="#0B1867"/>
<circle cx="169.859" cy="91.025" r="30.4664" stroke="#0B1867" stroke-width="0.5"/>
<circle cx="169.858" cy="91.025" r="21.5849" stroke="#0B1867"/>
<circle cx="108.264" cy="58.9108" r="57.9108" fill="white"/>
<circle cx="108.264" cy="58.9108" r="24.2172" stroke="#0B1867" stroke-width="3"/>
<circle cx="108.265" cy="58.9108" r="28.4289" stroke="#0B1867"/>
<circle cx="108.265" cy="58.9108" r="49.4874" stroke="#0B1867"/>
<circle cx="108.264" cy="58.9108" r="57.9108" stroke="#0B1867" stroke-width="2"/>
<circle cx="147.223" cy="58.9108" r="9.47631" transform="rotate(90 147.223 58.9108)" stroke="#0B1867"/>
<circle cx="136.009" cy="86.2598" r="9.47631" transform="rotate(134.584 136.009 86.2598)" stroke="#0B1867"/>
<circle cx="108.82" cy="97.865" r="9.47631" transform="rotate(179.115 108.82 97.865)" stroke="#0B1867"/>
<circle cx="81.2097" cy="86.941" r="9.47631" transform="rotate(-136.041 81.2097 86.941)" stroke="#0B1867"/>
<circle cx="69.3204" cy="59.9801" r="9.47631" transform="rotate(-91.548 69.3204 59.9801)" stroke="#0B1867"/>
<circle cx="79.8959" cy="32.2094" r="9.47631" transform="rotate(-46.6654 79.8959 32.2094)" stroke="#0B1867"/>
<circle cx="106.868" cy="19.9772" r="9.47631" transform="rotate(-1.99018 106.868 19.9772)" stroke="#0B1867"/>
<circle cx="134.637" cy="30.2361" r="9.47631" transform="rotate(42.7099 134.637 30.2361)" stroke="#0B1867"/>
<path d="M134.123 109.981L134.126 109.979L133.811 109.469L134.126 109.979L134.126 109.979L134.126 109.979L134.128 109.978L134.134 109.974L134.16 109.958L134.256 109.899L134.609 109.681C134.905 109.497 135.313 109.244 135.757 108.967C136.643 108.414 137.681 107.761 138.269 107.373C141.202 105.445 143.277 104.088 147.866 102.746C149.891 102.158 152.081 102.49 153.311 103.459C154.091 104.082 154.47 104.918 154.424 106.038C154.389 106.724 154.087 107.551 153.516 108.443C152.951 109.325 152.144 110.238 151.148 111.091C135.467 122.825 122.84 131.496 114.634 136.177L114.634 136.177C112.721 137.271 108.863 139.444 104.174 139.012L104.172 139.012C102.118 138.831 100.813 138.236 98.2762 137.057L98.2715 137.055L97.3711 136.646L97.3698 136.645L97.1053 136.524C87.6242 132.19 82.7096 129.944 77.322 129.39L77.3213 129.39C72.5402 128.905 68.7438 130.8 65.0873 132.869L65.0859 132.87C64.0172 133.478 62.9334 134.047 61.8422 134.606L61.8422 134.606L61.8351 134.61C59.1875 136.012 56.4188 137.498 53.8654 139.485C50.6295 136.619 47.7882 133.368 45.4367 129.755L45.4363 129.755C42.7813 125.687 40.7848 121.264 39.4724 116.583L61.1275 104.389L61.1279 104.389C62.3545 103.697 63.5074 102.867 64.5715 101.957L64.5715 101.957L64.577 101.952C67.9578 98.9871 71.4834 97.0812 75.3578 96.1097L75.3587 96.1095C85.4707 93.5582 94.11 97.6964 98.3718 100.407L98.373 100.407C99.803 101.312 101.417 101.799 103.055 101.799H105.584H125.254C128.407 101.799 130.818 104.139 130.818 107.09C130.818 110.062 128.305 112.519 125.171 112.519H125.171L102.884 112.546C101.438 112.324 100.026 113.016 99.3638 114.308L99.3637 114.308C98.9888 115.04 98.967 115.795 99.0583 116.395C99.1487 116.99 99.3563 117.48 99.5039 117.73L99.5075 117.736L99.5113 117.742C99.7204 118.077 100.074 118.35 100.446 118.574C100.832 118.806 101.304 119.026 101.821 119.231C102.858 119.643 104.136 120.022 105.409 120.348C107.945 120.999 110.534 121.459 111.278 121.547C111.506 121.577 111.735 121.593 111.967 121.593C112.836 121.593 113.651 121.381 114.732 120.925C115.799 120.476 117.174 119.767 119.159 118.743L119.171 118.738C119.562 118.537 119.975 118.323 120.417 118.095C121.244 117.667 122.168 117.189 123.223 116.657C123.365 116.595 123.497 116.497 123.563 116.447C123.607 116.413 123.645 116.382 123.672 116.359C123.674 116.358 123.676 116.356 123.678 116.355L134.123 109.981Z" fill="white" stroke="#0B1867" stroke-width="1.2"/>
</svg>
