<svg width="161" height="133" viewBox="0 0 161 133" fill="none" xmlns="http://www.w3.org/2000/svg">
<g opacity="0.6">
<circle cx="51.0882" cy="51.0882" r="50.0882" fill="white"/>
<circle cx="51.0886" cy="51.0882" r="20.946" stroke="#0B1867" stroke-width="2"/>
<circle cx="51.0888" cy="51.0882" r="24.5888" stroke="#0B1867"/>
<circle cx="51.0898" cy="51.0882" r="42.8027" stroke="#0B1867"/>
<circle cx="51.0882" cy="51.0882" r="50.0882" stroke="#0B1867" stroke-width="2"/>
<circle cx="84.7823" cy="51.0882" r="8.19626" transform="rotate(90 84.7823 51.0882)" stroke="#0B1867"/>
<circle cx="75.0829" cy="74.7429" r="8.19626" transform="rotate(134.584 75.0829 74.7429)" stroke="#0B1867"/>
<circle cx="51.5688" cy="84.7804" r="8.19626" transform="rotate(179.115 51.5688 84.7804)" stroke="#0B1867"/>
<circle cx="27.6859" cy="75.332" r="8.19626" transform="rotate(-136.041 27.6859 75.332)" stroke="#0B1867"/>
<circle cx="17.4035" cy="52.0131" r="8.19626" transform="rotate(-91.548 17.4035 52.0131)" stroke="#0B1867"/>
<circle cx="26.5512" cy="27.9936" r="8.19626" transform="rotate(-46.6654 26.5512 27.9936)" stroke="#0B1867"/>
<circle cx="49.8802" cy="17.4137" r="8.19626" transform="rotate(-1.99018 49.8802 17.4137)" stroke="#0B1867"/>
<circle cx="73.8968" cy="26.2869" r="8.19626" transform="rotate(42.7099 73.8968 26.2869)" stroke="#0B1867"/>
</g>
<rect x="38.9277" y="35.626" width="121.193" height="95.8739" rx="4.5" fill="white" stroke="#0B1867"/>
<rect opacity="0.6" x="54.3398" y="60.9454" width="17.7143" height="17.7143" stroke="#0B1867"/>
<path d="M74.3318 69.2787L74.3236 69.262L74.3141 69.2461L71.7436 64.9184L71.7436 64.9184L71.7388 64.9105C71.4596 64.4598 70.9489 64.1752 70.3874 64.1752H67.4832V63.9373C67.4832 63.0751 66.7002 62.5 65.8947 62.5H53.0884C52.2829 62.5 51.5 63.0751 51.5 63.9373V73.6695C51.5 74.5317 52.2829 75.1068 53.0884 75.1068H53.7624C54.1393 76.5106 55.5493 77.5 57.1642 77.5C58.77 77.5 60.2073 76.5172 60.5716 75.1068H65.3413C65.7182 76.5106 67.1283 77.5 68.7432 77.5C70.349 77.5 71.7863 76.5172 72.1505 75.1068H72.9579C73.7402 75.1068 74.5 74.5516 74.5 73.7094V69.9202C74.5 69.6719 74.4183 69.4523 74.3318 69.2787ZM67.4832 66.99H69.4321L70.4788 68.7422H67.4832V66.99ZM57.1642 75.1439C56.5802 75.1439 56.2284 74.7418 56.2284 74.4074C56.2284 74.073 56.5802 73.6709 57.1642 73.6709C57.7482 73.6709 58.1 74.073 58.1 74.4074C58.1 74.7418 57.7482 75.1439 57.1642 75.1439ZM68.7663 75.1439C68.1823 75.1439 67.8305 74.7418 67.8305 74.4074C67.8305 74.073 68.1823 73.6709 68.7663 73.6709C69.3503 73.6709 69.7021 74.073 69.7021 74.4074C69.7021 74.7418 69.3503 75.1439 68.7663 75.1439Z" fill="#0B1867" stroke="white"/>
<rect x="54.3398" y="82.9622" width="17.7143" height="17.7143" stroke="#0B1867"/>
<rect x="54.3398" y="104.979" width="17.7143" height="17.7143" stroke="#0B1867"/>
<rect x="78.5586" y="60.9454" width="17.7143" height="17.7143" stroke="#0B1867"/>
<rect x="78.5586" y="82.9622" width="17.7143" height="17.7143" stroke="#0B1867"/>
<rect x="78.5586" y="104.979" width="17.7143" height="17.7143" stroke="#0B1867"/>
<rect x="102.777" y="60.9454" width="17.7143" height="17.7143" stroke="#0B1867"/>
<rect x="102.777" y="82.9622" width="17.7143" height="17.7143" stroke="#0B1867"/>
<rect x="102.777" y="104.979" width="17.7143" height="17.7143" stroke="#0B1867"/>
<rect x="126.994" y="60.9454" width="17.7143" height="17.7143" stroke="#0B1867"/>
<rect x="126.994" y="82.9622" width="17.7143" height="17.7143" stroke="#0B1867"/>
<rect opacity="0.6" x="126.994" y="104.979" width="17.7143" height="17.7143" stroke="#0B1867"/>
<path d="M142.742 117.774C142.742 118.675 142.508 119.525 142.04 120.322C141.589 121.102 140.913 121.752 140.012 122.272C139.128 122.775 138.079 123.069 136.866 123.156V125.262H135.202V123.13C133.469 122.974 132.073 122.454 131.016 121.57C129.959 120.669 129.413 119.455 129.378 117.93H133.278C133.382 119.178 134.023 119.932 135.202 120.192V115.226C133.954 114.914 132.949 114.602 132.186 114.29C131.423 113.978 130.765 113.475 130.21 112.782C129.655 112.089 129.378 111.144 129.378 109.948C129.378 108.44 129.915 107.209 130.99 106.256C132.082 105.303 133.486 104.757 135.202 104.618V102.512H136.866V104.618C138.53 104.757 139.856 105.259 140.844 106.126C141.849 106.993 142.413 108.189 142.534 109.714H138.608C138.556 109.211 138.374 108.778 138.062 108.414C137.767 108.033 137.369 107.764 136.866 107.608V112.522C138.166 112.851 139.189 113.172 139.934 113.484C140.697 113.779 141.355 114.273 141.91 114.966C142.465 115.642 142.742 116.578 142.742 117.774ZM133.174 109.766C133.174 110.338 133.347 110.806 133.694 111.17C134.041 111.517 134.543 111.803 135.202 112.028V107.53C134.578 107.617 134.084 107.851 133.72 108.232C133.356 108.613 133.174 109.125 133.174 109.766ZM136.866 120.244C137.525 120.123 138.036 119.854 138.4 119.438C138.781 119.022 138.972 118.519 138.972 117.93C138.972 117.358 138.79 116.899 138.426 116.552C138.062 116.205 137.542 115.919 136.866 115.694V120.244Z" fill="#0B1867"/>
<path d="M142.04 120.322L141.178 119.816L141.174 119.822L142.04 120.322ZM140.012 122.272L140.506 123.141L140.512 123.138L140.012 122.272ZM136.866 123.156L136.795 122.159L135.866 122.225V123.156H136.866ZM136.866 125.262V126.262H137.866V125.262H136.866ZM135.202 125.262H134.202V126.262H135.202V125.262ZM135.202 123.13H136.202V122.216L135.292 122.134L135.202 123.13ZM131.016 121.57L130.367 122.331L130.375 122.337L131.016 121.57ZM129.378 117.93V116.93H128.355L128.378 117.953L129.378 117.93ZM133.278 117.93L134.275 117.847L134.198 116.93H133.278V117.93ZM135.202 120.192L134.987 121.169L136.202 121.437V120.192H135.202ZM135.202 115.226H136.202V114.445L135.445 114.256L135.202 115.226ZM132.186 114.29L132.565 113.364L132.186 114.29ZM130.21 112.782L129.429 113.407H129.429L130.21 112.782ZM130.99 106.256L130.332 105.503L130.326 105.508L130.99 106.256ZM135.202 104.618L135.283 105.615L136.202 105.54V104.618H135.202ZM135.202 102.512V101.512H134.202V102.512H135.202ZM136.866 102.512H137.866V101.512H136.866V102.512ZM136.866 104.618H135.866V105.538L136.783 105.615L136.866 104.618ZM140.844 106.126L140.185 106.878L140.191 106.883L140.844 106.126ZM142.534 109.714V110.714H143.617L143.531 109.635L142.534 109.714ZM138.608 109.714L137.613 109.817L137.706 110.714H138.608V109.714ZM138.062 108.414L137.271 109.025L137.286 109.046L137.303 109.065L138.062 108.414ZM136.866 107.608L137.162 106.653L135.866 106.251V107.608H136.866ZM136.866 112.522H135.866V113.3L136.62 113.491L136.866 112.522ZM139.934 113.484L139.548 114.406L139.561 114.412L139.574 114.417L139.934 113.484ZM141.91 114.966L141.129 115.591L141.137 115.6L141.91 114.966ZM133.694 111.17L132.97 111.86L132.978 111.868L132.987 111.877L133.694 111.17ZM135.202 112.028L134.878 112.974L136.202 113.427V112.028H135.202ZM135.202 107.53H136.202V106.382L135.064 106.54L135.202 107.53ZM136.866 120.244H135.866V121.445L137.047 121.227L136.866 120.244ZM138.4 119.438L137.663 118.762L137.655 118.771L137.647 118.779L138.4 119.438ZM138.426 116.552L137.736 117.276L138.426 116.552ZM136.866 115.694L137.182 114.745L135.866 114.307V115.694H136.866ZM141.742 117.774C141.742 118.493 141.558 119.168 141.178 119.816L142.902 120.828C143.458 119.882 143.742 118.858 143.742 117.774H141.742ZM141.174 119.822C140.824 120.428 140.285 120.96 139.512 121.406L140.512 123.138C141.541 122.544 142.355 121.776 142.906 120.822L141.174 119.822ZM139.518 121.403C138.786 121.819 137.888 122.08 136.795 122.159L136.937 124.153C138.271 124.058 139.47 123.731 140.506 123.141L139.518 121.403ZM135.866 123.156V125.262H137.866V123.156H135.866ZM136.866 124.262H135.202V126.262H136.866V124.262ZM136.202 125.262V123.13H134.202V125.262H136.202ZM135.292 122.134C133.708 121.991 132.522 121.525 131.657 120.803L130.375 122.337C131.625 123.383 133.23 123.957 135.112 124.126L135.292 122.134ZM131.665 120.809C130.847 120.112 130.407 119.179 130.378 117.907L128.378 117.953C128.419 119.732 129.07 121.225 130.367 122.331L131.665 120.809ZM129.378 118.93H133.278V116.93H129.378V118.93ZM132.281 118.013C132.346 118.79 132.587 119.506 133.075 120.079C133.566 120.656 134.232 121.002 134.987 121.169L135.417 119.215C134.993 119.122 134.749 118.961 134.599 118.784C134.446 118.603 134.314 118.318 134.275 117.847L132.281 118.013ZM136.202 120.192V115.226H134.202V120.192H136.202ZM135.445 114.256C134.22 113.95 133.266 113.651 132.565 113.364L131.807 115.216C132.632 115.553 133.688 115.878 134.959 116.196L135.445 114.256ZM132.565 113.364C131.972 113.122 131.448 112.728 130.991 112.157L129.429 113.407C130.082 114.222 130.875 114.834 131.807 115.216L132.565 113.364ZM130.991 112.157C130.62 111.694 130.378 110.996 130.378 109.948H128.378C128.378 111.292 128.69 112.483 129.429 113.407L130.991 112.157ZM130.378 109.948C130.378 108.71 130.805 107.757 131.654 107.004L130.326 105.508C129.026 106.661 128.378 108.17 128.378 109.948H130.378ZM131.648 107.009C132.55 106.222 133.739 105.74 135.283 105.615L135.121 103.621C133.233 103.774 131.614 104.384 130.332 105.503L131.648 107.009ZM136.202 104.618V102.512H134.202V104.618H136.202ZM135.202 103.512H136.866V101.512H135.202V103.512ZM135.866 102.512V104.618H137.866V102.512H135.866ZM136.783 105.615C138.292 105.74 139.396 106.186 140.185 106.878L141.503 105.374C140.316 104.332 138.768 103.773 136.949 103.621L136.783 105.615ZM140.191 106.883C140.966 107.552 141.433 108.487 141.537 109.793L143.531 109.635C143.392 107.89 142.732 106.434 141.497 105.369L140.191 106.883ZM142.534 108.714H138.608V110.714H142.534V108.714ZM139.603 109.611C139.531 108.918 139.273 108.29 138.821 107.763L137.303 109.065C137.475 109.266 137.581 109.505 137.613 109.817L139.603 109.611ZM138.853 107.803C138.421 107.243 137.842 106.864 137.162 106.653L136.57 108.563C136.895 108.664 137.113 108.822 137.271 109.025L138.853 107.803ZM135.866 107.608V112.522H137.866V107.608H135.866ZM136.62 113.491C137.899 113.815 138.868 114.122 139.548 114.406L140.32 112.562C139.509 112.222 138.433 111.887 137.112 111.553L136.62 113.491ZM139.574 114.417C140.157 114.642 140.675 115.023 141.129 115.591L142.691 114.341C142.036 113.522 141.236 112.915 140.294 112.551L139.574 114.417ZM141.137 115.6C141.499 116.041 141.742 116.725 141.742 117.774H143.742C143.742 116.431 143.43 115.243 142.683 114.332L141.137 115.6ZM132.174 109.766C132.174 110.557 132.421 111.284 132.97 111.86L134.418 110.48C134.273 110.328 134.174 110.119 134.174 109.766H132.174ZM132.987 111.877C133.477 112.367 134.132 112.719 134.878 112.974L135.526 111.082C134.955 110.887 134.604 110.666 134.401 110.463L132.987 111.877ZM136.202 112.028V107.53H134.202V112.028H136.202ZM135.064 106.54C134.262 106.651 133.545 106.967 132.997 107.542L134.443 108.922C134.623 108.735 134.894 108.582 135.34 108.52L135.064 106.54ZM132.997 107.542C132.418 108.148 132.174 108.926 132.174 109.766H134.174C134.174 109.323 134.294 109.079 134.443 108.922L132.997 107.542ZM137.047 121.227C137.879 121.074 138.611 120.716 139.153 120.097L137.647 118.779C137.461 118.992 137.17 119.171 136.685 119.261L137.047 121.227ZM139.137 120.114C139.696 119.505 139.972 118.757 139.972 117.93H137.972C137.972 118.281 137.867 118.539 137.663 118.762L139.137 120.114ZM139.972 117.93C139.972 117.126 139.706 116.39 139.116 115.828L137.736 117.276C137.874 117.407 137.972 117.59 137.972 117.93H139.972ZM139.116 115.828C138.61 115.347 137.943 114.999 137.182 114.745L136.55 116.643C137.141 116.84 137.514 117.064 137.736 117.276L139.116 115.828ZM135.866 115.694V120.244H137.866V115.694H135.866Z" fill="white"/>
<path fill-rule="evenodd" clip-rule="evenodd" d="M38.4277 40.6302C38.4277 37.5904 40.892 35.126 43.9319 35.126H155.117C158.157 35.126 160.621 37.5904 160.621 40.6302V53.8403H38.4277V40.6302ZM89.0664 44.4832C89.0664 47.8271 86.3556 50.5378 83.0118 50.5378C79.6679 50.5378 76.9571 47.8271 76.9571 44.4832C76.9571 41.1393 79.6679 38.4286 83.0118 38.4286C86.3556 38.4286 89.0664 41.1393 89.0664 44.4832ZM116.037 50.5378C119.381 50.5378 122.092 47.8271 122.092 44.4832C122.092 41.1393 119.381 38.4286 116.037 38.4286C112.693 38.4286 109.982 41.1393 109.982 44.4832C109.982 47.8271 112.693 50.5378 116.037 50.5378Z" fill="#0B1867"/>
<rect x="80.2598" y="27.4202" width="5.5042" height="19.8151" rx="2.7521" fill="#0B1867"/>
<rect x="113.285" y="27.4202" width="5.5042" height="19.8151" rx="2.7521" fill="#0B1867"/>
</svg>
