<svg width="108" height="108" viewBox="0 0 108 108" fill="none" xmlns="http://www.w3.org/2000/svg">
<circle cx="54" cy="54" r="53.5" stroke="#669BCD"/>
<path d="M101 20.5C102.105 20.5 103 21.3954 103 22.5V75.5C98 86.9 89.1 96.3 78 101.8V22.5C78 21.3954 78.8954 20.5 80 20.5H101Z" fill="#0B1867"/>
<path d="M29 33C30.1046 33 31 33.8954 31 35V102.3C20.2 97.1 11.3 88.4 6 77.6V35C6 33.8954 6.89543 33 8 33H29Z" fill="#0B1867"/>
<path d="M64 12C65.1046 12 66 12.8954 66 14V106.2C62.1 107.1 58.1 107.5 54 107.5C49.5 107.5 45.2 107 41 105.9V14C41 12.8954 41.8954 12 43 12H64Z" fill="#0B1867"/>
<path d="M49.4119 69.9544L48.9838 69.5798L48.443 69.7564L44.7881 70.9499C44.7451 70.9585 44.7046 70.9668 44.6665 70.9746C44.3596 71.0371 44.1976 71.0701 43.9825 71.0701C43.0684 71.0701 42.2747 70.5963 41.8414 69.7927L40.106 66.3219L39.861 65.832L39.3163 65.7746L37.8774 65.6232L37.1693 65.5486L36.8672 66.1934L29.5264 81.8588C28.5325 83.8699 30.3267 85.9059 32.3426 85.5502L32.3426 85.5502L32.3514 85.5486L37.6524 84.5641L37.6696 84.5609L37.6867 84.5571C37.9096 84.5076 38.1585 84.5811 38.3349 84.8951L40.904 89.6554C40.9044 89.6562 40.9048 89.6569 40.9052 89.6577C41.4166 90.6144 42.3941 91.0276 43.2864 90.9984C44.1736 90.9693 45.1186 90.498 45.5694 89.5337C45.5697 89.5331 45.57 89.5325 45.5702 89.532L52.9144 73.935L53.2139 73.299L52.7168 72.8019C52.5946 72.6797 52.4684 72.6041 52.3961 72.5657L49.4119 69.9544ZM52.335 72.5345C52.3352 72.5345 52.3378 72.5358 52.3424 72.5384C52.3372 72.5357 52.3348 72.5344 52.335 72.5345Z" fill="white" stroke="#0B1867" stroke-width="2"/>
<path d="M71.0123 66.1864L70.7094 65.5528L70.0105 65.6226L68.496 65.7741L67.9475 65.8289L67.701 66.3219L65.9656 69.7927C65.5323 70.5963 64.7386 71.0701 63.8246 71.0701C63.6094 71.0701 63.4474 71.0371 63.1406 70.9746C63.1024 70.9668 63.062 70.9585 63.019 70.9499L59.3641 69.7564L58.8337 69.5832L58.4077 69.9436L55.5549 72.3575H54.2969L54.9683 73.7835L62.3087 89.3724C63.1959 91.3717 65.9089 91.4065 66.968 89.5236L66.9706 89.519L69.6061 84.7751C69.7676 84.5309 70.0478 84.3973 70.3487 84.4205L75.6071 85.3971L75.6071 85.3971L75.6159 85.3987C77.6331 85.7547 79.4283 83.7158 78.4302 81.7035L71.0123 66.1864Z" fill="white" stroke="#0B1867" stroke-width="2"/>
<path d="M58.0533 46.4741V46.5327L58.0601 46.5909L58.5801 51.0104L54.5636 49.1318C54.1392 48.9248 53.6682 48.9248 53.2438 49.1318L49.2274 51.0104L49.7473 46.5909L49.7542 46.5327V46.4741C49.7542 46.4685 49.7542 46.4625 49.7542 46.456C49.7548 46.2738 49.7566 45.7697 49.3232 45.3261L46.2781 42.0867L50.5523 41.2574C50.89 41.2215 51.1422 41.0545 51.2887 40.9289C51.4582 40.7837 51.5906 40.607 51.6823 40.4302L53.7901 36.5978L55.8988 40.4317C56.1351 40.8826 56.5639 41.0875 56.6903 41.1479C56.6995 41.1523 56.7071 41.1559 56.7128 41.1588L56.8352 41.22L56.9696 41.246L61.4943 42.124L58.4843 45.3261C58.0509 45.7697 58.0526 46.2738 58.0532 46.456C58.0533 46.4625 58.0533 46.4685 58.0533 46.4741ZM53.9037 28.2837C44.873 28.2837 37.4551 35.6195 37.4551 44.7323C37.4551 53.8452 44.873 61.181 53.9037 61.181C62.9376 61.181 70.3524 53.7662 70.3524 44.7323C70.3524 35.6984 62.9376 28.2837 53.9037 28.2837Z" fill="white" stroke="#0B1867" stroke-width="2"/>
<path d="M81.1482 43.5277L78.0471 39.9098L79.5342 35.3741C79.7102 34.9027 79.6453 34.4321 79.4944 34.0735C79.344 33.7163 79.0641 33.3634 78.6642 33.1621C78.6629 33.1614 78.6616 33.1607 78.6602 33.1601L74.432 31.0088L74.0627 26.2818C74.0479 25.7886 73.8074 25.3759 73.5339 25.1024C73.2603 24.8288 72.8473 24.5882 72.3538 24.5736L67.5517 24.2042L65.4138 20.0021C65.0114 19.0772 63.9675 18.8105 63.1865 19.1022L58.654 20.5882C58.6538 20.5882 58.6536 20.5882 58.6534 20.5881C58.6517 20.5878 58.6499 20.5874 58.6479 20.5868L55.0329 17.4882C54.3479 16.8359 53.3029 16.8373 52.6194 17.4924L49.0805 20.5889L44.546 19.1022C44.0746 18.9261 43.6039 18.991 43.2453 19.142C42.8882 19.2924 42.5353 19.5722 42.334 19.9721L40.1807 24.2043L35.4537 24.5736C34.9605 24.5885 34.5477 24.829 34.2743 25.1024C34.0008 25.3759 33.7603 25.7886 33.7455 26.2818L33.3762 31.0088L29.174 33.1468C28.249 33.5492 27.9824 34.5931 28.274 35.3741L29.7601 39.9066C29.7601 39.9068 29.76 39.907 29.76 39.9072C29.7597 39.9089 29.7592 39.9107 29.7587 39.9127L26.6601 43.5277C26.0091 44.2112 26.0091 45.2532 26.6601 45.9368L29.7612 49.5547L28.2741 54.0903C28.098 54.5617 28.1629 55.0324 28.3138 55.391C28.4642 55.7481 28.744 56.101 29.1439 56.3023C29.1453 56.303 29.1466 56.3037 29.148 56.3044L33.3762 58.4556L33.7455 63.1826C33.7603 63.6758 34.0008 64.0886 34.2743 64.362C34.5477 64.6355 34.9605 64.876 35.4537 64.8909L40.1807 65.2602L42.3187 69.4623C42.721 70.3873 43.765 70.6539 44.5459 70.3623L49.0785 68.8762C49.0787 68.8762 49.0789 68.8763 49.0791 68.8763C49.0807 68.8767 49.0826 68.8771 49.0845 68.8777L52.6995 71.9762C53.3831 72.6272 54.4251 72.6272 55.1087 71.9762L58.7266 68.8752L63.2622 70.3623C63.7336 70.5383 64.2043 70.4735 64.5629 70.3225C64.9202 70.1721 65.2731 69.8921 65.4744 69.492C65.4751 69.4908 65.4757 69.4896 65.4763 69.4883L67.6275 65.2602L72.3545 64.8909C72.8477 64.876 73.2605 64.6355 73.5339 64.362C73.8074 64.0886 74.0479 63.6758 74.0627 63.1826L74.432 58.4556L78.6342 56.3177C79.5592 55.9153 79.8258 54.8713 79.5342 54.0904L78.0481 49.5579C78.0481 49.5577 78.0482 49.5575 78.0482 49.5573C78.0485 49.5556 78.049 49.5538 78.0495 49.5518L81.1482 45.9367C81.7991 45.2532 81.7991 44.2113 81.1482 43.5277ZM53.9041 61.7557C44.5359 61.7557 36.8807 54.1004 36.8807 44.7322C36.8807 35.3641 44.5359 27.7088 53.9041 27.7088C63.2723 27.7088 70.9275 35.3641 70.9275 44.7322C70.9275 54.1004 63.2723 61.7557 53.9041 61.7557Z" fill="white" stroke="#0B1867" stroke-width="2"/>
</svg>
