<svg width="120" height="112" viewBox="0 0 120 112" fill="none" xmlns="http://www.w3.org/2000/svg">
<circle cx="59.9746" cy="58" r="53.5" stroke="#669BCD"/>
<path d="M11.8242 29.2595L59.9255 1L108.027 29.2595V31.6646V37.5L96.0014 40.0823V34.0696L59.9255 14.8291L23.8495 34.0696V40.0823L11.8242 37V29.2595Z" fill="#0B1867"/>
<path d="M108.027 37.5V29.2595L59.9255 1L11.8242 29.2595V37L23.8495 40.0823V34.0696L59.9255 14.8291L96.0014 34.0696V40.0823L108.027 37.5ZM108.027 37.5V31.6646" stroke="#0B1867"/>
<rect x="58.7227" y="70.1458" width="21.6456" height="21.6456" fill="#0B1867"/>
<rect x="31.4688" y="70.1458" width="26.4557" height="21.6456" fill="#0B1867"/>
<rect x="38.6836" y="57.3228" width="19.2405" height="12.0253" fill="#0B1867"/>
<rect x="58.7227" y="47.7024" width="21.6456" height="21.6456" fill="#0B1867"/>
<path d="M64.7344 48.7024H74.3546V60.7277L69.5445 56.5188L64.7344 60.7277V48.7024Z" fill="white"/>
<path d="M64.7344 71.1458H74.3546V83.1711L69.5445 78.9622L64.7344 83.1711V71.1458Z" fill="white"/>
<path d="M40.6836 71.1458H52.7089V83.1711L46.6963 78.9622L40.6836 83.1711V71.1458Z" fill="white"/>
<path d="M46.6973 58.3228H53.9125V65.5379L50.3049 63.0126L46.6973 65.5379V58.3228Z" fill="white"/>
<path d="M119.449 34.6707L96 40.082V91.1896L119.449 95.9998V34.6707Z" fill="white" stroke="#0B1867"/>
<path d="M0.999847 34.6707L24.4492 40.082V91.1896L0.999847 95.9998V34.6707Z" fill="white"/>
<path d="M24.4492 40.082L0.999847 34.6707V95.9998L24.4492 91.1896V40.082ZM24.4492 40.082H95.9746" stroke="#0B1867"/>
</svg>
