<svg width="128" height="108" viewBox="0 0 128 108" fill="none" xmlns="http://www.w3.org/2000/svg">
<circle cx="65" cy="54" r="53.5" stroke="#669BCD"/>
<circle cx="64.5912" cy="53.5907" r="42.4095" fill="white"/>
<circle cx="64.5886" cy="53.591" r="15.2409" stroke="#0B1867" stroke-width="2"/>
<circle cx="64.5888" cy="53.5907" r="17.8915" stroke="#0B1867" stroke-width="0.5"/>
<circle cx="64.5898" cy="53.5908" r="31.1445" stroke="#0B1867" stroke-width="0.5"/>
<circle cx="64.5895" cy="53.5907" r="33.1324" stroke="#0B1867" stroke-width="1.5"/>
<circle cx="64.589" cy="53.5907" r="39.7589" stroke="#0B1867" stroke-width="1.5"/>
<circle cx="64.5912" cy="53.5907" r="42.4095" stroke="#0B1867" stroke-width="0.5"/>
<path d="M64.7393 34.4309C68.0589 34.4309 70.75 31.7397 70.75 28.42C70.75 25.1003 68.0589 22.4092 64.7393 22.4092C61.4196 22.4092 58.7285 25.1003 58.7285 28.42C58.7285 31.7397 61.4196 34.4309 64.7393 34.4309Z" stroke="#0B1867" stroke-width="0.5"/>
<path d="M82.5381 41.9294C85.8577 41.9294 88.5488 39.2383 88.5488 35.9186C88.5488 32.5989 85.8577 29.9077 82.5381 29.9077C79.2184 29.9077 76.5273 32.5989 76.5273 35.9186C76.5273 39.2383 79.2184 41.9294 82.5381 41.9294Z" stroke="#0B1867" stroke-width="0.5"/>
<path d="M89.7627 59.7273C93.0824 59.7273 95.7735 57.0361 95.7735 53.7164C95.7735 50.3967 93.0824 47.7056 89.7627 47.7056C86.4431 47.7056 83.752 50.3967 83.752 53.7164C83.752 57.0361 86.4431 59.7273 89.7627 59.7273Z" stroke="#0B1867" stroke-width="0.5"/>
<path d="M82.5205 77.4968C85.8402 77.4968 88.5313 74.8056 88.5313 71.4859C88.5313 68.1662 85.8402 65.4751 82.5205 65.4751C79.2009 65.4751 76.5098 68.1662 76.5098 71.4859C76.5098 74.8056 79.2009 77.4968 82.5205 77.4968Z" stroke="#0B1867" stroke-width="0.5"/>
<path d="M64.499 84.7351C67.8187 84.7351 70.5098 82.0439 70.5098 78.7242C70.5098 75.4045 67.8187 72.7134 64.499 72.7134C61.1794 72.7134 58.4883 75.4045 58.4883 78.7242C58.4883 82.0439 61.1794 84.7351 64.499 84.7351Z" stroke="#0B1867" stroke-width="0.5"/>
<path d="M46.8955 77.4997C50.2152 77.4997 52.9063 74.8086 52.9063 71.4889C52.9063 68.1692 50.2152 65.478 46.8955 65.478C43.5759 65.478 40.8848 68.1692 40.8848 71.4889C40.8848 74.8086 43.5759 77.4997 46.8955 77.4997Z" stroke="#0B1867" stroke-width="0.5"/>
<path d="M39.4229 59.6101C42.7425 59.6101 45.4336 56.9189 45.4336 53.5992C45.4336 50.2795 42.7425 47.5884 39.4229 47.5884C36.1032 47.5884 33.4121 50.2795 33.4121 53.5992C33.4121 56.9189 36.1032 59.6101 39.4229 59.6101Z" stroke="#0B1867" stroke-width="0.5"/>
<path d="M46.8447 41.8479C50.1644 41.8479 52.8555 39.1567 52.8555 35.837C52.8555 32.5173 50.1644 29.8262 46.8447 29.8262C43.5251 29.8262 40.834 32.5173 40.834 35.837C40.834 39.1567 43.5251 41.8479 46.8447 41.8479Z" stroke="#0B1867" stroke-width="0.5"/>
<path fill-rule="evenodd" clip-rule="evenodd" d="M53.5781 30.4317C54.7668 31.9118 55.4775 33.7902 55.4775 35.8369C55.4775 36.6213 55.3738 37.3802 55.177 38.103C56.7548 37.1383 58.4919 36.4095 60.3387 35.9647C58.0156 34.6062 56.3761 32.2064 56.0621 29.4038C55.2115 29.7044 54.3836 30.047 53.5781 30.4317Z" fill="#0B1867"/>
<path fill-rule="evenodd" clip-rule="evenodd" d="M73.4024 29.52C73.0523 32.3136 71.3828 34.6954 69.0371 36.0238C70.8599 36.4881 72.5714 37.2304 74.1252 38.2027C73.9269 37.4739 73.8217 36.709 73.8217 35.9186C73.8217 33.8719 74.5279 31.989 75.709 30.5028C74.9592 30.1391 74.1898 29.8115 73.4024 29.52Z" fill="#0B1867"/>
<path fill-rule="evenodd" clip-rule="evenodd" d="M46.9087 49.8574C47.3279 47.8107 48.0928 45.8917 49.1417 44.1636C48.4099 44.365 47.639 44.4717 46.8441 44.4717C44.8094 44.4717 42.9401 43.7684 41.4644 42.5933C41.0527 43.4648 40.6876 44.3635 40.375 45.2876C43.2421 45.6107 45.669 47.3839 46.9087 49.8574Z" fill="#0B1867"/>
<path fill-rule="evenodd" clip-rule="evenodd" d="M46.9336 57.2827C45.7134 59.7667 43.2986 61.5564 40.4375 61.9036C40.7305 62.7436 41.0656 63.5641 41.4413 64.362C42.953 63.2034 44.8434 62.5152 46.8946 62.5152C47.6609 62.5152 48.4033 62.6113 49.111 62.7902C48.1012 61.1131 47.3559 59.2573 46.9336 57.2827Z" fill="#0B1867"/>
<path fill-rule="evenodd" clip-rule="evenodd" d="M55.5562 69.1191C55.762 69.8735 55.8732 70.6684 55.8732 71.4889C55.8732 73.483 55.2226 75.3268 54.1211 76.816C54.6651 77.061 55.2196 77.2864 55.7831 77.4923C56.1738 74.6957 57.8808 72.3199 60.2551 71.0111C58.5856 70.6008 57.0078 69.9577 55.5562 69.1191Z" fill="#0B1867"/>
<path fill-rule="evenodd" clip-rule="evenodd" d="M68.7871 71.0368C71.1538 72.3591 72.8459 74.7424 73.2215 77.5435C73.9068 77.2971 74.5785 77.0221 75.2352 76.72C74.1758 75.2474 73.5521 73.4396 73.5521 71.4861C73.5521 70.595 73.6814 69.7324 73.9248 68.9194C72.353 69.8752 70.6249 70.5965 68.7871 71.0368Z" fill="#0B1867"/>
<path fill-rule="evenodd" clip-rule="evenodd" d="M79.9727 62.8812C80.7811 62.6423 81.6361 62.5145 82.5212 62.5145C84.4807 62.5145 86.2945 63.1427 87.7701 64.2096C88.0646 63.571 88.3336 62.9203 88.5771 62.2546C85.7595 61.8669 83.3762 60.1192 82.1125 57.6938C81.6707 59.5512 80.9404 61.2974 79.9727 62.8812Z" fill="#0B1867"/>
<path fill-rule="evenodd" clip-rule="evenodd" d="M82.1859 49.6079C83.4888 47.2096 85.8976 45.498 88.7271 45.1584C88.4567 44.3755 88.1501 43.6106 87.8075 42.8652C86.3454 43.9757 84.5211 44.6339 82.5421 44.6339C81.6856 44.6339 80.8576 44.5107 80.0762 44.2808C81.0454 45.9082 81.7667 47.7025 82.1859 49.6079Z" fill="#0B1867"/>
<path d="M35.215 45.8532L88.5863 76.9091C88.6286 78.0988 88.7914 79.3024 89.0829 80.5038C91.4972 89.514 100.746 94.8535 109.756 92.4393C112.115 91.807 114.223 90.7059 116.006 89.2632L102.723 81.5943C101.251 80.8313 100.075 79.4776 99.5948 77.6871C98.7325 74.4692 100.56 70.9905 103.992 70.0708C105.668 69.6218 107.356 69.9177 108.75 70.7811L108.753 70.776L122.108 78.4865C122.415 76.3061 122.297 74.0288 121.691 71.7664C119.277 62.7562 110.086 57.6312 101.018 59.8309C99.7204 60.1787 98.503 60.6672 97.3765 61.2756L44.0371 30.3595C42.003 29.1851 40.5809 27.3778 40.1406 25.1512C37.8399 12.4815 23.1277 6.57623 12.8466 13.7077C11.9039 14.2729 11.9639 15.6636 12.8885 16.1974L24.1682 22.7098C25.0928 23.2436 25.3664 24.2644 24.8325 25.189L21.2027 31.4761C20.6689 32.4006 19.648 32.6742 18.7235 32.1404L7.44371 25.628C6.51914 25.0942 5.43059 25.6985 5.26662 26.8366C4.24165 39.9285 16.9254 49.3471 28.7563 45.0829C30.759 44.3899 33.181 44.6788 35.215 45.8532Z" fill="#0B1867"/>
</svg>
