<svg width="108" height="114" viewBox="0 0 108 114" fill="none" xmlns="http://www.w3.org/2000/svg">
<circle cx="54" cy="54" r="53.5" stroke="#669BCD"/>
<path d="M55.3156 112.354C55.0559 112.533 54.8353 112.684 54.6571 112.805C54.474 112.687 54.247 112.539 53.9795 112.363C53.1899 111.842 52.048 111.073 50.6448 110.084C47.8375 108.104 43.9881 105.244 39.8224 101.724C31.4676 94.6643 21.9367 85.0304 16.921 74.5888C12.7337 65.8716 10.9961 61.1699 10.9961 53.575C10.9961 30.7317 30.284 12.099 54.2535 12.0002C54.324 12.004 54.3947 12.0044 54.4652 12.0015C78.5113 12.0136 97.8422 30.6776 97.8422 53.5766C97.8422 61.0317 96.2685 65.8898 92.1068 74.2109C86.9112 84.5992 77.4485 94.3309 69.2159 101.5C65.1101 105.075 61.3319 107.994 58.5808 110.019C57.2057 111.032 56.088 111.82 55.3156 112.354Z" stroke="#0B1867" stroke-width="2"/>
<circle cx="54" cy="54" r="28" stroke="#0B1867" stroke-width="2"/>
<path d="M6.35273 34.8992C6.15001 34.9681 6.01367 35.1585 6.01367 35.3726V71.9987C6.01367 72.2748 6.23753 72.4987 6.51367 72.4987H14.2839C14.56 72.4987 14.7839 72.2748 14.7839 71.9987V45.7517C14.7839 45.7445 14.7837 45.7373 14.7834 45.7302C14.781 45.6742 14.79 45.6184 14.8099 45.5657C14.8299 45.513 14.8606 45.4644 14.9003 45.423C14.9124 45.4105 14.9238 45.3974 14.9344 45.3836C14.9551 45.3571 14.9791 45.3328 15.0058 45.3116C15.0852 45.2584 15.181 45.2322 15.2782 45.2381C15.2882 45.2387 15.2983 45.239 15.3083 45.239L45.9623 45.239L45.9674 45.2389C46.0292 45.2383 46.0903 45.2505 46.1466 45.2747C46.2028 45.2987 46.2529 45.3342 46.2938 45.3783C46.3347 45.4224 46.3653 45.474 46.3841 45.5297C46.403 45.5854 46.4097 45.6443 46.4039 45.7026C46.4023 45.7189 46.4015 45.7353 46.4015 45.7517V71.9987C46.4015 72.2748 46.6254 72.4987 46.9015 72.4987H54.6717C54.8043 72.4987 54.9315 72.446 55.0252 72.3522C55.119 72.2585 55.1717 72.1313 55.1717 71.9987L55.1709 19C55.1709 18.8387 55.0931 18.6874 54.962 18.5935C54.8309 18.4996 54.6626 18.4747 54.5099 18.5266L6.35273 34.8992ZM56.1347 72C56.1347 72.2761 56.3586 72.5 56.6347 72.5H74.6511C74.9272 72.5 75.1511 72.2761 75.1511 72V56.465H83.885V72C83.885 72.2761 84.1089 72.5 84.385 72.5H102.487C102.763 72.5 102.987 72.2761 102.987 72V37.2293C102.987 36.9532 102.763 36.7293 102.487 36.7293H56.6347C56.3586 36.7293 56.1347 36.9532 56.1347 37.2293V72ZM15.6638 50.1416C15.6638 50.4177 15.8877 50.6416 16.1638 50.6416H45.1101C45.3862 50.6416 45.6101 50.4177 45.6101 50.1416V46.597C45.6101 46.3208 45.3862 46.097 45.1101 46.097H16.1638C15.8877 46.097 15.6638 46.3208 15.6638 46.597V50.1416ZM15.6638 56.5556C15.6638 56.8317 15.8877 57.0556 16.1638 57.0556H45.1101C45.3862 57.0556 45.6101 56.8317 45.6101 56.5556V52.8422C45.6101 52.5661 45.3862 52.3422 45.1101 52.3422H16.1638C15.8877 52.3422 15.6638 52.5661 15.6638 52.8422V56.5556ZM15.6638 62.8854C15.6638 63.1615 15.8877 63.3854 16.1638 63.3854H45.1101C45.3862 63.3854 45.6101 63.1615 45.6101 62.8854V59.172C45.6101 58.8958 45.3862 58.672 45.1101 58.672H16.1638C15.8877 58.672 15.6638 58.8958 15.6638 59.172V62.8854ZM15.6638 69.2994C15.6638 69.5755 15.8877 69.7994 16.1638 69.7994H45.1101C45.3862 69.7994 45.6101 69.5755 45.6101 69.2994V65.586C45.6101 65.3098 45.3862 65.086 45.1101 65.086H16.1638C15.8877 65.086 15.6638 65.3098 15.6638 65.586V69.2994Z" fill="#0B1867" stroke="white" stroke-linejoin="round"/>
<path d="M70.6611 43.3513H62.3789V50.6938H70.6611V43.3513Z" fill="white"/>
<path d="M83.8959 43.3513H75.5282V50.6938H83.8959V43.3513Z" fill="white"/>
<path d="M97.3868 43.3513H89.0191V50.6938H97.3868V43.3513Z" fill="white"/>
<path d="M18.9897 39.054H12.2441V41.0794H18.9897V39.054Z" fill="white"/>
<path d="M29.7479 39.054H22.9171V41.0794H29.7479V39.054Z" fill="white"/>
<path d="M40.5065 39.054H33.6757V41.0794H40.5065V39.054Z" fill="white"/>
<path d="M51.1795 39.054H44.3487V41.0794H51.1795V39.054Z" fill="white"/>
</svg>
