<svg width="122" height="108" viewBox="0 0 122 108" fill="none" xmlns="http://www.w3.org/2000/svg">
<circle cx="55" cy="54" r="53.5" stroke="#669BCD"/>
<path fill-rule="evenodd" clip-rule="evenodd" d="M109.753 52.4914L117.519 56.1462C118.433 57.0599 118.89 57.9736 118.89 59.801V72.5928H120.717C121.174 72.5928 121.631 73.0496 121.631 73.9633V76.7044C121.631 77.6181 121.174 78.075 120.717 78.075H118.89V79.9024H107.469C108.839 73.0496 103.357 66.6537 96.5041 66.6537C89.1945 66.6537 84.1692 73.0496 85.0829 79.9024H82.3418V54.3188V36.9585H98.3315L109.753 52.4914ZM85.0829 39.2427V53.4051H107.012L96.961 39.2427H85.0829Z" fill="#0B1867"/>
<path d="M23.8634 68.9814C29.0694 68.9814 32.9572 72.8692 32.9572 78.0753C32.9572 82.8401 29.0541 87.1691 23.8634 87.1691C19.1142 87.1691 14.7695 82.8245 14.7695 78.0753C14.7695 72.8846 19.0986 68.9814 23.8634 68.9814ZM23.8634 73.0068C21.2687 73.0068 19.2517 75.0936 19.2517 78.0753C19.2517 80.6357 21.303 82.6869 23.8634 82.6869C26.8451 82.6869 28.9319 80.6699 28.9319 78.0753C28.9319 76.5911 28.435 75.3155 27.5291 74.4096C26.6232 73.5037 25.3475 73.0068 23.8634 73.0068Z" fill="#0B1867" stroke="#0B1867"/>
<path fill-rule="evenodd" clip-rule="evenodd" d="M96.504 68.4814C101.986 68.4814 106.098 72.5931 106.098 78.0753C106.098 83.1006 101.986 87.6691 96.504 87.6691C91.0218 87.6691 86.9102 83.1006 86.9102 78.0753C86.9102 72.5931 91.0218 68.4814 96.504 68.4814ZM96.504 73.5068C94.2198 73.5068 91.9355 75.3342 91.9355 78.0753C91.9355 80.3595 94.2198 82.1869 96.504 82.1869C98.7882 82.1869 101.072 80.3595 101.072 78.0753C101.072 75.3342 98.7882 73.5068 96.504 73.5068Z" fill="#0B1867"/>
<path d="M80.0151 56.646V61.585H1.06641V56.646H80.0151Z" fill="#0B1867" stroke="#0B1867"/>
<path d="M2.21142 21.5H78.6658C79.2645 21.5 79.734 21.6695 80.0413 21.893C80.3543 22.1207 80.4687 22.3758 80.4687 22.5637V53.3368H0.869141V22.5637C0.869141 22.3665 0.993286 22.1034 1.2684 21.8698C1.5376 21.6414 1.88668 21.5 2.21142 21.5Z" fill="white" stroke="#0B1867"/>
<path d="M80.0151 78.4885H35.8109C35.9975 71.6034 30.8352 66.1536 23.8657 66.1536C17.3544 66.1536 11.7555 71.5913 11.9214 78.4885H1.06641V65.3262H80.0151V78.4885Z" fill="#0B1867" stroke="#0B1867"/>
<path d="M29.6707 42.0469L56.8358 42.1418C57.1136 42.5987 57.4404 43.0338 57.8157 43.4389C60.7174 46.4253 65.4155 46.4253 68.3172 43.4389C69.0772 42.6567 69.6381 41.7478 70 40.7785L63.2522 40.7786C62.5235 40.8127 61.7777 40.5482 61.2011 39.9547C60.1647 38.8881 60.0956 37.1105 61.2011 35.9728C61.7408 35.4174 62.4491 35.1512 63.17 35.1743V35.1716H69.9542C69.5915 34.2472 69.0458 33.3808 68.3172 32.6309C65.4155 29.6445 60.7865 29.7156 57.8157 32.6309C57.3977 33.0611 57.0413 33.5282 56.746 34.0218L29.6238 33.9745C28.5905 33.9745 27.6512 33.5878 26.9936 32.8144C23.3302 28.3674 16.4261 29.3825 14.0777 34.5063C13.8429 34.9413 14.1717 35.473 14.6413 35.473L20.3713 35.473C20.841 35.473 21.1697 35.8114 21.1697 36.2947V39.5817C21.1697 40.0651 20.841 40.4034 20.3713 40.4034L14.6413 40.4034C14.1717 40.4034 13.8899 40.8868 14.0777 41.3702C16.567 46.7356 23.4711 47.5573 27.0406 43.207C27.6512 42.4819 28.6375 42.0469 29.6707 42.0469Z" fill="#0B1867"/>
</svg>
