<svg width="145" height="144" viewBox="0 0 145 144" fill="none" xmlns="http://www.w3.org/2000/svg">
<path fill-rule="evenodd" clip-rule="evenodd" d="M124 13.1745L10.1745 127L9 125.826L122.826 12.0001L124 13.1745Z" fill="#0B1867"/>
<g opacity="0.6">
<path d="M14 68C14 38.1766 38.1766 14 68 14C81.4787 14 93.8041 18.9383 103.265 27.1044L104.683 25.6865C94.8569 17.1602 82.0311 12 68 12C37.0721 12 12 37.0721 12 68C12 82.0311 17.1602 94.8569 25.6865 104.683L27.1044 103.265C18.9383 93.8041 14 81.4787 14 68Z" fill="#0B1867"/>
<path fill-rule="evenodd" clip-rule="evenodd" d="M98.655 31.7148C90.3818 24.7182 79.6835 20.5 68 20.5C41.7665 20.5 20.5 41.7665 20.5 68C20.5 79.6835 24.7182 90.3818 31.7148 98.655L32.4244 97.9454C25.6076 89.8552 21.5 79.4073 21.5 68C21.5 55.6818 26.2898 44.4824 34.1084 36.1625C30.5479 39.9807 30.7351 45.963 34.5376 49.5506C38.3538 53.1512 44.3664 52.9764 47.967 49.1601C51.5675 45.3439 51.3927 39.3314 47.5765 35.7308C43.7694 32.1388 37.7765 32.3042 34.1731 36.0939C42.6515 27.1083 54.6708 21.5 68 21.5C79.4073 21.5 89.8552 25.6076 97.9454 32.4244L98.655 31.7148ZM35.2239 48.8233C31.8093 45.6017 31.6529 40.222 34.8745 36.8075C38.0961 33.393 43.4757 33.2366 46.8902 36.4582C50.3048 39.6797 50.4612 45.0594 47.2396 48.4739C44.018 51.8884 38.6384 52.0448 35.2239 48.8233Z" fill="#0B1867"/>
<path d="M97.8197 32.55C94.0547 30.3584 89.1441 30.9891 86.0667 34.3229C83.1691 37.4619 82.7901 42.0296 84.8303 45.5394L85.5651 44.8047C83.8878 41.6973 84.2724 37.741 86.8015 35.0012C89.4921 32.0863 93.749 31.481 97.0852 33.2846L97.8197 32.55Z" fill="#0B1867"/>
<path d="M84.4267 45.9431C79.8432 42.524 74.1579 40.5 68 40.5C52.8122 40.5 40.5 52.8122 40.5 68C40.5 74.1579 42.524 79.8432 45.9431 84.4267L46.658 83.7118C43.416 79.3155 41.5 73.8815 41.5 68C41.5 53.3645 53.3645 41.5 68 41.5C73.8815 41.5 79.3155 43.416 83.7118 46.658L84.4267 45.9431Z" fill="#0B1867"/>
<path d="M81.9217 48.4481C77.9955 45.6475 73.1902 44 68 44C54.7452 44 44 54.7452 44 68C44 73.1902 45.6475 77.9955 48.4481 81.9217L49.8839 80.4858C47.4345 76.9387 46 72.6369 46 68C46 55.8497 55.8497 46 68 46C72.6369 46 76.9387 47.4345 80.4858 49.8839L81.9217 48.4481Z" fill="#0B1867"/>
<path d="M44.8912 85.4786C41.6304 84.5588 37.9816 85.4175 35.4652 88.027C33.0344 90.5477 32.2747 94.0651 33.1611 97.2086L33.9872 96.3825C33.4253 93.7173 34.1519 90.8295 36.185 88.7211C38.2951 86.533 41.295 85.7207 44.0651 86.3047L44.8912 85.4786Z" fill="#0B1867"/>
<path fill-rule="evenodd" clip-rule="evenodd" d="M31.2703 78.5121C26.0255 78.6538 21.6589 74.517 21.5172 69.2722C21.3754 64.0274 25.5123 59.6607 30.757 59.519C36.0018 59.3773 40.3685 63.5141 40.5102 68.7589C40.652 74.0037 36.5151 78.3703 31.2703 78.5121ZM22.5168 69.2451C22.6436 73.9379 26.5506 77.6392 31.2433 77.5124C35.936 77.3856 39.6374 73.4786 39.5106 68.7859C39.3838 64.0932 35.4768 60.3918 30.7841 60.5186C26.0914 60.6454 22.39 64.5524 22.5168 69.2451Z" fill="#0B1867"/>
<path fill-rule="evenodd" clip-rule="evenodd" d="M57.1801 31.3532C56.9979 26.1097 61.1009 21.7113 66.3444 21.5291C71.588 21.3468 75.9864 25.4499 76.1686 30.6934C76.3508 35.9369 72.2478 40.3354 67.0043 40.5176C61.7607 40.6998 57.3623 36.5968 57.1801 31.3532ZM66.3792 22.5285C61.6876 22.6915 58.0164 26.6269 58.1795 31.3185C58.3425 36.0101 62.2779 39.6812 66.9695 39.5182C71.6611 39.3552 75.3322 35.4197 75.1692 30.7281C75.0062 26.0365 71.0707 22.3654 66.3792 22.5285Z" fill="#0B1867"/>
</g>
<g opacity="0.6">
<path d="M31 110.424C40.8096 118.884 53.5849 124 67.555 124C98.483 124 123.555 98.9279 123.555 68C123.555 54.0299 118.44 41.2545 109.979 31.4449L108.561 32.8632C116.661 42.3075 121.555 54.5822 121.555 68C121.555 97.8234 97.3784 122 67.555 122C54.1373 122 41.8625 117.106 32.4182 109.006L31 110.424Z" fill="#0B1867"/>
<path fill-rule="evenodd" clip-rule="evenodd" d="M37.0298 104.395C45.285 111.326 55.9326 115.5 67.555 115.5C93.7886 115.5 115.055 94.2335 115.055 68C115.055 56.3775 110.881 45.73 103.95 37.4748L103.24 38.1847C109.991 46.2566 114.055 56.6537 114.055 68C114.055 62.7533 109.802 58.5 104.555 58.5C99.3083 58.5 95.055 62.7533 95.055 68C95.055 61.9034 93.0712 56.2702 89.7138 51.7107L88.9982 52.4263C92.1788 56.798 94.055 62.1799 94.055 68C94.055 82.6355 82.1906 94.5 67.555 94.5C61.735 94.5 56.3531 92.6238 51.9813 89.4431L51.2657 90.1587C55.8252 93.5161 61.4585 95.5 67.555 95.5C67.6757 95.5 67.7961 95.4992 67.9164 95.4977C62.6795 95.5891 58.5029 99.9034 58.5838 105.143C58.6648 110.389 62.9832 114.576 68.2293 114.495C73.4754 114.414 77.6625 110.096 77.5815 104.85C77.5007 99.6189 73.2075 95.4411 67.9824 95.4967C75.4816 95.3825 82.2529 92.2664 87.1478 87.297C92.0377 82.3326 95.055 75.5187 95.055 68C95.055 73.2467 99.3083 77.5 104.555 77.5C109.802 77.5 114.055 73.2467 114.055 68C114.055 93.6812 93.2363 114.5 67.555 114.5C56.2088 114.5 45.8116 110.436 37.7397 103.685L37.0298 104.395ZM113.055 68C113.055 63.3056 109.249 59.5 104.555 59.5C99.8606 59.5 96.0551 63.3056 96.0551 68C96.0551 72.6944 99.8606 76.5 104.555 76.5C109.249 76.5 113.055 72.6944 113.055 68ZM68.2139 113.495C72.9077 113.423 76.6541 109.559 76.5816 104.865C76.5091 100.171 72.6453 96.4248 67.9514 96.4972C63.2575 96.5697 59.5112 100.434 59.5836 105.127C59.6561 109.821 63.52 113.568 68.2139 113.495Z" fill="#0B1867"/>
<path d="M91.2533 50.1712C94.2409 50.5971 97.3811 49.5955 99.5829 47.2103C101.6 45.0255 102.396 42.1486 102.006 39.418L101.091 40.3332C101.204 42.537 100.463 44.7825 98.8481 46.532C97.0674 48.4611 94.6006 49.3786 92.1687 49.2557L91.2533 50.1712Z" fill="#0B1867"/>
<path d="M38.0829 103.342C41.6128 104.869 45.8698 104.148 48.6971 101.216C51.4397 98.3716 52.055 94.2588 50.5788 90.8456L49.8109 91.6136C50.9345 94.5904 50.3327 98.079 47.9773 100.522C45.5457 103.043 41.9323 103.738 38.8508 102.574L38.0829 103.342Z" fill="#0B1867"/>
<path d="M53.7734 87.651C57.6735 90.3913 62.4264 92 67.555 92C80.8099 92 91.555 81.2548 91.555 68C91.555 62.8714 89.9464 58.1185 87.2061 54.2183L85.7683 55.6561C88.1585 59.1758 89.555 63.4248 89.555 68C89.555 80.1503 79.7053 90 67.555 90C62.9799 90 58.7309 88.6034 55.2112 86.2133L53.7734 87.651Z" fill="#0B1867"/>
<path fill-rule="evenodd" clip-rule="evenodd" d="M87.3609 86.906C91.1407 83.0708 97.3139 83.026 101.149 86.8058C104.984 90.5856 105.029 96.7588 101.249 100.594C97.4694 104.429 91.2962 104.474 87.461 100.694C83.6259 96.9144 83.581 90.7412 87.3609 86.906ZM100.53 87.4339C97.0417 83.996 91.4269 84.0368 87.989 87.525C84.551 91.0133 84.5918 96.6281 88.0801 100.066C91.5684 103.504 97.1832 103.463 100.621 99.975C104.059 96.4867 104.018 90.8719 100.53 87.4339Z" fill="#0B1867"/>
</g>
<path fill-rule="evenodd" clip-rule="evenodd" d="M93.0145 136.363L90.3061 135.058C83.871 131.957 79.9476 127.546 79.1503 121.986C78.3605 116.477 80.6878 110.143 86.0347 103.268L87.7096 101.115L87.8232 103.84C87.8488 104.456 87.8786 105.057 87.92 105.64C88.0028 104.85 88.1359 104.022 88.3353 103.166C89.4122 98.5391 92.3919 93.1728 99.5138 88.2959L101.58 86.8809L101.057 89.33C100.063 93.98 101.072 97.7911 102.844 101.246C103.737 102.986 104.821 104.63 105.949 106.252C106.263 106.705 106.583 107.158 106.904 107.611C107.718 108.765 108.533 109.919 109.263 111.064C111.302 114.262 112.871 117.665 112.228 121.605C111.589 125.523 108.806 129.712 102.822 134.628L101.291 133.413C102.828 130.303 103.274 128.109 103.171 126.399C103.068 124.704 102.418 123.36 101.498 121.934C101.209 121.487 100.893 121.032 100.564 120.56C99.0667 118.411 97.31 115.889 96.7182 111.957C95.3797 113.627 94.6162 115.294 94.2819 116.991C93.8361 119.254 94.1334 121.672 95.0051 124.359L95.652 126.354L93.6949 125.601C92.0514 124.969 90.4783 123.641 89.2486 121.912C88.4316 126.226 89.978 130.524 91.6274 133.696L93.0145 136.363ZM88.4953 120.726C88.6155 120.283 88.7605 119.839 88.9327 119.396C89.1281 119.811 89.3433 120.211 89.5751 120.592C90.4697 122.062 91.6114 123.258 92.8156 124.032C93.2236 124.294 93.6387 124.508 94.0539 124.668C93.9135 124.235 93.7868 123.807 93.6747 123.383C92.4444 118.731 92.9733 114.592 96.566 110.592C96.8623 110.263 97.1794 109.934 97.5182 109.606C97.53 110.071 97.5576 110.517 97.5995 110.946C98.0076 115.123 99.7662 117.655 101.363 119.955C103.553 123.107 105.439 125.822 103.129 131.737C102.87 132.401 102.558 133.106 102.187 133.856C102.82 133.336 103.414 132.826 103.972 132.326C115.696 121.801 111.195 115.424 106.101 108.208C102.599 103.248 98.817 97.8907 99.8331 90.5169C99.8961 90.0595 99.9776 89.5943 100.079 89.121C99.6738 89.3983 99.2828 89.677 98.9055 89.9569C88.5062 97.67 88.4061 106.275 89.0079 110.737C89.113 111.516 89.2394 112.168 89.3362 112.668C89.3533 112.757 89.3696 112.84 89.3846 112.919C88.8147 112.39 88.3769 111.751 88.0383 111.029C87.3045 109.463 87.0372 107.506 86.9034 105.43C86.8705 104.92 86.8457 104.402 86.824 103.882C86.4985 104.3 86.1849 104.716 85.8832 105.129C76.815 117.541 78.4571 127.442 89.2455 133.387C89.7256 133.651 90.2239 133.908 90.7402 134.157C90.4959 133.687 90.2517 133.189 90.0153 132.667C88.5116 129.345 87.3274 125.039 88.4953 120.726Z" fill="white"/>
<circle cx="106.5" cy="105.5" r="38" fill="white" stroke="#0B1867"/>
<path fill-rule="evenodd" clip-rule="evenodd" d="M90.7399 134.157C78.2383 128.132 76.2802 117.438 86.8237 103.882C86.9744 107.497 87.2756 110.961 89.3843 112.919C88.7818 109.756 86.2212 98.6102 100.078 89.121C95.8611 108.853 125.835 114.426 102.187 133.856C108.513 121.053 97.8191 121.505 97.5179 109.606C92.698 114.275 92.2461 119.095 94.0536 124.668C92.0955 123.915 90.1374 121.957 88.9324 119.396C86.8237 124.818 88.7818 130.391 90.7399 134.157Z" fill="#0B1867"/>
<path fill-rule="evenodd" clip-rule="evenodd" d="M121.815 108.752C132.295 103.702 133.937 94.7371 125.098 83.3736C124.972 86.4039 124.719 89.3079 122.952 90.9493C123.457 88.2978 125.603 78.9544 113.987 71C120.375 88.366 92.3966 92.2119 112.22 108.5C109.049 104.977 106.784 98.1815 110.559 93.6512C112.069 98.1815 113.606 95.8494 113.987 95.239C115.091 93.4703 116.053 91.3449 116.134 88.1715C120.174 92.0856 120.553 96.126 119.038 100.798C120.679 100.166 122.321 98.5249 123.331 96.3785C125.098 100.924 123.457 105.596 121.815 108.752Z" fill="#0B1867"/>
<path fill-rule="evenodd" clip-rule="evenodd" d="M119.541 110.958L122.249 109.653C127.673 107.039 131.012 103.304 131.691 98.5722C132.362 93.8921 130.382 88.5381 125.887 82.7597L124.212 80.6063L124.102 83.2603C124.067 83.0873 124.03 82.9127 123.989 82.7366C123.076 78.8164 120.553 74.2846 114.552 70.175L111.967 68.4048L113.048 71.3453C115.646 78.4081 112.214 82.9595 108.733 87.5771C108.235 88.2376 107.736 88.8994 107.253 89.5702C105.383 92.17 103.735 94.9855 104.035 98.3012C104.336 101.624 106.556 105.14 111.585 109.272L112.963 107.831C111.496 106.201 110.224 103.79 109.768 101.275C109.421 99.3587 109.554 97.4421 110.374 95.7622C110.55 96.0752 110.735 96.3404 110.93 96.5597C111.453 97.1498 112.114 97.4714 112.845 97.3619C113.485 97.2659 113.953 96.8649 114.229 96.5732C114.523 96.2629 114.734 95.9312 114.835 95.7686C115.716 94.3578 116.522 92.7094 116.905 90.5357C117.872 91.8193 118.432 93.098 118.688 94.3938C119.054 96.2552 118.812 98.2523 118.086 100.489L117.439 102.484L119.396 101.731C120.709 101.226 121.96 100.21 122.97 98.8899C123.492 102.327 122.258 105.733 120.928 108.291L119.541 110.958ZM123.755 97.7174C123.644 97.2709 123.504 96.8241 123.33 96.3786C123.135 96.7938 122.916 97.1901 122.678 97.5639C121.999 98.63 121.165 99.5126 120.282 100.127C119.874 100.41 119.456 100.637 119.037 100.798C119.18 100.36 119.305 99.9272 119.412 99.4999C120.353 95.7549 119.902 92.4041 117.081 89.1675C116.791 88.8344 116.475 88.5026 116.133 88.1716C116.122 88.6392 116.091 89.084 116.043 89.5082C115.767 91.9635 114.928 93.731 113.987 95.2391C113.641 95.7928 112.344 97.7632 110.979 94.7429C110.84 94.4336 110.699 94.0721 110.559 93.6513C110.294 93.9694 110.058 94.2987 109.851 94.6372C107.885 97.8478 108.438 101.891 109.993 105.13C110.609 106.413 111.383 107.57 112.219 108.5C111.037 107.528 110.024 106.6 109.164 105.712C101.925 98.2296 105.51 93.4959 109.505 88.2204C112.741 83.9476 116.245 79.3194 114.487 72.5878C114.352 72.0712 114.186 71.5422 113.987 71.0001C114.469 71.33 114.927 71.6623 115.362 71.9964C123.289 78.0776 123.738 84.7592 123.334 88.5652C123.239 89.4662 123.095 90.2061 122.992 90.7386C122.978 90.813 122.964 90.8832 122.952 90.9493C123.573 90.3719 124.008 89.6382 124.315 88.7978C124.731 87.6602 124.914 86.327 125.015 84.9208C125.051 84.4127 125.076 83.8951 125.098 83.3737C125.425 83.7943 125.738 84.2116 126.036 84.6255C133.403 94.8412 132.077 103.008 123.308 107.973C122.832 108.242 122.335 108.502 121.815 108.752C122.057 108.286 122.3 107.787 122.531 107.261C123.713 104.569 124.609 101.153 123.755 97.7174Z" fill="white"/>
<circle cx="31" cy="31" r="30.5" fill="white" stroke="#0B1867"/>
<path d="M42.75 12V23.5" stroke="#0B1867" stroke-linecap="round"/>
<path d="M48.5 17.75L37 17.75" stroke="#0B1867" stroke-linecap="round"/>
<path d="M46.8164 13.6841L38.6847 21.8159" stroke="#0B1867" stroke-linecap="round"/>
<path d="M46.8164 21.8159L38.6847 13.6841" stroke="#0B1867" stroke-linecap="round"/>
<path d="M26.2744 38.5083L26.4818 38.3586V38.1029V28.5V26V21V12.6753C26.4818 10.353 28.2964 8.5 30.4992 8.5C32.7019 8.5 34.5165 10.353 34.5165 12.6753V38.1029V38.3586L34.7239 38.5083C36.6437 39.8942 37.9046 42.2008 37.9046 44.8182C37.9046 49.077 34.573 52.5 30.4992 52.5C26.4254 52.5 23.0938 49.077 23.0938 44.8182C23.0938 42.2008 24.3547 39.8942 26.2744 38.5083Z" stroke="#0B1867"/>
<path d="M30.4995 30.027C29.54 30.027 28.7621 30.8049 28.7621 31.7645V42.5991C27.9744 43.1485 27.459 44.0614 27.459 45.0946C27.459 46.7738 28.8203 48.1351 30.4995 48.1351C32.1788 48.1351 33.5401 46.7738 33.5401 45.0946C33.5401 44.0614 33.0247 43.1485 32.237 42.5991V31.7645C32.237 30.8049 31.4591 30.027 30.4995 30.027Z" fill="#0B1867"/>
</svg>
