<svg width="115" height="108" viewBox="0 0 115 108" fill="none" xmlns="http://www.w3.org/2000/svg">
<circle cx="60.0527" cy="54" r="53.5" stroke="#669BCD"/>
<circle cx="41.0804" cy="43.0541" r="40.1351" fill="white"/>
<circle cx="41.0807" cy="43.054" r="16.7838" stroke="#0B1867"/>
<circle cx="41.0816" cy="43.054" r="19.7027" stroke="#0B1867" stroke-width="0.5"/>
<circle cx="41.0805" cy="43.0541" r="34.2973" stroke="#0B1867" stroke-width="0.5"/>
<circle cx="41.0804" cy="43.0541" r="40.1351" stroke="#0B1867"/>
<circle cx="68.0828" cy="43.0539" r="6.56757" transform="rotate(90 68.0828 43.0539)" stroke="#0B1867"/>
<circle cx="60.3119" cy="62.0082" r="6.56757" transform="rotate(134.584 60.3119 62.0082)" stroke="#0B1867"/>
<circle cx="41.4685" cy="70.0512" r="6.56757" transform="rotate(179.115 41.4685 70.0512)" stroke="#0B1867"/>
<circle cx="22.3313" cy="62.4804" r="6.56757" transform="rotate(-136.041 22.3313 62.4804)" stroke="#0B1867"/>
<circle cx="14.0928" cy="43.795" r="6.56757" transform="rotate(-91.548 14.0928 43.795)" stroke="#0B1867"/>
<circle cx="21.4207" cy="24.5487" r="6.56757" transform="rotate(-46.6654 21.4207 24.5487)" stroke="#0B1867"/>
<circle cx="40.1159" cy="16.0709" r="6.56757" transform="rotate(-1.99018 40.1159 16.0709)" stroke="#0B1867"/>
<circle cx="59.3614" cy="23.1809" r="6.56757" transform="rotate(42.7099 59.3614 23.1809)" stroke="#0B1867"/>
<path d="M48.0475 31.2848V21.3212L49.2929 18.8303H109.075V103.521H50.5384L48.0475 102.691V94.8029L43.896 93.9726C36.4232 92.312 27.7051 84.3411 27.7051 72.3848C27.7051 60.4284 37.6687 53.2878 43.4808 51.6272V31.2848H48.0475Z" fill="white"/>
<path fill-rule="evenodd" clip-rule="evenodd" d="M34.2503 69.6933C33.2423 69.6933 32.3795 70.4439 32.3536 71.4516C32.3496 71.6053 32.3477 71.7592 32.3477 71.9131C32.3477 76.589 34.1851 81.0287 37.4931 84.3341C40.7985 87.6395 45.2357 89.4796 49.9115 89.4796C54.5873 89.4796 59.0271 87.6395 62.3325 84.3341C65.6379 81.0287 67.4779 76.589 67.4779 71.9131C67.4779 71.7591 67.4758 71.6052 67.4717 71.4514C67.4446 70.4438 66.5807 69.6933 65.5728 69.6933H34.2503ZM43.3392 73.9482C44.4093 73.9482 45.2767 74.8156 45.2767 75.8858C45.2767 76.9559 44.4093 77.8234 43.3392 77.8234C42.269 77.8234 41.4016 76.9559 41.4016 75.8858C41.4016 74.8156 42.269 73.9482 43.3392 73.9482ZM56.1374 71.1535C57.4 71.1535 58.424 72.1775 58.424 73.4401C58.424 74.7027 57.4 75.7267 56.1374 75.7267C54.8748 75.7267 53.8508 74.7027 53.8508 73.4401C53.8508 72.1775 54.8748 71.1535 56.1374 71.1535ZM53.2477 81.3803C54.1074 81.3803 54.8029 82.0758 54.8029 82.9355C54.8029 83.7952 54.1074 84.4932 53.2477 84.4932C52.388 84.4932 51.69 83.7952 51.69 82.9355C51.69 82.0758 52.388 81.3803 53.2477 81.3803ZM48.9645 51.2107C49.832 51.2107 50.5377 51.9139 50.5377 52.7813C50.5377 53.6487 49.832 54.3544 48.9645 54.3544C48.0971 54.3544 47.3914 53.6487 47.3914 52.7813C47.3914 51.9139 48.0971 51.2107 48.9645 51.2107ZM47.8995 60.9909C49.5497 60.9909 50.8867 62.328 50.8867 63.9755C50.8867 65.6257 49.5497 66.9627 47.8995 66.9627C46.2519 66.9627 44.9149 65.6257 44.9149 63.9755C44.9149 62.328 46.2519 60.9909 47.8995 60.9909ZM49.5753 18H108.503C109.57 18 110.435 18.8652 110.435 19.9324V102.419C110.435 103.486 109.57 104.351 108.503 104.351H49.5753C48.5081 104.351 47.6429 103.486 47.6429 102.419V97.8411C47.6429 97.461 47.951 97.1528 48.3312 97.1528C48.7113 97.1528 49.0194 97.461 49.0194 97.8411V100.975C49.0194 102.079 49.9149 102.975 51.0194 102.975H107.062C108.166 102.975 109.062 102.079 109.062 100.975V21.3765C109.062 20.272 108.166 19.3765 107.062 19.3765H51.0194C49.9149 19.3765 49.0194 20.272 49.0194 21.3765V26.1938C49.0194 26.5739 48.7113 26.882 48.3312 26.882C47.951 26.882 47.6429 26.5739 47.6429 26.1938V19.9324C47.6429 18.8652 48.5081 18 49.5753 18ZM77.715 47.469H87.7749C88.4191 47.469 88.9452 47.9951 88.9452 48.6392V54.0978C88.9452 54.7419 88.4191 55.268 87.7749 55.268H77.715C77.0708 55.268 76.5447 54.7419 76.5447 54.0978V48.6392C76.5447 47.9951 77.0708 47.469 77.715 47.469ZM77.715 27.4697H87.7749C88.4191 27.4697 88.9452 27.9958 88.9452 28.6399V34.0985C88.9452 34.7426 88.4191 35.2687 87.7749 35.2687H77.715C77.0708 35.2687 76.5447 34.7426 76.5447 34.0985V28.6399C76.5447 27.9958 77.0708 27.4697 77.715 27.4697ZM102.038 81.1698H91.9785C91.3344 81.1698 90.8083 81.6985 90.8083 82.3401V87.7986C90.8083 88.4428 91.3344 88.9689 91.9785 88.9689H102.038C102.683 88.9689 103.209 88.4428 103.209 87.7986V82.3401C103.209 81.6985 102.683 81.1698 102.038 81.1698ZM102.038 61.1705H91.9785C91.3344 61.1705 90.8083 61.6992 90.8083 62.3408V67.7993C90.8083 68.4435 91.3344 68.9696 91.9785 68.9696H102.038C102.683 68.9696 103.209 68.4435 103.209 67.7993V62.3408C103.209 61.6992 102.683 61.1705 102.038 61.1705ZM86.2147 85.9485C87.1395 85.2119 87.1197 83.8002 86.1744 83.0899L84.7385 82.0108C84.1385 81.5599 83.2813 81.988 83.2813 82.7386C83.2813 83.2413 82.8737 83.6489 82.371 83.6489H81.2411C80.7022 83.6489 80.212 83.4282 79.8553 83.0715C79.4986 82.7148 79.2779 82.2246 79.2779 81.6857V68.9696C79.2779 68.4307 79.4986 67.9405 79.8553 67.5838C80.212 67.2271 80.7022 67.0064 81.2411 67.0064H87.0904C87.6159 67.0064 88.0418 66.5804 88.0418 66.0549C88.0418 65.5295 87.6159 65.1035 87.0904 65.1035H81.2411C79.9477 65.1035 79.5984 65.1035 78.7681 65.7423C77.9187 66.5918 77.375 67.6762 77.375 68.9696V81.6857C77.375 82.9791 77.9037 84.1519 78.7531 85.0039C79.4564 85.5517 79.9477 85.5517 81.2411 85.5517H82.3925C82.8834 85.5517 83.2813 85.9497 83.2813 86.4406C83.2813 87.185 84.1416 87.5996 84.7239 87.1358L86.2147 85.9485Z" fill="#0B1867"/>
<path d="M94.675 47.6563L93.0875 48.8493C92.219 49.5019 92.2007 50.7989 93.0505 51.4758L94.6896 52.7813C95.2719 53.245 96.1322 52.8304 96.1322 52.086C96.1322 51.5951 96.5302 51.1971 97.0211 51.1971H98.1724C99.4659 51.1971 99.9571 51.1971 100.66 50.6493C101.51 49.7973 102.038 48.6245 102.038 47.3311V34.615C102.038 33.3216 101.495 32.2372 100.645 31.3878C99.8151 30.7489 99.4659 30.7489 98.1724 30.7489H92.3231C91.7977 30.7489 91.3717 31.1749 91.3717 31.7004C91.3717 32.2258 91.7977 32.6518 92.3231 32.6518H98.1724C98.7114 32.6518 99.2015 32.8725 99.5582 33.2292C99.915 33.5859 100.136 34.0761 100.136 34.615V47.3311C100.136 47.87 99.915 48.3602 99.5582 48.7169C99.2015 49.0736 98.7114 49.2943 98.1724 49.2943H97.0425C96.5398 49.2943 96.1322 48.8868 96.1322 48.384C96.1322 47.6335 95.275 47.2054 94.675 47.6563Z" fill="#0B1867"/>
<path d="M42.1542 30.6245C42.1542 30.4864 42.2661 30.3745 42.4042 30.3745H57.0102C57.1483 30.3745 57.2602 30.4864 57.2602 30.6245V32.776C57.2602 32.9141 57.1483 33.026 57.0102 33.026H56.5193C55.5528 33.026 54.7693 33.8095 54.7693 34.776V50.3753C54.7693 51.1734 55.3051 51.8477 56.0387 52.0715C64.9176 54.78 71.3754 63.0369 71.3754 72.8002C71.3754 84.7672 61.6742 94.4683 49.7072 94.4683C37.7402 94.4683 28.0391 84.7672 28.0391 72.8002C28.0391 63.0369 34.4968 54.78 43.3757 52.0715C44.1093 51.8477 44.6451 51.1734 44.6451 50.3753V34.776C44.6451 33.8095 43.8616 33.026 42.8951 33.026H42.4042C42.2661 33.026 42.1542 32.9141 42.1542 32.776V30.6245Z" stroke="#0B1867" stroke-width="1.5" stroke-linecap="round" stroke-linejoin="round"/>
</svg>
