<svg width="98" height="41" viewBox="0 0 98 41" fill="none" xmlns="http://www.w3.org/2000/svg">
<path d="M38.5408 39.6238C38.0547 39.972 37.4297 40.1113 36.8047 40.1113C34.8602 40.1113 33.6797 39.2755 33.6797 38.3004C33.6797 37.2557 34.8602 36.4199 36.8047 36.4199C38.1241 36.4199 39.3741 36.8378 39.513 37.6736H38.1936C38.0547 37.2557 37.4991 37.0468 36.8741 37.0468C35.6241 37.0468 35.138 37.6736 35.138 38.2308C35.138 38.788 35.6241 39.4148 36.8741 39.4148C37.7769 39.4148 38.3325 39.1362 38.4019 38.6487H37.013V38.0915H39.7214V39.972H38.8186L38.5408 39.6238Z" fill="white"/>
<path d="M78.4026 38.0912H79.9303C80.5553 38.0912 80.9026 37.9519 80.9026 37.6036C80.9026 37.2554 80.5553 37.1161 79.9303 37.1161H78.4026V38.0912ZM77.0137 36.4893H80.4859C81.6665 36.4893 82.3609 36.9072 82.3609 37.4643C82.3609 37.8822 82.0831 38.1608 81.3192 38.3698C82.0137 38.4394 82.222 38.8573 82.222 39.2056C82.222 39.4145 82.222 39.8324 82.4998 40.0414H81.1109C80.972 39.8324 80.972 39.4842 80.9026 39.2056C80.8331 38.8573 80.5553 38.6484 79.8609 38.6484H78.472V40.0414H77.0831V36.4893H77.0137Z" fill="white"/>
<path d="M1.38889 39.4145H2.91667C3.47222 39.4145 3.95833 39.3449 3.95833 38.927C3.95833 38.5787 3.54167 38.4394 2.91667 38.4394H1.38889V39.4145ZM1.38889 37.8822H2.77778C3.26389 37.8822 3.61111 37.7429 3.61111 37.4643C3.61111 37.1161 3.125 37.0465 2.63889 37.0465H1.31944V37.8822H1.38889ZM0 36.4893H2.98611C4.16667 36.4893 5 36.6982 5 37.3947C5 37.7429 4.65278 37.9519 4.16667 38.1608C4.93056 38.3001 5.34722 38.6484 5.34722 39.0663C5.34722 39.7628 4.23611 40.111 3.125 40.111H0V36.4893Z" fill="white"/>
<path d="M6.32031 36.4893H11.112V37.1161H7.7092V37.8822H10.8342V38.5091H7.7092V39.3449H11.1814V39.9717H6.32031V36.4893Z" fill="white"/>
<path d="M13.6812 38.6484H15.3479L14.5145 37.325L13.6812 38.6484ZM13.8201 36.4893H15.2784L17.6395 40.0414H16.1812L15.6951 39.2752H13.334L12.8479 40.0414H11.459L13.8201 36.4893Z" fill="white"/>
<path d="M19.6536 38.0912H21.1814C21.8064 38.0912 22.1536 37.9519 22.1536 37.6036C22.1536 37.2554 21.8064 37.1161 21.1814 37.1161H19.6536V38.0912ZM18.1953 36.4893H21.6675C22.7786 36.4893 23.5425 36.9072 23.5425 37.4643C23.5425 37.8822 23.2648 38.1608 22.5009 38.3698C23.1953 38.4394 23.4036 38.8573 23.4036 39.2056C23.4036 39.4145 23.4036 39.8324 23.6814 40.0414H22.2925C22.1536 39.8324 22.1536 39.4842 22.0842 39.2056C22.0148 38.8573 21.737 38.6484 21.0425 38.6484H19.6536V40.0414H18.2648V36.4893H18.1953Z" fill="white"/>
<path d="M26.0412 36.4893H24.6523V40.0414H26.0412V36.4893Z" fill="white"/>
<path d="M27.291 36.4893H28.6799L31.3882 38.8573V36.4893H32.7077V39.9717H31.3188L28.6799 37.6733H28.6105V39.9717H27.291V36.4893Z" fill="white"/>
<path d="M44.5842 36.4893H43.1953V40.0414H44.5842V36.4893Z" fill="white"/>
<path d="M45.834 36.4893H47.2229L49.9312 38.8573V36.4893H51.2506V39.9717H49.8618L47.1534 37.6733V39.9717H45.834V36.4893Z" fill="white"/>
<path d="M53.8889 39.3449H55.1389C55.9722 39.3449 56.7361 39.0663 56.7361 38.3001C56.7361 37.6036 56.3194 37.1161 54.8611 37.1161H53.8889V39.3449ZM52.5 36.4893H55.2778C56.9444 36.4893 58.1944 37.0464 58.1944 38.2305C58.1944 39.2752 57.2222 40.0414 55.2778 40.0414H52.5V36.4893Z" fill="white"/>
<path d="M64.5143 38.6484C64.5143 39.6235 63.4727 40.0414 61.806 40.0414C60.0699 40.0414 59.0977 39.5538 59.0977 38.6484V36.4893H60.4865V38.6484C60.4865 39.0663 60.6949 39.4145 61.806 39.4145C62.7782 39.4145 63.1254 39.2056 63.1254 38.6484V36.4893H64.5143V38.6484Z" fill="white"/>
<path d="M66.6662 38.8573C66.6662 39.3449 67.3607 39.4842 68.0551 39.4842C68.5412 39.4842 69.3051 39.4145 69.3051 39.0663C69.3051 38.718 68.3329 38.6484 67.4301 38.5091C66.4579 38.3698 65.5551 38.1608 65.5551 37.534C65.5551 36.8375 66.8051 36.4893 67.9162 36.4893C69.2357 36.4893 70.4857 36.8375 70.4857 37.6036H69.0968C69.0273 37.1857 68.5412 37.0465 67.8468 37.0465C67.4301 37.0465 66.8746 37.1161 66.8746 37.4643C66.8746 37.7429 67.1523 37.7429 68.7496 38.0215C69.2357 38.0912 70.6246 38.2305 70.6246 39.0663C70.6246 39.6931 69.7218 40.1807 67.9857 40.1807C66.5968 40.1807 65.2773 39.7628 65.2773 38.927H66.6662V38.8573Z" fill="white"/>
<path d="M72.916 37.1161H71.041V36.4893H76.2494V37.1161H74.3049V39.9717H72.916V37.1161Z" fill="white"/>
<path d="M84.7912 36.4893H83.4023V40.0414H84.7912V36.4893Z" fill="white"/>
<path d="M86.1113 36.4893H90.8336V37.1161H87.5002V37.8822H90.5558V38.5091H87.5002V39.3449H90.903V39.9717H86.1113V36.4893Z" fill="white"/>
<path d="M92.8479 38.8573C92.8479 39.3449 93.4729 39.4842 94.2368 39.4842C94.7229 39.4842 95.4868 39.4145 95.4868 39.0663C95.4868 38.718 94.5145 38.6484 93.6118 38.5091C92.6395 38.3698 91.7368 38.1608 91.7368 37.534C91.7368 36.8375 92.9868 36.4893 94.0979 36.4893C95.4173 36.4893 96.6673 36.8375 96.6673 37.6036H95.2784C95.209 37.1857 94.7229 37.0465 94.0284 37.0465C93.6118 37.0465 93.0562 37.1161 93.0562 37.4643C93.0562 37.7429 93.334 37.7429 94.9312 38.0215C95.4173 38.0912 96.8062 38.2305 96.8062 39.0663C96.8062 39.6931 95.9034 40.1807 94.1673 40.1807C92.7784 40.1807 91.459 39.7628 91.459 38.927H92.8479V38.8573Z" fill="white"/>
<path d="M33.6797 0.550781H44.2352V10.5106L51.8047 0.550781H64.6519V8.90865H57.638L53.8186 13.2269L61.6658 24.2314H64.6519V31.8232H53.6797L46.5964 20.8186L44.2352 23.1867V31.8232H33.6797V24.2314H34.7908V8.90865H33.6797V0.550781Z" fill="white"/>
<path d="M17.5694 13.8537H10.8333V8.90865H17.5694V13.8537ZM30.625 27.296C30.5556 25.9726 30.4861 24.4404 30.3472 23.3956C30.1389 22.4205 30 21.3758 29.0972 19.9828C28.1944 18.5899 26.4583 17.5451 26.4583 17.5451C26.4583 17.5451 30.0694 15.1771 30.4167 12.1125C30.9028 8.14251 29.4444 5.49585 29.4444 5.49585C27.3611 0.690078 22.0139 0.550781 22.0139 0.550781H0V8.90865H1.04167V24.2314H0V31.8232H10.8333V21.4455H16.5972C17.3611 21.4455 17.8472 21.5848 18.4028 22.2812C18.9583 22.9777 19.4444 23.7439 19.6528 25.3458C19.8611 26.9477 19.8611 28.2711 20.0694 29.4551C20.2778 30.6391 20.7639 31.8232 20.7639 31.8232H31.5278C31.0417 30.7088 30.625 27.296 30.625 27.296Z" fill="white"/>
<path d="M85.2079 23.6046H78.5412V19.356H85.2079V23.6046ZM78.5412 8.90865H84.3746V12.2518H78.5412V8.90865ZM96.4579 19.0774C95.1385 15.4557 93.3329 14.5502 93.3329 14.5502C93.9579 13.9234 95.1385 12.1822 95.3468 11.0678C95.5551 9.95339 96.2496 7.37638 94.0968 3.96358C92.0135 0.550782 87.9857 0.550781 87.9857 0.550781H67.7773V8.90865H68.8884V24.2314H67.7773V31.9625H87.3607C89.3746 31.9625 90.9023 31.7535 92.6385 30.7784C94.3746 29.8033 95.4857 28.0621 96.1107 26.8781C96.6662 25.694 97.7773 22.6991 96.4579 19.0774Z" fill="white"/>
</svg>
